<svg xmlns="http://www.w3.org/2000/svg" version="1.2" viewBox="0 0 270 250" width="270" height="250"><defs><linearGradient id="P" gradientUnits="userSpaceOnUse"/><radialGradient id="g1" cx="0" cy="0" r="1" href="#P" gradientTransform="matrix(177.27,0,0,177.27,131.424,129.257)"><stop stop-color="#ffef00"/><stop offset=".54" stop-color="#e96738"/><stop offset=".94" stop-color="#e6001c"/></radialGradient><radialGradient id="g2" cx="0" cy="0" r="1" href="#P" gradientTransform="matrix(120.108,0,0,120.108,86.193,96.6)"><stop stop-color="#fff"/><stop offset="1" stop-color="#e5421c"/></radialGradient><radialGradient id="g3" cx="0" cy="0" r="1" href="#P" gradientTransform="matrix(185.821,0,0,185.821,199.645,205.112)"><stop offset=".03"/><stop offset="1" stop-color="#fff"/></radialGradient></defs><style>.a{fill:url(#g1)}.b{fill:#f8a147}.c{fill:#f58932}.d{fill:#e5001c}.e{mix-blend-mode:multiply;fill:url(#g2)}.f{mix-blend-mode:screen;fill:url(#g3)}.g{mix-blend-mode:overlay;fill:#fff}.h{mix-blend-mode:multiply;fill:#c30e18}</style><path class="a" d="m249.8 116.7c-4.7 2.1-9.7 4-13.8 7.3-3.4 2.7-3.9 6.1 0.1 8.4 3.7 2 8.4 2.3 12.4 2.7q-2.2 0.6-4.4 1.3c-4 1.3-7.9 2.9-11.7 4.7-2.9 1.4-6.5 3-8.3 5.7-2.7 3.9 3.3 8.8 6.9 11.4q-2.1 0.4-4.1 0.9c-4.5 1.1-8.8 3.3-9.3 8.3-0.7 6.7 2.6 12.5 6.6 17.6q1 1.3 2 2.5c-2-0.2-4-0.2-5.9-0.4-3.4-0.3-7-0.5-8.9 2.8-2.3 4.2 1 11.3 2.7 15.1 0.9 1.8 1.8 3.7 2.7 5.5q0-0.1-0.1-0.1c-1.5-0.7-2.9-1.7-4.4-2.4-1.7-0.8-3.6-1.1-5.2-1.8-2-1-4.7-1.8-6.7-0.7-1.6 1-1.4 3-1.3 4.5 0.1 3.7 1.7 7.8 2.5 11.4q0.4 1.9 0.9 3.8c-2.2-1.4-4.5-2.7-6.7-3.9-3.4-1.9-6.9-3.8-10.7-5-4.2-1.3-7 1.3-8.2 5.1-1.6 5.4-0.6 11.5 0.8 17.2-2.9-3.3-6.1-6.4-9-9.6-3.4-3.8-8.5-8.8-14-6.8-5.1 1.8-6.4 7.1-7.1 11.9q-0.3 2-0.5 4c-2.5-4.8-6-9.2-10.9-10.2-4-0.7-8.1 3.3-9.9 6.4-0.7 1.3-2.2 8.3-2.8 9.8-0.6-2.2-0.5-9.9-1.1-11.8-1.3-3.8-3-5-7.3-6-5.6-1.4-12.5 11.8-15 17.8 0.1-1.1 3.8-10.3 3.8-11.3 0.2-2.9 0.6-7.1-1.6-9.3-1-1-2.6-0.2-4.3 1.7 0-1.5-0.1-2.9-0.4-4.3-0.8-3.7-3.1-6.9-6.9-4.4-1.7 1.1-3.2 3.1-4.7 4.6-1.6 1.7-7.8 13.3-9.3 15.3 0.9-3 6.4-16.4 5.3-19.1-0.7-1.8-11.7 10-13 10.7 0.4-2.2 10.3-16 9.9-18-1.2-7.5-8.4-4.6-12.7-1.5-4.4 3.2-18.1 17.1-21.9 21.2 3.6-6.5 16.7-23.4 18.7-30.6 0.6-2.3 1.3-5.3 0.3-7.7-1.4-3.1-5.6-2.2-8.2-1.3-6.7 2.2-13.2 7-18.8 11.4q2.9-3 5.6-6.1c3.3-4 6.1-8.3 8-13.1 0.8-2.2 1.2-4.3-0.6-6-3.5-3.2-11.4-1.3-15.4-0.6-4.3 0.8-8.7 1.2-13.1 1.9q2.8-1.1 5.4-2.3c4.1-1.9 7.8-4.4 11.6-6.8 2.1-1.3 4.8-3.3 3.9-6.2-0.8-2.3-4.1-3.5-6.1-4.3-4.2-1.6-8.5-2.9-12.8-4.2-4.8-1.5-9.7-2.9-14.7-4.1 2.7-0.3 5.4-0.6 8-1.2 1.7-0.3 7.3-1.4 5.2-4.4-1.8-2.5-6.6-3.4-9.3-4.1-2.4-0.7-4.7-1.5-7.1-2.2 6.9-0.3 13.9-1.1 20.6-3 3.6-0.9 14.9-4.4 9.7-9.9-3.7-3.9-9.5-6-14.5-7.9q-3.9-1.5-7.8-3.1c1.1-0.1 2.3-0.2 3.5-0.3 4.7-0.5 13.9-1.3 16.3-6.3 1.1-2.3-9-6.6-19.2-10.2 3.9 0.2 7.9 0.1 12-0.6 3.1-0.5 6.9-1 9.9-2.2 1.7-0.7 4.9-2.5 4.6-4.8-0.6-5.6-9-7.8-13.3-9.6q-2.4-1-4.8-2.1c3.8 0.6 7.6 1 11.5 1 4.4-0.1 8.8-0.8 13-2.1 1.5-0.5 3.5-1.1 3.5-3.1-0.1-2.3-2.6-3.9-4.1-5.1-3.6-2.9-7.2-5.9-10.7-8.9q-1.8-1.5-3.6-3.1c3.5 1.8 7.1 3.5 10.7 4.9 3.8 1.4 8.1 2.4 12.1 2 2.1-0.1 6.7-0.3 7.4-3.1 0.8-4.1-0.8-8.6-2.9-12.9 1.4 1.3 3.6 3.1 5.1 2.5 4.1-1.5-1.5-11.1-2.4-13.3q-0.9-2-1.7-4.1c3 5 7 9.7 11.2 13.6 2.2 2 7.3 6.4 8.9 1.2 1.4-4.6-0.5-10.7-1.2-15.2q-0.4-2.8-0.8-5.7 2.2 3 4.7 5.8c2.2 2.4 9.1 9.5 12.2 4.2 2.1-3.7 1.5-8.8 1.4-12.9-0.1-2.9-0.4-5.8-0.7-8.7q2 3.9 3.9 7.7c1.7 3.5 3.5 6.9 5.4 10.2 0.6 1 1.3 2.1 2.3 2.7 1.4 1.4 3.1 2 5 0.5 2.9-2.5 4.1-6.9 5-10.9q0.1 0.3 0.2 0.6c0.7 2.1 2.8 6.8 5.4 4.1 2.1-2.2 2.1-6.8 2.6-9.6 0.7-4.6 1.9-9.3 2.5-14 0.8 5.8 0.8 11.7 2 17.5 0.5 2.3 3.7 11.5 7.4 10 1.8-0.7 2.8-2.5 3.7-4.2q2.4-4.2 4.9-8.4 0.3-0.6 0.7-1.3c-0.1 1.6-0.1 3.2 0.1 4.7 0.4 3 0 9.1 4.6 6 2.4-1.7 4.3-4.7 5.9-7.1 1.6-2.3 3.1-4.5 4.7-6.8-0.8 3.4-1.6 6.9-2.2 10.3-0.5 3.2-1.3 6.5 0.5 9.5 1.4 2.4 5.3 3.2 7.9 3.2 3.6 0.1 6.9-1.7 10-3.3 4-2.2 7.7-4.8 11.4-7.5q4.7-3.4 9.5-6.7c-2.9 4.8-5.8 9.7-8.4 14.8-2.3 4.6-4.1 11.5 2.4 13.4 3.4 0.9 7.4 0.1 11.4-1.1-0.7 0.7-1.1 1.6-0.9 2.6 0.9 3.6 9.8-0.4 11.5-0.9q4.8-1.5 9.6-3.3c-5.1 3.4-10.1 7-14.1 11.6-2.9 3.3-7.2 10.5-0.2 11.9 7.8 1.6 16.9-0.4 24.7-1.7q3.5-0.6 7-1.3-0.1 0.1-0.2 0.1c-5.3 4.2-11.2 9.2-14.4 15.2-4.5 8.5 10 8.7 21.5 7.7q-2.1 1.4-4.1 2.9c-4 2.7-8.1 5.2-11.8 8.4-3.3 2.7-7.8 8-1.7 10.3 6.7 2.7 15.7 0.5 22.4-0.7 3.5-0.6 7-1.4 10.4-2.1-4.7 2.3-9.4 4.7-14.2 6.9z"/><path fill-rule="evenodd" class="b" d="m98.6 249.8l0.7-5.8c0-0.6 0.6-2.1 1.8-5.5 0.8-2.2 1.9-5.3 2-5.8v-0.7c0.2-2.6 0.4-6.2-1.4-7.9q-0.2-0.2-0.4-0.2c-0.4 0-1.2 0.2-2.7 1.8l-1.5 1.6 0.1-2.2c0-1.5-0.1-2.8-0.4-4-0.3-1.1-1.2-4.7-3.5-4.7q-1 0-2.1 0.8c-1.2 0.7-2.2 1.9-3.2 3q-0.7 0.8-1.4 1.5c-0.9 0.9-3.5 5.5-5.6 9.1-1.6 2.8-3 5.2-3.6 6.1l-2.7 3.6 1.2-4.4c0.2-0.7 0.7-2 1.3-3.7 1.4-3.9 4.3-11.7 4.1-14.3-1.6 0.9-6 5.1-8.2 7.3-2.1 2.1-3.2 3.1-3.6 3.3l-1.6 0.9 0.3-1.7c0.2-1.1 1.8-3.8 4.5-8 2.1-3.5 5.4-8.8 5.4-9.8-0.4-2.7-1.7-4-3.9-4-2.1 0-4.8 1.1-7.5 3.1-4.4 3.2-18.1 17.1-21.8 21.1l-4.7 5.1 3.3-6.1c1.3-2.3 3.7-5.7 6.4-9.8 4.9-7.1 11-16 12.3-20.6 0.6-2.4 1.2-5.1 0.3-7.2-0.9-1.9-3.3-2.1-7.1-0.8-6.7 2.2-13.1 7-18.6 11.3l-1.1-1.3c2-2.1 3.9-4.1 5.5-6.1 3.5-4.1 6.2-8.4 7.9-12.9 0.9-2.4 0.8-3.9-0.4-5q-1.7-1.6-5.6-1.6c-2.6 0-5.5 0.6-7.8 1l-1.3 0.3c-2.5 0.4-5.1 0.8-7.6 1.1q-2.7 0.3-5.4 0.7l-7.5 1.2 7-2.8c2.1-0.8 3.8-1.5 5.4-2.3 3.4-1.6 6.6-3.6 9.9-5.7l1.5-1c2.3-1.4 4.3-3.1 3.6-5.2-0.6-1.9-3.5-3-5.4-3.7l-0.2-0.1c-3.4-1.4-7-2.5-10.5-3.6l-2.2-0.7c-5.2-1.6-10-2.9-14.7-4l-5-1.2 5.2-0.5c3.1-0.2 5.6-0.6 7.8-1.1h0.2q4.3-1 4.8-2.1c0-0.1 0.1-0.4-0.3-1-1.3-1.9-4.9-2.8-7.5-3.5q-0.7-0.2-1.4-0.3c-1.8-0.6-3.6-1.1-5.4-1.7l-6.2-1.9 4.8-0.2c7.8-0.4 14.5-1.4 20.4-3 6-1.6 9.7-3.7 10.3-5.8q0.4-1.2-1-2.7c-3.4-3.7-8.8-5.7-13.6-7.5l-0.5-0.2c-2.8-1.1-5.6-2.2-8-3.1l-3.2-1.4 4.6-0.3q1.2-0.1 2.4-0.2h0.2c4.6-0.5 13.2-1.4 15.4-5.9 0-0.8-3.9-3.8-18.7-9l-5.1-1.7 5.4 0.1q1.6 0.1 3.2 0.1c3.4 0 6.1-0.2 8.6-0.7l1.7-0.3c2.6-0.4 5.7-0.9 8.1-1.9 2.1-0.9 4.3-2.4 4.1-3.9-0.5-4.2-6.3-6.4-10.5-8q-1.3-0.5-2.4-1-2-0.8-4-1.7l-6.5-2.9 6.2 1c4.3 0.6 7.9 0.9 11.2 0.9h0.2c4.2 0 8.5-0.7 12.7-2l0.2-0.1c1.7-0.5 2.7-1 2.7-2.2 0-1.6-1.7-2.9-3.1-3.9q-0.3-0.3-0.7-0.6c-3.2-2.6-6.5-5.3-9.7-8l-0.9-0.8q-1.8-1.6-3.6-3.2l-5-4.6 5.9 3.2c3.8 2.1 7.3 3.7 10.6 4.9 4.4 1.6 8.2 2.3 11.8 2h0.4c2-0.2 5.7-0.5 6.1-2.5 0.7-3.2-0.1-7.1-2.8-12.3l-2-3.9 3.3 2.9c0.9 0.8 3.2 2.8 4.3 2.3 0.4-0.1 0.7-0.3 0.8-0.7 0.9-2.2-1.7-7.5-3-10q-0.5-1-0.7-1.5-0.8-2-1.7-4l1.5-0.8c3.4 5.8 7.9 10.4 11 13.3q3.8 3.5 5.7 3.5c0.6 0 1.4-0.2 1.9-1.9 1-3.3 0.2-7.7-0.6-11.5q-0.3-1.7-0.6-3.3l-1.4-9.1 2 2.8c1.6 2.1 3.1 4 4.7 5.7 1.2 1.4 5.5 5.9 8.6 5.9 0.9 0 1.6-0.5 2.2-1.5 1.8-3 1.6-7.2 1.4-10.8q0-0.9-0.1-1.7c-0.1-2.9-0.3-5.8-0.6-8.6l-0.5-4.3 2 3.9q2.1 3.8 4 7.7c1.9 3.9 3.6 7.1 5.3 10.1 0.7 1.2 1.4 1.9 2.1 2.4 1.6 1.5 2.6 1.6 3.9 0.5 2.8-2.3 3.9-6.4 4.8-10.4l0.6-3.2 1.2 3.7c0.7 2.2 2 4.4 3 4.4q0.4 0 0.9-0.6c1.5-1.5 1.9-4.6 2.2-7.1q0.1-1.1 0.3-2 0.5-3 1.1-6.1c0.5-2.6 1-5.3 1.4-7.9l0.8-6 0.8 6c0.4 2.3 0.6 4.8 0.8 7.1 0.2 3.4 0.5 6.9 1.2 10.3 0.6 2.9 3.4 9.5 5.8 9.5q0.2 0 0.5-0.1c1.5-0.6 2.4-2.2 3.3-3.8q2.4-4.2 4.8-8.4l2.5-4.2-0.2 3.4c-0.1 1.7 0 3.2 0.1 4.5q0.1 0.7 0.2 1.5c0.1 1.9 0.3 4.6 1.4 4.6 0.3 0 0.8-0.1 1.7-0.7 2-1.4 3.6-3.8 5.1-5.9l2.1-3.1q1.6-2.3 3.2-4.6l2.6-3.7-1.1 4.3c-0.7 3-1.6 6.6-2.1 10.2l-0.2 1c-0.5 2.8-0.9 5.6 0.5 7.9 1.2 2 4.5 2.8 7.2 2.9h0.3c3.2 0 6.3-1.6 9.2-3.2 4.2-2.2 8-5 11.4-7.5 3.3-2.4 6.7-4.7 9.6-6.7l3.2-2.3-2 3.4c-2.9 4.7-5.9 9.7-8.4 14.8-1 1.8-3 6.4-1.6 9.5 0.5 1.3 1.7 2.2 3.4 2.7 2.7 0.7 6 0.4 10.9-1.1l2.8-0.9-1.9 2.3c-0.6 0.7-0.8 1.2-0.7 1.8 0.1 0.2 0.2 0.8 1.8 0.8 2.3 0 5.7-1.2 7.5-1.9q0.8-0.3 1.2-0.4c2.9-1 6-2 9.5-3.2l6.6-2.4-5.9 3.8c-4.8 3.2-9.9 6.8-13.9 11.4-2.2 2.6-4.3 6.4-3.6 8.6 0.4 1 1.3 1.7 2.9 2 1.9 0.4 4 0.6 6.3 0.6 5.1 0 10.4-1 15.5-1.9l2.6-0.4q3.5-0.6 7-1.3l3.3-0.6-2.7 2.2c-5.6 4.4-11.2 9.2-14.3 14.9-0.8 1.6-1 2.9-0.4 3.8 0.9 1.4 3.7 3.1 12.4 3.1 2.6 0 5.5-0.2 8.7-0.4l3.1-0.3-3.6 2.5q-1.5 1.1-3.1 2.2-1.6 1.1-3.2 2.1c-2.9 2-5.8 4-8.5 6.2-2.3 2-4.7 4.8-4.4 6.7q0.3 1.4 2.5 2.3c2 0.8 4.4 1.1 7.3 1.1 4.1 0 8.5-0.8 12.4-1.5q1.2-0.2 2.3-0.4c2.2-0.4 4.4-0.9 6.5-1.3q1.9-0.5 3.9-0.8l6.3-1.3-9.5 4.6c-3.5 1.7-7 3.5-10.6 5.1q-1.2 0.6-2.5 1.2c-3.8 1.7-7.8 3.4-11 6.1-1.7 1.3-2.6 2.7-2.5 4 0.1 1.4 1.4 2.4 2.4 3 3.1 1.7 7.2 2.1 10.8 2.4l5.6 0.6-4.1 1.2q-2.2 0.6-4.4 1.3c-3.8 1.2-7.7 2.8-11.7 4.7l-0.7 0.3c-2.6 1.3-5.7 2.8-7.3 5.1-1.6 2.3 0.6 5.7 6.8 10.2l1.6 1.2-1.9 0.3q-2.1 0.4-4.2 0.9c-5.4 1.3-8.2 3.8-8.6 7.5-0.7 7 3.1 12.8 6.5 17.1q0.9 1.2 2 2.4l1.3 1.5-3.8-0.2q-2.1-0.1-4.2-0.3c-0.9 0-1.8-0.1-2.7-0.1-2.8 0-4.4 0.7-5.3 2.5-2.1 3.7 0.9 10.4 2.5 14l0.2 0.3c0.8 1.9 1.8 3.7 2.7 5.5l1.2 2.2-2.3-1.1c-0.9-0.4-1.7-0.9-2.5-1.3q-1-0.6-2.1-1.2c-0.8-0.3-1.6-0.6-2.5-0.8-0.9-0.3-1.8-0.6-2.7-1-2.5-1.2-4.5-1.4-5.9-0.6-0.9 0.5-1 1.7-0.9 3.4v0.3c0.1 2.3 0.8 4.9 1.5 7.3 0.4 1.3 0.8 2.6 1.1 3.9q0.4 1.9 0.8 3.8l0.5 2-1.7-1.1c-1.8-1.2-3.7-2.2-5.5-3.2l-1.2-0.7c-3.2-1.8-6.7-3.7-10.6-4.9q-1-0.3-1.9-0.3c-3.2 0-4.6 3-5.2 4.9-1.6 5.3-0.5 11.4 0.8 16.7l0.8 3.3-2.2-2.5c-1.6-1.8-3.3-3.5-4.9-5.2q-2.1-2.2-4.2-4.5c-2.9-3.2-6.7-6.9-10.8-6.9q-1.1 0-2.2 0.4c-4.7 1.7-5.9 6.7-6.6 11.2q-0.3 2-0.5 4l-0.3 2.8-1.3-2.5c-3-5.8-6.3-9-10.2-9.7-3.8-0.8-7.6 3.3-9.1 5.9-0.3 0.7-1 3.5-1.6 5.5-0.4 1.9-0.8 3.5-1.1 4.2l-1 2.3-0.6-2.4c-0.3-1.1-0.4-3.4-0.5-5.8-0.2-2.3-0.3-5-0.6-6-1.2-3.3-2.5-4.5-6.7-5.4-4.5-1.1-11 10-14 17.3zm15.7-24.5q0.5 0 1 0.1c4.7 1.1 6.5 2.7 7.8 6.6 0.4 1.1 0.5 3.7 0.7 6.4q0 0.6 0 1.1c0.8-2.9 1.3-4.8 1.7-5.6 1.9-3.3 5.7-6.9 9.6-6.9q0.6 0 1.2 0.1c3.9 0.8 7.3 3.5 10.2 8.4q0.1-0.8 0.2-1.5c0.9-5.4 2.4-10.7 7.6-12.6q1.4-0.5 2.9-0.5c4.7 0 8.9 4 12 7.5q2.1 2.2 4.2 4.4 1.3 1.4 2.7 2.9c-0.9-4.7-1.4-9.9 0-14.5 1.4-4.8 5-7 9.2-5.7 4 1.3 7.7 3.3 10.9 5.1l1.2 0.6q1.9 1.1 3.8 2.2-0.2-0.9-0.4-1.8c-0.3-1.2-0.7-2.5-1-3.8-0.8-2.6-1.6-5.2-1.6-7.8v-0.3c-0.1-1.6-0.2-3.8 1.7-4.9 1.9-1 4.3-0.9 7.5 0.6 0.7 0.3 1.6 0.6 2.4 0.8 0.9 0.3 1.9 0.6 2.8 1q1.1 0.6 2.2 1.2 0 0 0 0.1-0.8-1.6-1.5-3.2l-0.1-0.3c-1.9-4.1-5-11-2.6-15.5 1.7-3 4.7-3.4 6.8-3.4 1 0 2 0.1 2.9 0.2q2 0.1 4 0.2-0.4-0.5-0.8-0.9c-3.6-4.6-7.6-10.8-6.8-18.3 0.5-4.5 3.8-7.5 9.9-9q1.2-0.3 2.4-0.6c-3.4-2.5-8.6-7.2-5.7-11.4 1.9-2.7 5.1-4.2 8-5.6l0.7-0.3c4-2 8-3.6 11.8-4.8q0.2 0 0.4-0.1c-2.9-0.4-6-0.9-8.5-2.4-2.6-1.4-3.2-3.1-3.3-4.3-0.1-1.8 1-3.8 3.1-5.5 3.4-2.7 7.4-4.5 11.3-6.2q1.3-0.6 2.6-1.2c2.7-1.3 5.5-2.6 8.2-3.9q-1.9 0.4-3.9 0.7-1.1 0.2-2.3 0.4c-3.9 0.8-8.4 1.6-12.7 1.6-3.1 0-5.7-0.4-7.9-1.3q-3.1-1.2-3.5-3.5c-0.5-3.3 3.3-6.9 5-8.3 2.7-2.3 5.7-4.3 8.6-6.2q1.6-1.1 3.2-2.2 0.8-0.6 1.6-1.1-3.1 0.2-5.8 0.2c-7.7 0-12.2-1.3-13.8-3.9q-1.3-2.3 0.4-5.5c2.7-5.1 7.3-9.5 12.2-13.4q-1.9 0.3-3.7 0.6l-2.6 0.5c-5 0.9-10.6 1.8-15.9 1.8-2.4 0-4.5-0.2-6.6-0.6q-3.3-0.6-4.1-3c-1.3-3.9 3-9.2 3.9-10.3 2.7-3.1 5.9-5.8 9.2-8.2q-2 0.7-3.8 1.3-0.4 0.1-1.1 0.4c-2 0.7-5.5 2-8 2-2.4 0-3.2-1.1-3.5-2.1q-0.1-0.7 0-1.4c-4.2 1.1-7.3 1.2-9.9 0.5q-3.3-1-4.5-3.6c-1.6-3.6 0.3-8.4 1.6-11 2-3.9 4.2-7.8 6.4-11.5-2 1.4-4.1 2.9-6.3 4.5-3.4 2.5-7.3 5.3-11.4 7.5-3.1 1.6-6.5 3.4-10.2 3.4h-0.2c-1.6 0-6.8-0.4-8.7-3.6-1.7-2.9-1.2-6.2-0.7-9.1l0.2-1c0.3-2 0.7-4 1.1-5.9q-0.3 0.4-0.6 0.9l-2.2 3.2c-1.5 2.2-3.3 4.7-5.5 6.3q-1.5 1-2.6 1c-2.7 0-2.9-3.6-3.1-6.1q-0.1-0.9-0.2-1.5-0.1-0.8-0.1-1.7-2 3.5-4 7c-1 1.8-2.1 3.7-4.2 4.6q-0.5 0.2-1.1 0.2c-4.2 0-7-9.2-7.4-10.8-0.7-3.5-1-7.1-1.3-10.6q0-0.5 0-1-0.2 1-0.4 2-0.6 3.1-1.2 6.1-0.1 0.8-0.2 1.9c-0.3 2.7-0.7 6.2-2.6 8.1q-1 1-2.1 1c-1.8 0-3.1-1.9-3.9-3.5-0.9 3.4-2.2 6.6-4.7 8.7-1.9 1.6-4 1.4-6-0.5-1.1-0.7-2-2-2.5-2.9-1.7-3-3.4-6.3-5.4-10.2q-0.9-1.9-1.9-3.9 0.2 2.2 0.3 4.5 0 0.8 0 1.6c0.2 3.9 0.4 8.3-1.6 11.8-0.8 1.5-2.1 2.2-3.7 2.2-3.6 0-8.1-4.4-9.8-6.4q-1.4-1.5-2.8-3.2l0.4 2.5q0.3 1.5 0.6 3.2c0.8 4 1.7 8.5 0.5 12.3-0.7 2.5-2.3 3.1-3.4 3.1-2.4 0-5-2.3-6.9-3.9-1.8-1.7-4.1-4.1-6.4-6.8 1.6 3.4 2.9 6.9 2 9.1-0.3 0.8-0.9 1.4-1.7 1.7-1 0.4-2.2 0.1-3.3-0.6 1.3 3.1 2.3 6.8 1.5 10.3-0.7 3.3-5.2 3.6-7.6 3.8l-0.4 0.1c-3.8 0.3-7.9-0.4-12.5-2.1q-2.4-0.9-5-2.1c3.1 2.6 6.2 5.2 9.3 7.7q0.3 0.3 0.7 0.5c1.6 1.2 3.7 2.9 3.7 5.3 0.1 2.6-2.3 3.3-3.8 3.8l-0.2 0.1c-4.4 1.4-8.9 2.1-13.2 2.1h-0.2c-1.8 0-3.7-0.1-5.7-0.3q0.8 0.4 1.7 0.7c4.7 1.8 11 4.2 11.6 9.4 0.3 3-3.5 5-5.1 5.7-2.6 1-5.7 1.5-8.5 2l-1.6 0.3c-2.2 0.3-4.6 0.6-7.3 0.6 9.2 3.4 14.3 6.2 15.1 8.2 0.3 0.6 0.1 1.1 0 1.4-2.6 5.4-11.9 6.3-16.8 6.8h-0.2c1.5 0.6 3 1.2 4.6 1.8l0.5 0.2c5 1.9 10.6 4 14.3 7.9q2 2.2 1.4 4.4c-1 3.4-6.8 5.7-11.5 6.9-4.9 1.4-10.2 2.3-16.3 2.7q1.4 0.5 2.8 0.9 0.6 0.1 1.3 0.3c2.9 0.8 6.7 1.8 8.4 4.1 0.8 1.1 0.7 2 0.5 2.6-0.7 1.7-3.4 2.6-6 3.1l-0.2 0.1q-1.6 0.3-3.4 0.6c3.2 0.8 6.6 1.8 10.2 2.9l2.2 0.7c3.6 1.1 7.2 2.2 10.6 3.6l0.3 0.1c2.2 0.9 5.4 2.2 6.3 4.8 1.3 3.6-2.6 6.1-4.2 7.1l-1.6 1c-3.1 2-6.3 4.1-9.8 5.7 2.3-0.3 4.6-0.6 6.9-1l1.2-0.2c2.3-0.5 5.3-1.1 8.2-1.1 3 0 5.2 0.7 6.7 2.1 2.3 2.1 1.6 4.7 0.8 6.8-1.7 4.6-4.4 9-8 13.2 3.9-2.6 8-5 12.2-6.4 1.7-0.6 3.2-0.9 4.5-0.9 2.9 0 4.1 1.4 4.7 2.7 1.1 2.5 0.5 5.6-0.3 8.3-1.3 4.8-7.2 13.4-12.4 21.1q-1 1.3-1.8 2.6c5.6-5.7 13.1-13 16.2-15.3 1.4-1 5-3.4 8.4-3.4 1.8 0 4.8 0.7 5.6 5.5 0.2 1.2-1.6 4.4-5.7 10.9-0.6 1-1.3 2.2-2 3.3 5.6-5.4 8.3-7.9 9.7-7.9 0.4 0 0.8 0.3 1 0.8 0.7 1.7-0.6 6.3-2.5 11.7 2.5-4.2 4.3-7.3 5.2-8.2q0.6-0.6 1.3-1.4c1.1-1.2 2.2-2.5 3.5-3.3 3.7-2.4 7-0.3 8.2 4.9q0.2 1.2 0.3 2.6c1.7-1.3 3.1-1.4 4.2-0.4 2.2 2.3 2 6.3 1.8 9.2v0.7q0 0.3-0.2 1c2.7-4.4 6.3-8.5 9.8-8.5z"/><path class="c" d="m216.3 128.6c0 46.6-37.8 84.5-84.5 84.5-46.7 0-84.5-37.9-84.5-84.5 0-46.7 37.8-84.5 84.5-84.5 46.7 0 84.5 37.8 84.5 84.5z"/><path fill-rule="evenodd" class="d" d="m216.5 128.6c0 0-0.1 2-0.2 5.9-0.1 1-0.1 2.1-0.2 3.3q-0.3 1.8-0.6 3.9c-0.3 1.4-0.4 2.9-0.7 4.5q-0.6 2.3-1.2 5-0.3 1.3-0.7 2.7-0.5 1.4-1 2.8-0.4 1.5-0.9 3c-0.4 0.9-0.7 2-1.2 3q-1.3 3-2.8 6.3c-1.1 2.1-2.4 4.2-3.6 6.4-5.4 8.7-13.1 17.8-23.6 25.1-10.4 7.2-23.6 12.5-38.2 14.2-1.8 0.2-3.6 0.2-5.5 0.3q-1.4 0-2.8 0.1h-1.4c0.1 0-0.2 0-0.2 0h-0.2-0.4-0.6c-3.7-0.3-7.3-0.4-11.2-1.2-7.7-1.1-15.1-3.7-22.3-6.9q-2.6-1.3-5.3-2.7c-1.7-0.9-3.3-2.1-5-3.1l-2.6-1.6-2.4-1.9c-1.6-1.2-3.2-2.4-4.7-3.7-6.1-5.3-11.5-11.5-16.2-18.3q-1.6-2.6-3.2-5.3c-0.3-0.4-0.6-0.9-0.8-1.3l-0.7-1.4-1.4-2.8-1.4-2.8c-0.4-0.9-0.7-1.9-1.1-2.9-0.7-2-1.5-3.9-2.1-5.9-2.6-7.9-3.8-16.3-4.2-24.7l0.2-6.3c0.1-1.1 0-2.1 0.2-3.1l0.4-3.2 0.4-3.2 0.2-1.6 0.4-1.5 1.5-6.2c2.4-8 5.9-15.8 10.4-22.9 4.6-6.9 10.1-13.3 16.4-18.6 1.5-1.4 3.2-2.5 4.9-3.8 0.8-0.6 1.6-1.2 2.4-1.8l2.6-1.6c1.7-1.1 3.4-2.2 5.2-3.2q2.7-1.3 5.4-2.6c7.4-3.2 15-5.6 22.6-6.6 3.8-0.7 7.7-0.7 11.4-0.9l0.7-0.1h0.4 0.2c0 0 0.3 0 0.3 0l1.3 0.1q1.4 0.1 2.7 0.1 1.4 0.1 2.7 0.2c0.9 0 1.8 0.1 2.7 0.2 14.9 1.9 27.9 7.2 38.4 14.6 10.5 7.3 18.1 16.4 23.5 25.1 1.3 2.2 2.5 4.3 3.7 6.4q1.4 3.3 2.8 6.3c0.5 1 0.8 2.1 1.1 3.1q0.5 1.5 1 2.9 0.5 1.4 1 2.8 0.3 1.4 0.6 2.7 0.7 2.7 1.2 5c0.3 1.6 0.5 3.2 0.7 4.6q0.3 2.1 0.6 3.8c0.1 1.2 0.1 2.3 0.2 3.3 0.2 3.9 0.2 6 0.2 6zm-0.5-0.1q0 0 0 0 0 0.1 0 0.1zm-0.3-6c-0.1-0.9-0.1-2-0.2-3.2q-0.3-1.8-0.6-3.8c-0.3-1.4-0.5-2.9-0.8-4.5q-0.7-2.3-1.4-4.9c-2-6.9-5.4-15.1-11.2-23.3-5.7-8.1-13.7-16.3-23.9-22.8-5.2-3.1-10.8-6.2-17-8.3q-2.3-0.8-4.6-1.6-2.4-0.6-4.9-1.2-1.2-0.3-2.4-0.6c-0.8-0.2-1.7-0.3-2.5-0.4q-2.5-0.4-5-0.7c-0.8-0.2-1.7-0.2-2.6-0.2q-1.4-0.1-2.7-0.2-1.4 0-2.7-0.1h-1.4-1.2c-3.5 0.3-7.1 0.2-10.7 0.9-7.2 0.9-14.3 3.2-21.3 6q-2.5 1.2-5.1 2.5c-1.7 0.8-3.3 1.9-4.9 2.8l-2.5 1.5c-0.8 0.5-1.6 1.1-2.4 1.7-1.5 1.2-3.1 2.2-4.6 3.5-6 5-11.2 10.9-15.8 17.4-4.5 6.6-8 13.9-10.5 21.5l-1.7 5.9-0.4 1.4-0.2 1.5-0.6 3-0.5 3c-0.2 0.9-0.2 2-0.3 3l-0.4 6.2c0 8.1 0.9 16.3 3.1 24.2 2.5 7.8 5.8 15.3 10.3 22.1 1.1 1.6 2.3 3.2 3.5 4.8 0.7 0.8 1.2 1.7 1.9 2.4l2 2.2 2.1 2.3 1 1.1q0.5 0.5 1.1 1 2.2 1.9 4.4 3.9c1.6 1.3 3.2 2.4 4.8 3.5 0.8 0.6 1.6 1.2 2.4 1.8l2.5 1.4c1.7 1 3.3 2 5.1 2.9q2.6 1.2 5.2 2.3c7.1 2.8 14.4 5 21.6 5.7 3.5 0.7 7.3 0.6 11 0.7l0.7 0.1h0.3 0.2c0.1 0-0.1 0 0 0l1.4-0.1q1.3-0.1 2.6-0.2c1.8-0.1 3.5-0.1 5.2-0.4 13.8-1.7 26.3-6.7 36.5-13.1 10.3-6.6 18.2-14.8 24-23 5.7-8.1 9.1-16.3 11.1-23.2q0.8-2.6 1.4-5c0.4-1.5 0.5-3 0.8-4.4q0.3-2.1 0.6-3.9c0.2-1.1 0.1-2.2 0.2-3.2 0.2-3.7 0.3-5.8 0.3-5.9 0-0.2-0.1-2.2-0.3-6z"/><path class="e" d="m216.3 126.9c0 46.7-37.8 84.5-84.5 84.5-46.7 0-84.5-37.8-84.5-84.5 0-46.7 37.8-84.5 84.5-84.5 46.7 0 84.5 37.8 84.5 84.5z"/><path class="f" d="m172.8 62.4c-9-8.1-11.7-12.4-30.2-15.6-21-3.6-44.7 3-61.7 16.2-11.8 9.2-21 21.5-26.4 35.5-2.5 6.7-4.3 14.3-4.8 21.4-1 14 2.2 28.2 6.8 41.3 3.2 9 8.7 16.6 17 21.3 2.2 1.2 4.7-2.1 4.1-4.1-3.4-10.8 1.8-21 5.6-31.1 2.3-6.1 5.2-12.4 3.3-19-2-7.1-11.6-6.4-15.6-11.3-3.8-4.6 2.2-12.5 4.9-15.9 5.5-6.8 11.2-8.4 19.3-5.8 14.7 4.6 17.3-17.9 29.7-18.1 3.9-0.1 7.1 3.8 10.3 5.5 3 1.7 5.4 2.1 8.7 1.8 2.9-0.3 5.8-2.8 7.9-4.6 4.2-3.5 8.4-6.3 13.2-8.8 3.4-1.8 12.4-4.7 7.9-8.7z"/><path class="g" d="m81.2 62.8c0 0-52.9 44.4-19.7 103.6 0 0-25.6-57.2 19.7-103.6z"/><path class="h" d="m205.1 89.8c0 0 18.9 59.8-16 97.6 0 0 42.4-31.8 16-97.6z"/></svg>
