<svg xmlns="http://www.w3.org/2000/svg" version="1.2" viewBox="0 0 202 203" width="202" height="203"><defs><linearGradient id="P" gradientUnits="userSpaceOnUse"/><radialGradient id="g1" cx="0" cy="0" r="1" href="#P" gradientTransform="matrix(161.956,0,0,161.956,41.582,57.636)"><stop stop-color="#fff"/><stop offset=".98" stop-color="#1f1d1e"/></radialGradient><radialGradient id="g2" cx="0" cy="0" r="1" href="#P" gradientTransform="matrix(144.171,0,0,144.171,127.855,137.518)"><stop offset=".34" stop-color="#2b2b2b"/><stop offset=".99" stop-color="#c5e8fb"/></radialGradient></defs><style>.a{fill:#5a5a5a}.b{fill:#2b2c2c}.c{mix-blend-mode:overlay;fill:#96d7f8}.d{mix-blend-mode:overlay;fill:#fff}.e{mix-blend-mode:multiply;fill:url(#g1)}.f{mix-blend-mode:screen;fill:#77ccf5}.g{mix-blend-mode:multiply;fill:#94703e}.h{mix-blend-mode:screen;fill:url(#g2)}</style><path class="a" d="m201.2 101.7c0 55.4-44.8 100.2-100.1 100.2-55.4 0-100.2-44.8-100.2-100.2 0-55.3 44.8-100.1 100.2-100.1 55.3 0 100.1 44.8 100.1 100.1z"/><path fill-rule="evenodd" class="b" d="m101.1 202.7c-55.7 0-101-45.3-101-101 0-55.6 45.3-100.9 101-100.9 55.6 0 100.9 45.3 100.9 100.9 0 55.7-45.3 101-100.9 101zm0-200.3c-54.8 0-99.4 44.6-99.4 99.3 0 54.8 44.6 99.4 99.4 99.4 54.7 0 99.3-44.6 99.3-99.4 0-54.7-44.6-99.3-99.3-99.3z"/><g style="opacity:.6;mix-blend-mode:multiply"><path class="c" d="m165.3 109.9c-5.6 2.8-11.4 5.2-17.1 7.6-2.4 1-5 1.6-7.5 2.4 1.5-2.1 2.8-4.1 3.7-5.4 5.4-7.6 14.1-13.6 17.6-22.5 0.8-2-1.8-2.8-2.7-1-3.5 7.4-11.8 13.4-17.8 18.7-1.4 1.2-2.6 2.6-3.8 4-0.1-8.4-1.8-16.7-6.2-22.7-0.6-0.8-1.7 0.3-1.3 1.1 2.7 5.6 1.6 12.7 1.4 18.7q-0.1 3-0.5 5.9c-1.1-1.8-1.8-4.2-2.9-5.9-3.4-5.2-8.5-9.1-12.1-14.2-1.1-1.5-3.3 0.5-2.5 2 3.1 5.7 6.5 11.6 8.7 17.8 0.3 1 0.6 2.2 1 3.4-1.4-0.6-2.7-1.2-3.9-1.8-2.2-1.1-4.3-2.3-6.5-3.4-2.6-1.4-5.3-1.7-7.8-3.6-1.1-0.8-2.4 1-1.5 1.9 3.4 3.3 7.8 5.4 11.5 8.4q0.6 0.4 1.2 0.9c-7.8-0.6-15.5-1.4-22.6-4.4-0.9-0.4-1.7 1.1-0.8 1.6 8.9 4.7 18.5 7.2 28.3 9.2-2.3 0.6-4.6 1.1-7 1.6-10.3 2.1-20 6.8-30.3 8.6-0.8 0.2-0.9 1.6 0 1.5 11.3-1.3 21.8-5.1 33.2-6.3 0.9-0.1 1.9-0.1 2.9-0.1-11.2 6.6-20 16.3-29.7 26-0.9 0.9 0.3 2.4 1.4 1.5 7.4-6.3 13.5-13.4 22.1-18.3 3.9-2.2 8.5-3.3 12.8-4.9-2.8 10.3-6.2 20.4-10.7 30.2-0.6 1.2 0.7 2.3 1.8 1.4 9.1-7.1 13.6-17.7 16.4-28.7 3.1 7 5.4 14.2 7.6 21.7 0.5 1.7 2.7 0.2 2.5-1.2-1.2-8.1-1.8-16.1-3.8-24.1-0.1-0.5-0.3-1-0.4-1.5 0.9 0.6 1.8 1.1 2.6 1.5 3.6 1.8 6.7 5.3 10.9 5.2 1.8-0.1 3.8-3.3 1.4-4-3.4-0.9-5.8-4.8-8.7-6.7-1.7-1.1-3-2.7-4.2-4.3 1.5-0.8 3-1.7 4.3-2.6 6.7-4.4 13.2-9 19.8-13.5 0.9-0.6 0.4-2.2-0.8-1.7z"/><path class="c" d="m175 54.4c-2.3 0.4-4.7-0.7-7-1.2q-0.7-0.2-1.6-0.3c1.6-2 2.9-4.1 4.3-6.2 1.2-1.6-0.3-3.6-2.1-2.3-1.6 1.1-3.2 2.1-4.8 3.3-0.7 0.5-1.3 1-2 1.5 0.3-0.2-1.6 1.1-0.7 0.6q-0.2 0.1-0.4 0.2c-1-4.6-1.8-9.1-2.1-13.9-0.1-1.8-2.5-1-2.6 0.5-0.2 4.8 0.2 9.4-0.2 14-2-4.7-4.7-11.2-8.7-14.1-1.1-0.9-2.7 1-1.6 2 2.5 2.1 4.9 7.6 6.6 12.1q-1.1-0.5-2-1c-3-1.7-6.1-2.8-9.3-3.9-1.3-0.4-2.4 1.6-1.1 2.3 3 1.5 6.1 3 8.4 5.6q0.2 0.3 0.5 0.6c-6.5 0.1-13-0.2-19.1 2.3-0.7 0.3-1 1.8 0 1.8 6-0.4 12-0.3 17.8 1.4q0 0 0.1 0c-3.1 0.8-6.2 1.8-9.4 2.1-1 0.2-1.4 2-0.2 2.1 3.2 0.1 6.4-0.3 9.6-0.7-1.8 2.2-3.7 5.2-6.1 5.8-0.9 0.3-1.5 1.9-0.2 2 3.1 0.2 5.7-2.2 8-4 1.8-1.3 4.3-2.5 6.4-4q0.8-0.1 1.5-0.3 0.8 1.6 1.4 3.1c1 2.7 0.8 5.5 1.9 8.2 0.8 1.8 3.3 0.3 2.8-1.3-1-3.7-1-7.4-2.2-10.9q-0.1-0.2-0.1-0.4 0.7 0.5 1.3 1c1 0.8 2.2 1.3 3.2 2.2 1.1 0.9 2.2 1.7 3.6 2.2 1.1 0.5 2.5-1.4 1.4-2.3-0.9-0.7-1.6-1.6-2.4-2.5-0.8-1-1.9-1.7-2.8-2.6q-0.3-0.4-0.6-0.8c0.8-0.1 1.6-0.2 2.4-0.3 2.9-0.1 5.9 0 8.4-1.5 1-0.6 1.3-2.7-0.3-2.4z"/><path class="d" d="m181.8 123.8c-0.4-0.9-1.2-1.7-2.2-1.7-3.7-0.1-5.4 3.9-5.6 7.1-0.1 1.1 0.9 2.5 2.1 2.6q0.2 0 0.4 0.1c3.9 0.3 6.4-4.8 5.3-8.1z"/><path class="d" d="m186.2 85.7c-1.5-1.7-4.1-2.4-6.3-1.3-1.5 0.8-2.7 2.1-3.6 3.6-2.2 3.1-5 8.5-2.5 12 1.8 2.5 5 2.1 7.5 1.2 4.1-1.5 6.1-6.2 6.4-10.1 0.2-2-0.1-3.9-1.5-5.4z"/><path class="d" d="m165.2 148.7c-1.3-0.5-2.5 0.2-3.2 1.2-0.8 0.5-1.5 1.3-1.7 2.2-0.3 1.2 0.4 2.9 1.9 2.8 1.8-0.1 3.4-1 4.1-2.7 0.5-1.3 0.4-2.9-1.1-3.5z"/><path class="d" d="m140.9 176.7c-1-3-4.1-3.8-6.7-2.8-3.7 1.4-6 6.2-6.4 9.9-0.2 2.4 1.7 4.3 4 4.3 2.3 0.2 4.6-1.3 6.2-2.9 2.1-2.1 3.8-5.5 2.9-8.5z"/><path class="d" d="m49.4 52.7c-0.3-2.6-2-4.2-4.7-4-2.5 0.2-5.5 3.2-5.7 5.7-0.3 1.2-0.3 2.4-0.1 3.6 0.3 1.5 1.5 2.5 3 2.8 1.8 0.3 3.8-1.1 5-2.3 1.5-1.5 2.7-3.6 2.5-5.8z"/><path class="c" d="m54.8 90.8c-3.7 2.4-8 3.5-12.2 4.6-0.9 0.3-2.6 1.2-4.1 1.9 1.3-1.6 2.5-3.4 3.5-4.7 2.3-3 4.7-5.9 5.8-9.5 0.4-1.5-1.7-1.6-2.2-0.5-1.4 3.1-3.8 5.5-6.2 7.9-1.3 1.2-3 2.6-4.4 4.1q-0.1-1.5-0.3-2.9c-0.5-3.8-0.4-7.7-1.2-11.4-0.2-0.8-1.4-0.2-1.3 0.5 0.2 4.2-0.3 8.6-0.8 12.9-1.3-2.5-2.6-4.9-5.3-6.3-0.7-0.4-1.5 0.9-0.9 1.4 2.2 1.7 3.2 4.2 4.2 6.8q-0.7-0.4-1.3-0.7c-3.8-1.8-8.6-3.9-12.8-4.1-1-0.1-1.5 1.6-0.4 1.7 4 0.6 8.4 3.1 12 4.8q1.4 0.7 2.7 1.5c-1.7 0.4-3.3 0.7-5 1.1-3 0.8-5.8 2.2-8.5 3.6-0.9 0.5-0.7 1.9 0.4 1.5 3.3-1.2 6.6-2.6 10.1-3q0.3-0.1 0.6-0.1c-3.6 2.6-7.1 5.7-9.6 9.3-0.5 0.9 0.2 2 1.1 1.3 3.1-2.5 6.1-5 9-7.6-2.6 4.1-5.7 10.4-4.7 15.1 0.1 0.9 1.3 0.5 1.6-0.1 2.1-4.6 4-9.1 6.8-13.4q0.4-0.6 0.7-1c0.3 1.2 0.6 2.4 0.7 3.6 0.1 2.4 0.6 4.8 0.8 7.3 0.2 2.4 1.2 6.3 0.9 8.7-0.3 1.8 1.8 1.5 2.3 0.1 1.4-3.9 0.9-9.2 1-13.4q0-2.5-0.1-5 0.4 0.5 0.7 1c1.9 3 3 8.4 6.1 10.3 1.2 0.7 3.2-0.9 2.2-2.2-2-2.5-2.5-6.9-3.9-9.9q-0.4-0.9-0.9-1.8c2.6 0.7 4.7 2 7 3.6 1.3 0.9 3-1.2 1.8-2.3-1.9-2-3.7-4-6.4-5-0.7-0.2-1.4-0.4-2.1-0.6 4.7-2.4 9.5-3.9 13.7-7.4 1-0.9 0.2-2.5-1.1-1.7z"/><path class="d" d="m38.7 149.3c-0.4 0.5-0.9 0.9-1.3 1.4-0.3 0.4-0.5 0.8-0.6 1.2-0.9 1.4-1.3 3-1.5 4.9-0.1 1.6 1.7 2.2 2.9 1.7 3.1-1.4 4.3-4.4 4.5-7.6 0.1-2.1-2.6-2.8-4-1.6z"/><path class="d" d="m65.9 136.1c-0.3-3.7-3.7-6.8-7.5-5.3-2.9 1.2-5.5 5.1-6.4 9.1-0.4 1.2-0.5 2.4-0.3 3.7 0.2 2.5 1.4 4.7 3.9 5.8 5.5 2.2 9.6-3.7 10.8-8.3 0.4-1.6 0.2-3.4-0.5-5z"/><path class="d" d="m119.7 25.8c-1-0.1-1.9 0.1-2.8 0.4-0.2 0-0.5 0-0.7 0-2.1 0.6-3.6 2.2-4.5 4.1q-0.4 0.5-0.8 1c-1.6 2.6-1.5 5.9 0.7 8.1 1.1 1.1 2.9 1.2 4.3 1.1q0.8-0.1 1.5-0.4 1-0.3 1.9-0.9c2.8-1.8 4.1-4.5 4.4-7.7 0.3-2.8-1.2-5.2-4-5.7z"/><path class="d" d="m80.1 29.1q-0.2-0.2-0.5-0.2 0.1 0 0.2 0.1c-1.2-0.6-2.5-0.1-3.5 0.9q0 0 0 0.1c-0.8 0.9-1 2.5-0.3 3.5 0.1 0.1 0.1 0.2 0.2 0.3 0.8 1.5 2.7 0.7 3.6-0.3 1.6-1 2.2-3.5 0.3-4.4z"/><path class="d" d="m51.8 37.1c-0.3 0-0.4 0 0 0q-0.3-0.1-0.6-0.1c-0.6 0-1.3 0.3-1.8 0.6-0.7 0.5-1.3 1.1-1.5 1.9-0.2 0.9 0.1 2 1.1 2.3 0.5 0.2 1.2 0.3 1.8 0.4 1.3 0.3 2.7-1.2 3-2.4 0.3-1.4-0.6-2.6-2-2.7z"/></g><g style="opacity:.6"><path class="d" d="m43.5 140.8c-10.8-17.8-20.5-39.7-21.6-61q-0.2 0.3-0.2 0.8c0 35.1 20.8 75 50.5 94.8-11.3-9.9-21-21.8-28.7-34.6z"/><path class="d" d="m38.6 156.1c-11.7-19.1-21.8-42-22.5-64.9q-0.3-2.5-0.4-5c-0.1-5.9 0.8-11.8 1.7-17.6q-0.3 0.2-0.4 0.5c-10.4 31.1 3.7 62.1 20.8 87.6 0.3 0.5 1.1-0.2 0.8-0.6z"/><path class="d" d="m93.5 84.1c-5-2.6-9.9-5.2-14.8-7.7-10.7-5.6-22.7-11.1-35.1-13.5-0.5 0-1-0.1-1.5-0.1-2.8 0-5.6 0.4-8.4 0.7 15.2 1.7 30.4 9.1 43.5 16q18.1 9.6 35.6 20.2c-0.6-0.7-1.2-1.4-1.8-2-5.7-4.8-11.5-9.2-17.5-13.6z"/><path class="d" d="m63.1 58.5c-10.2-1.4-19.3-4-29.8-3.9-0.3 0-0.4 0.5-0.1 0.5 10.2 0.1 19.7 2.8 29.8 3.8 0.2 0 0.3-0.3 0.1-0.4z"/><path class="d" d="m126.7 35.2c-16.9-4.6-33.9-6.4-51.2-3.7-6 0.9-12.4 2.3-18.6 4.2-0.2 0.2-0.3 0.3-0.5 0.3-6.3 2.3-12.2 5.7-17.6 9.6-2 1.4-6.2 3.2-8 5.5 0.2 0 0.4 0 0.5-0.1 28.6-19.1 63.2-22.5 96.3-14.9q0.2 0 0.3-0.1-0.6-0.4-1.2-0.8z"/><path class="d" d="m106.9 19c-0.1-0.1-0.2-0.1-0.2-0.1-11.6 0.1-23.6 1.4-34.8 4.7q-5.1 2.3-10.1 4.9c-2.4 1.4-4.8 2.7-7.1 4.2 19.1-9 38.4-12.8 59.3-12.7-2.4-0.3-4.8-0.6-7.1-1z"/><path class="d" d="m81.4 9.1c-16 4.2-34.5 10.9-46.8 22.9-2.9 3.7-5.4 7.7-7.2 11.8 7.2-9 13.9-15.9 24.1-21.7 9.4-5.3 19.6-9 29.9-11.8 0.7-0.1 0.8-1.4 0-1.2z"/></g><g style="opacity:.6;mix-blend-mode:screen"><path class="d" d="m166.5 108.6c-5.6 2.7-11.4 5.1-17.1 7.5-2.4 1-5 1.7-7.5 2.4 1.5-2 2.8-4.1 3.7-5.3 5.4-7.6 14.1-13.7 17.6-22.5 0.8-2.1-1.8-2.9-2.7-1-3.5 7.3-11.8 13.3-17.8 18.6-1.4 1.2-2.6 2.7-3.8 4-0.2-8.3-1.8-16.7-6.2-22.6-0.6-0.9-1.7 0.2-1.3 1 2.7 5.6 1.6 12.8 1.4 18.8q-0.1 2.9-0.5 5.8c-1.1-1.8-1.8-4.2-2.9-5.9-3.5-5.2-8.5-9-12.2-14.1-1-1.5-3.2 0.5-2.4 1.9 3.1 5.8 6.5 11.6 8.7 17.8 0.3 1 0.6 2.2 1 3.4-1.4-0.6-2.7-1.1-4-1.8-2.1-1.1-4.2-2.3-6.4-3.4-2.7-1.3-5.3-1.6-7.8-3.5-1.1-0.8-2.4 0.9-1.5 1.8 3.4 3.3 7.8 5.5 11.5 8.4q0.6 0.5 1.2 1c-7.8-0.7-15.5-1.4-22.6-4.5-0.9-0.4-1.7 1.1-0.8 1.6 8.8 4.7 18.5 7.2 28.3 9.2-2.3 0.6-4.6 1.2-6.9 1.7-10.4 2.1-20.1 6.7-30.4 8.6-0.8 0.1-1 1.5 0 1.4 11.3-1.3 21.8-5.1 33.2-6.3 0.9-0.1 1.9-0.1 2.9-0.1-11.3 6.7-20 16.4-29.7 26-0.9 0.9 0.3 2.4 1.3 1.5 7.5-6.3 13.7-13.3 22.2-18.2 3.9-2.2 8.5-3.4 12.8-5-2.8 10.4-6.3 20.5-10.7 30.2-0.6 1.3 0.7 2.4 1.8 1.5 9.1-7.2 13.5-17.8 16.3-28.7 3.2 7 5.5 14.1 7.7 21.6 0.5 1.8 2.7 0.2 2.5-1.2-1.2-8-1.8-16.1-3.8-24q-0.2-0.8-0.4-1.6c0.9 0.6 1.8 1.2 2.6 1.6 3.6 1.7 6.7 5.2 10.9 5.1 1.8 0 3.9-3.3 1.4-4-3.4-0.9-5.8-4.7-8.7-6.7-1.7-1.1-3-2.7-4.2-4.3 1.5-0.8 3-1.7 4.3-2.6 6.7-4.4 13.2-9 19.8-13.4 0.9-0.7 0.3-2.3-0.8-1.7z"/><path class="d" d="m176.1 53c-2.2 0.5-4.6-0.7-6.9-1.2q-0.7-0.2-1.6-0.3c1.6-2 2.9-4.1 4.3-6.1 1.2-1.7-0.3-3.7-2.1-2.4-1.6 1.1-3.2 2.2-4.8 3.3-0.7 0.5-1.3 1-2 1.6 0.3-0.2-1.6 1.1-0.7 0.5-0.1 0.1-0.3 0.2-0.4 0.3-1-4.6-1.8-9.2-2.1-14-0.1-1.8-2.5-0.9-2.6 0.6-0.1 4.7 0.2 9.3-0.1 14-2.2-4.7-4.8-11.3-8.8-14.2-1.2-0.8-2.7 1.1-1.6 2 2.5 2.2 4.9 7.6 6.6 12.2q-1.1-0.6-2-1.1c-3-1.7-6.1-2.7-9.3-3.9-1.3-0.4-2.4 1.6-1.1 2.3 3 1.5 6.1 3 8.4 5.7q0.2 0.2 0.4 0.5c-6.4 0.1-12.9-0.2-19 2.3-0.7 0.3-1.1 1.9 0 1.8 6-0.4 12-0.3 17.8 1.4 0 0 0.1 0 0.1 0-3.1 0.9-6.2 1.8-9.4 2.2-1 0.1-1.5 1.9-0.2 2 3.2 0.2 6.3-0.3 9.6-0.6-1.8 2.2-3.7 5.1-6.1 5.8-0.9 0.2-1.5 1.9-0.2 1.9 3.1 0.3 5.7-2.2 8-3.9 1.8-1.4 4.3-2.6 6.4-4.1q0.7-0.1 1.5-0.2c0.5 1 1 2 1.4 3.1 1 2.6 0.8 5.5 1.9 8.1 0.8 1.8 3.3 0.4 2.8-1.3-1-3.7-1-7.3-2.2-10.9q-0.1-0.2-0.1-0.3 0.7 0.5 1.2 0.9c1.1 0.8 2.3 1.4 3.3 2.2 1.1 0.9 2.2 1.7 3.6 2.3 1.1 0.4 2.5-1.5 1.4-2.3-0.9-0.7-1.6-1.6-2.4-2.5-0.8-1-1.9-1.7-2.8-2.7q-0.3-0.4-0.6-0.7c0.8-0.2 1.6-0.3 2.4-0.4 2.9-0.1 5.9 0 8.4-1.4 1-0.6 1.3-2.8-0.4-2.5z"/><path class="d" d="m183 122.5c-0.4-1-1.2-1.8-2.2-1.8-3.7-0.1-5.4 3.9-5.6 7.1-0.1 1.2 0.9 2.5 2.1 2.6q0.2 0.1 0.4 0.1c3.9 0.3 6.4-4.7 5.3-8z"/><path class="d" d="m187.4 84.3c-1.6-1.7-4.2-2.3-6.3-1.3-1.5 0.8-2.7 2.1-3.6 3.6-2.2 3.2-5 8.5-2.5 12 1.8 2.5 5 2.2 7.5 1.2 4-1.4 6.1-6.1 6.5-10.1 0.1-2-0.2-3.9-1.6-5.4z"/><path class="d" d="m166.4 147.3c-1.3-0.4-2.5 0.2-3.3 1.2-0.8 0.5-1.4 1.3-1.6 2.2-0.3 1.2 0.4 2.9 1.9 2.9 1.8-0.2 3.3-1.1 4.1-2.7 0.5-1.3 0.4-3-1.1-3.6z"/><path class="d" d="m142 175.3c-0.9-2.9-4-3.8-6.6-2.8-3.8 1.5-6 6.2-6.4 9.9-0.2 2.5 1.7 4.3 4 4.3 2.3 0.2 4.6-1.3 6.2-2.9 2.1-2.1 3.8-5.5 2.8-8.5z"/><path class="d" d="m50.6 51.3c-0.3-2.6-2-4.2-4.7-4-2.5 0.2-5.5 3.2-5.7 5.8-0.3 1.1-0.4 2.4-0.1 3.5 0.3 1.6 1.5 2.6 3 2.8 1.8 0.3 3.7-1.1 5-2.3 1.5-1.5 2.7-3.6 2.5-5.8z"/><path class="d" d="m56 89.4c-3.7 2.5-8 3.5-12.2 4.7-0.9 0.2-2.6 1.2-4.1 1.8 1.3-1.6 2.5-3.4 3.5-4.7 2.3-2.9 4.6-5.9 5.8-9.5 0.4-1.5-1.7-1.6-2.2-0.5-1.4 3.1-3.8 5.5-6.2 7.9-1.3 1.3-3 2.6-4.4 4.1q-0.2-1.5-0.3-2.9c-0.5-3.8-0.4-7.7-1.2-11.4-0.1-0.8-1.4-0.2-1.4 0.5 0.3 4.3-0.3 8.6-0.7 12.9-1.3-2.5-2.6-4.8-5.3-6.3-0.7-0.4-1.5 0.9-0.8 1.4 2.1 1.7 3.1 4.3 4.1 6.8q-0.6-0.4-1.4-0.7c-3.7-1.7-8.5-3.8-12.7-4.1-1-0.1-1.5 1.6-0.4 1.8 4 0.6 8.4 3 12 4.7 0.9 0.4 1.8 1 2.7 1.5-1.7 0.4-3.4 0.7-5 1.2-3 0.7-5.8 2.2-8.5 3.5-0.9 0.5-0.7 1.9 0.4 1.5 3.3-1.2 6.5-2.5 10-3q0.4-0.1 0.7-0.1c-3.6 2.6-7.1 5.7-9.6 9.3-0.5 0.9 0.2 2.1 1.1 1.3 3-2.4 6.1-5 9-7.6-2.6 4.2-5.7 10.4-4.7 15.2 0.1 0.8 1.3 0.4 1.6-0.2 2.1-4.6 4-9.1 6.8-13.4q0.3-0.5 0.7-1c0.3 1.2 0.6 2.4 0.6 3.6 0.2 2.4 0.7 4.9 0.9 7.3 0.2 2.5 1.2 6.3 0.8 8.7-0.3 1.8 1.9 1.5 2.4 0.1 1.4-3.9 0.8-9.2 0.9-13.4 0.1-1.6 0.1-3.3 0-5 0.3 0.4 0.5 0.7 0.7 1.1 1.9 2.9 3 8.3 6.1 10.2 1.2 0.8 3.1-0.9 2.2-2.2-2.1-2.5-2.5-6.9-3.9-9.9q-0.4-0.9-0.9-1.8c2.6 0.7 4.6 2.1 7 3.6 1.3 0.9 3-1.2 1.8-2.3-1.9-2-3.7-4-6.4-4.9-0.7-0.3-1.4-0.5-2.1-0.7 4.7-2.4 9.5-3.9 13.7-7.4 1-0.9 0.2-2.5-1.1-1.7z"/><path class="d" d="m39.9 148c-0.4 0.4-1 0.8-1.3 1.3-0.3 0.4-0.5 0.8-0.6 1.2-1 1.4-1.3 3.1-1.5 5-0.1 1.5 1.6 2.2 2.9 1.6 3.1-1.3 4.3-4.4 4.5-7.6 0.1-2.1-2.6-2.8-4-1.5z"/><path class="d" d="m67.1 134.8c-0.3-3.7-3.7-6.9-7.5-5.4-2.9 1.2-5.5 5.1-6.4 9.1-0.4 1.2-0.5 2.5-0.3 3.7 0.2 2.6 1.4 4.8 3.9 5.8 5.5 2.3 9.6-3.7 10.8-8.2 0.4-1.6 0.2-3.5-0.5-5z"/><path class="d" d="m120.9 24.5c-1-0.2-1.9 0-2.8 0.4-0.3-0.1-0.5-0.1-0.7 0-2.1 0.5-3.6 2.1-4.5 4-0.3 0.4-0.6 0.7-0.8 1.1-1.6 2.6-1.6 5.8 0.7 8 1 1.1 2.9 1.3 4.3 1.1q0.8 0 1.5-0.4 1-0.3 1.9-0.8c2.8-1.8 4.1-4.6 4.4-7.8 0.3-2.8-1.2-5.2-4-5.6z"/><path class="d" d="m81.3 27.7c-0.2-0.1-0.3-0.2-0.5-0.2q0.1 0.1 0.2 0.2c-1.1-0.7-2.4-0.2-3.5 0.9q0 0 0 0c-0.9 0.9-1.1 2.6-0.3 3.6q0.1 0.1 0.1 0.2c0.9 1.5 2.8 0.8 3.7-0.3 1.6-0.9 2.2-3.5 0.3-4.4z"/><path class="d" d="m53 35.8q-0.5-0.1 0 0-0.3-0.1-0.6-0.2c-0.6 0-1.3 0.4-1.8 0.7-0.7 0.4-1.3 1-1.5 1.9-0.2 0.8 0.1 2 1 2.2 0.6 0.2 1.2 0.3 1.9 0.5 1.3 0.2 2.7-1.2 2.9-2.4 0.4-1.5-0.5-2.7-1.9-2.7z"/></g><path class="e" d="m201.2 101.9c0 55.3-44.8 100.2-100.1 100.2-55.4 0-100.2-44.9-100.2-100.2 0-55.3 44.8-100.1 100.2-100.1 55.3 0 100.1 44.8 100.1 100.1z"/><path class="f" d="m38.7 25.1c0 0-62.7 52.7-23.4 122.9 0 0-30.2-67.9 23.4-122.9z"/><path class="g" d="m187.9 56.6c0 0 22.5 70.8-18.9 115.7 0 0 50.2-37.8 18.9-115.7z"/><path class="h" d="m29.4 149.5c6.9-3.6 11.3-9.1 10.4-17.3-1.2-11.2-8.5-21-7.7-32.5 0.6-7.2 5.2-13 11.6-15.9 7-3.1 15.2-2.8 22.8-3.9 6.3-0.9 12.7-2.5 15.9-8.7 1.9-3.5 3.2-7.2 5.8-10.4 6-7.4 17.2-7.6 24.9-2.9 4.1 2.5 8.5 9 13.5 9.7 9.1 1.3 9.3-7.1 11.6-13.1 0.2-0.5 0.8-1.1 1.4-0.8 5.3 2.5 8.5 9.3 14 11.1 7.5 2.4 8.7-13.1 7.7-17.3-1.2-4.9-3.3-9.5-5-14.3-1.5-4.5-4.2-10.5-1.6-15-15.4-10.1-33.8-16-53.6-16-54.1 0-97.9 43.8-97.9 97.8 0 21.3 6.8 41 18.3 57 1.5-3.7 4.4-5.7 7.9-7.5z"/></svg>
