<svg xmlns="http://www.w3.org/2000/svg" version="1.2" viewBox="0 0 209 212" width="209" height="212"><defs><linearGradient id="P" gradientUnits="userSpaceOnUse"/><radialGradient id="g1" cx="0" cy="0" r="1" href="#P" gradientTransform="matrix(197.517,34.902,-34.902,197.517,18.334,32.931)"><stop offset=".55" stop-color="#fff"/><stop offset="1" stop-color="#6b0009"/></radialGradient><radialGradient id="g2" cx="0" cy="0" r="1" href="#P" gradientTransform="matrix(138.639,24.498,-24.498,138.639,135.59,141.939)"><stop/><stop offset="1" stop-color="#fff"/></radialGradient></defs><style>.a{fill:#9c2b18}.b{fill:#1a1818}.c{fill:#eb482f}.d{fill:#ef6732}.e{fill:#e71b2c}.f{fill:#f27b34}.g{fill:#c20024}.h{fill:#f06b32}.i{fill:#ea3c2e}.j{fill:#6b0811}.k{opacity:.6;fill:#830016}.l{mix-blend-mode:multiply;fill:url(#g1)}.m{opacity:.7;mix-blend-mode:multiply;fill:#4c1400}.n{mix-blend-mode:screen;fill:url(#g2)}.o{mix-blend-mode:overlay;fill:#fff}.p{opacity:.5;mix-blend-mode:overlay;fill:#fffcd3}</style><path class="a" d="m207 124c-9.9 56.5-63.8 94.2-120.3 84.2-56.4-10-94.1-63.8-84.1-120.3 9.9-56.5 63.8-94.2 120.3-84.2 56.4 10 94.1 63.9 84.1 120.3z"/><path fill-rule="evenodd" class="b" d="m207.2 124.1q0 0-0.3 1.8c-0.3 1.2-0.6 3-1.2 5.3-1.1 4.7-3.1 11.5-6.9 19.6-3.8 8-9.3 17.6-17.8 26.8-8.5 9.2-19.7 18.3-33.9 24.7-7 3.1-14.8 5.6-23 7.2-8.2 1.7-16.9 2.1-25.8 1.6-17.7-1.1-36.1-7.2-52-18.2-15.8-11-29.1-26.7-37.2-45.2-4-9.3-6.8-19.2-8-29.3-0.7-5.1-0.9-10.2-0.9-15.3 0.1-5.2 0.6-10.3 1.4-15.4 0.9-5 2.1-10.1 3.7-15 1.6-4.8 3.4-9.7 5.7-14.3 4.6-9.2 10.6-17.6 17.5-25.1 14-14.8 32.1-25.1 51-29.9 9.4-2.4 19-3.3 28.3-3 2.4 0.1 4.7 0.2 7 0.5 1.1 0.1 2.3 0.2 3.4 0.3q1.7 0.3 3.4 0.5c2.4 0.4 4.5 0.9 6.7 1.3 2.2 0.6 4.4 1.1 6.5 1.8 8.5 2.6 16.6 6 23.7 10.4 7.2 4.3 13.6 9.3 19.1 14.8 11.1 10.8 18.6 23.2 23.3 34.8 4.9 11.5 6.8 22.4 7.6 31.3 0.8 8.9 0.3 16-0.3 20.7-0.1 2.4-0.5 4.2-0.7 5.4q-0.3 1.9-0.3 1.9zm-0.3-0.1q0 0 0.2-1.8c0.2-1.3 0.6-3.1 0.7-5.4 0.5-4.8 0.9-11.8 0-20.7-0.3-4.4-1.3-9.2-2.6-14.4-1.3-5.2-3.2-10.7-5.7-16.3-5-11.3-12.9-23-23.9-33.4-11-10.3-25.2-19-41.8-23.9-2-0.6-4.1-1.1-6.2-1.6q-1.7-0.4-3.3-0.7l-1.6-0.3-1.6-0.3q-1.7-0.2-3.3-0.4c-1.1-0.2-2.2-0.3-3.3-0.4-2.3-0.3-4.5-0.3-6.8-0.4-4.5-0.1-9.1 0-13.6 0.5-2.3 0.2-4.6 0.6-6.9 1-2.3 0.4-4.6 0.8-6.9 1.4-18.2 4.4-35.9 14.2-49.6 28.5-13.8 14.2-23.5 32.8-27.2 52.7-0.9 4.9-1.5 10-1.7 15-0.1 5.1 0 10.1 0.5 15.1 1.2 10.1 3.9 19.9 7.8 29 8 18.4 21.4 33.9 37.3 44.1 1.9 1.4 4 2.5 6 3.7 2.1 1.1 4.1 2.3 6.2 3.2 4.2 2.1 8.5 3.7 12.8 5.1 2.2 0.6 4.4 1.3 6.5 1.8 1.1 0.3 2.2 0.6 3.3 0.8q1.7 0.3 3.3 0.6c2.1 0.5 4.4 0.7 6.5 1.1 2.2 0.2 4.4 0.4 6.5 0.5 17.3 1 33.7-2.3 47.5-8.3 13.9-6 25.3-14.4 33.9-23.2 4.3-4.4 7.9-8.9 10.9-13.4 3.1-4.4 5.6-8.6 7.4-12.7 3.9-8 5.9-14.7 7.1-19.4 0.6-2.2 0.9-4.1 1.2-5.3q0.4-1.8 0.4-1.8z"/><path class="c" d="m29.7 128.8c10.6 4.8 23.3 5.6 34.8 5.2 10.3-0.4 20.1 1.3 30 4.3 10.8 3.3 21.6 7.5 32.9 8.8 11.2 1.2 21.5-2.5 32.4-4.4 10.4-1.8 20.8-0.7 31.2-3 4.3-0.9 8.5-1.9 12.8-2.6q0.3-0.8 0.5-1.7c-10.7 1.8-21.8 5.5-31.9 3.4-11.2-2.5-18.5-10.5-28-16.1-10.7-6.4-21.3-9.7-33.6-6.3-11.1 3.1-21.2 9-32.4 11.7-9.6 2.4-20.1 2.5-29.9 1.2-10.7-1.5-20.6-4.3-30-9.7-5.8-3.3-11.5-7-17.5-10q0.1 1.2 0.2 2.3c10.1 3.9 19.5 12.8 28.5 16.9z"/><path class="c" d="m191.8 152.4c1.6 0.8 3.2 1.3 5 1.7q0.8-1.5 1.5-3c-2.2 0.4-4.4 0.8-6.5 1.3z"/><path class="d" d="m188.1 152.8c-0.6-0.5 0.2-1.7 0.8-1.8 3.4-1 7-1.4 10.4-2.2q2.1-4.6 3.8-9.4c-6.1 1-12.1 2.7-18.3 3.6-9.7 1.6-19.4 0.5-29.1 2.6-9.5 2.1-19.3 5-29.1 3.6-10.1-1.4-19.6-4.6-29.2-7.6-12.7-3.9-24.2-5.4-37.5-5.4-8.9 0-17.6-0.8-26.1-3.5-8.4-2.7-15.3-7.9-22.8-12.4-3-1.8-6.2-3.8-9.6-5.4q0.5 6.3 1.8 12.4c7.5 4 15.3 7.6 23.2 10.9 4.6 2 9.6 3.6 14 6.1 3.7 2.2 7.4 4.7 11.8 4.9 8.4 0.5 16.9-2.8 25.3-1.3 8.4 1.6 16.1 4.3 23.9 7.8 8.6 3.8 17.4 8.1 26.7 9.7 9.9 1.6 20.2 1.6 30.1 1.1 11.2-0.5 22.4-1.8 33.4-3.7q2.2-3.3 4.1-6.7c-2.7-0.5-5.2-1.4-7.6-3.3z"/><path class="e" d="m11.5 150.5c8.6 6 16.4 8.9 27.1 7.9 9.2-0.8 18.5-2.2 27.7-0.1 9.3 2.1 17.1 6.4 25.3 11.1 17.6 10.1 38.7 8.1 58.3 7.6 11-0.2 22.6-0.6 33.5-3.2q3.5-4.1 6.6-8.6c-12 2-24.2 3.4-36.4 3.6-9.3 0.1-19.3 0.5-28.3-1.7-8.2-1.9-15.7-5.3-23.3-8.6-9.6-4.2-20.4-9.4-31.1-8.7-7.8 0.5-15.6 2.8-23.3 0.9-3.7-1-6.7-3.8-10.1-5.2-4.9-2.1-9.7-4.1-14.5-6.2-1.4-0.6-12.3-5.9-19.2-9.4 1.6 7 4 13.7 7 20.1q0.3 0.2 0.7 0.5z"/><path class="f" d="m25.4 172.8c12.8-0.6 25.7-4.1 37.8 1.2 17.3 7.6 33.3 18.7 52.6 20.6 17.3 1.7 34.6-2.7 51.7-5.9 4.8-3.7 9.4-7.8 13.6-12.3-9.8 2-20 2.5-29.7 2.7-17.2 0.4-37 2.8-53.2-3.8-10.6-4.3-19.4-11.8-30.8-14.4-10.6-2.4-20.5-0.7-31.2-0.2-8.7 0.4-15.9-1.3-23.2-6.3 3.5 6.6 7.6 12.7 12.4 18.4z"/><path class="c" d="m54.5 182.2c14.3 0.8 26.1 7.5 39.4 11.8 15.2 4.9 33.5 8.4 49.4 6.4q3.6-0.5 7.1-1.2 6.9-3.4 13.3-7.8c-16.5 3.2-34.1 7.8-50.8 5.1-8.2-1.3-16.2-3.9-23.8-7.2-8.7-3.7-16.7-8.6-25.3-12.4-12-5.4-24.2-2.7-36.5-1.9q3.7 4.1 7.9 7.9c6.4-0.5 12.8-1.1 19.3-0.7z"/><path class="g" d="m136.6 202.9c-14.1 0-28.8-2-42.2-6.3-14.9-4.9-28.4-12.7-44.5-12.3-4.1 0.1-8.3 0.4-12.4 0.7 13.6 11.6 30.4 19.9 49.2 23.2 19.6 3.5 38.8 1.2 56-5.6q-3 0.3-6.1 0.3z"/><path class="h" d="m185.3 56.7c-9.1 1.8-17.6 5.2-26.5 7.7-16.3 4.5-31.1-3.4-46.9-6.3-9-1.6-18.2-2.3-27.2-4.2-8.6-1.8-16.1-5.2-24-9-9.4-4.5-18.8-8.7-27.6-14q-3.7 3.6-7.1 7.5c4.3 8.1 9.6 12.6 19.4 14.5 21 3.9 40.7 11.7 61.3 17.1 20.5 5.3 41.4 7.3 62.6 7.6 10.6 0.2 24.5 1.5 34.1-4.2-2.1-6.3-4.8-12.4-8.1-18.1q-5 0.4-10 1.4z"/><path class="g" d="m122.1 15.4c6.8 1 13.6 2.8 20.4 3.2 5 0.3 8.8-0.5 12.1-3.7-9.7-5.3-20.3-9.2-31.7-11.2-10.5-1.8-20.9-2-30.9-0.8 5.8 9.3 18.7 11 30.1 12.5z"/><path class="h" d="m156 15.6c-2.7 2.9-5.8 5.1-10.9 5.3-8.4 0.3-17-2.4-25.3-3.5-12-1.7-24.9-4-30.4-14.1-6.7 1-13.3 2.7-19.6 5 8.4 9.1 24.6 10.1 37 11.9 12.5 1.8 30.7 6.1 43.4 6.7 5.9 0.3 5.9 0 11.8 0.2 3.4 0.1 6.8 0.3 10.1-0.1-5-4.3-10.4-8.1-16.1-11.4z"/><path class="i" d="m162.9 29.3c-6.5-0.3-13-0.1-19.5-0.5-13.9-1.1-27.2-5.2-41-7-12.4-1.5-27.2-3.5-35-12.7-5.8 2.3-11.4 5.1-16.8 8.4 9.3 4.9 18.4 10.1 28.8 12.5 14.3 3.3 29.1 3.7 43.3 7.4 7 1.9 14.7 4.2 22 3 6.3-1 11.5-3.7 17.2-6.4 4.5-2.1 9.1-4 13.6-4q-0.7-0.6-1.4-1.2c-3.7 0.7-7.5 0.6-11.2 0.5z"/><path class="c" d="m178.1 32.5c-9.5-2.3-20.6 6.4-29.4 9.2-11.5 3.7-23.5-1.9-34.7-4.1-13.2-2.5-27-2.7-39.9-6.7-9.1-2.8-17.4-7.5-25.8-12-2.4 1.6-4.7 3.3-7 5 5 5.4 13.9 8.6 20.1 10.5 14.5 4.6 29.6 6.9 44.7 9 17.5 2.6 34.4 7.5 52.3 5.7 8.8-0.9 17.1-4.3 25.7-6.4q1.2-0.3 2.5-0.6-4-5-8.5-9.6z"/><path class="g" d="m187.6 43.4c-5.3 1.2-10.8 3.4-14.5 4.5-8.8 2.6-17.1 4-26.3 3.9-10.3-0.2-19.8-2.8-29.9-4.5-6.1-1-12.2-1.8-18.2-2.7-15.1-2.3-30.9-4.6-45.1-10.5-4.9-2-10.4-4.8-14.1-8.8q-2.4 1.9-4.6 3.9c9.9 5.8 20.5 10.3 30.9 15.6 16.8 8.6 35 7.8 52.9 12.5 8.2 2.2 16.4 5.3 24.9 6.2 9.7 1 17.4-2.3 26.5-5 8-2.4 16.1-4.2 24.2-5.1q-3.1-5.2-6.7-10z"/><path class="g" d="m176.6 79.9c-21.6-0.3-43-1.1-64.1-6.1-11.3-2.7-22.3-6.3-33.3-9.8-11.5-3.7-22.9-6.4-34.7-9-8-1.8-14.8-4.7-18.9-12.2q-0.7-1.1-1.3-2.4c-5 6.1-9.3 12.9-12.9 20.1 12.1 7.3 23 17.1 37.1 20.2 19.4 4.4 38.9-2.4 58.4 0.7 10.4 1.7 20.2 5.1 30.4 7.6 10.1 2.6 20.3 3.8 30.7 3.6 13.2-0.3 26.2-2 39-4.7q-1.1-6.4-3-12.7c-8 4.5-18.3 4.9-27.4 4.7z"/><path class="g" d="m187.6 43.4c-5.3 1.2-10.8 3.4-14.5 4.5-8.8 2.6-17.1 4-26.3 3.9-10.3-0.2-19.8-2.8-29.9-4.5-6.1-1-12.2-1.8-18.2-2.7-15.1-2.3-30.9-4.6-45.1-10.5-4.9-2-10.4-4.8-14.1-8.8q-2.4 1.9-4.6 3.9c9.9 5.8 20.5 10.3 30.9 15.6 16.8 8.6 35 7.8 52.9 12.5 8.2 2.2 16.4 5.3 24.9 6.2 9.7 1 17.4-2.3 26.5-5 8-2.4 16.1-4.2 24.2-5.1q-3.1-5.2-6.7-10z"/><path class="c" d="m167.7 94.7c-9.9 0.1-19.6-0.6-29.2-3-9.4-2.4-18.7-5.7-28.3-7.4-20.7-3.8-42.1 3.9-62.6-1.4-14-3.7-24.9-13.3-37.1-20.4-0.8 1.8-1.6 3.7-2.4 5.5 6.9 4.5 13.2 10.2 18.6 14.1 10.3 7.6 23.7 16.8 37.1 12.9 9.4-2.7 18.4-7.9 28.6-6.8 13.5 1.4 25.9 7.6 39.5 9.3 13.4 1.6 27 2.3 40.5 2.2 9.5-0.2 20.7 0.2 29.3-4.6 2.3-1.3 4.2-2.9 5.8-4.6q-0.1-0.3-0.1-0.5c-13.1 2.8-26.4 4.6-39.7 4.7z"/><path class="c" d="m33.2 99.5c-7.5-8.2-20.1-11.2-29.4-17.3q-0.7 2.8-1.2 5.7c-0.2 0.8-0.3 1.6-0.4 2.4q0.4 0.2 0.8 0.3c8.5 3.5 20.5 12.7 30.2 8.9z"/><path class="h" d="m207.8 93q-0.2 0.2-0.4 0.4c-5.8 5-13.2 7-20.7 7.7-12.8 1.3-25.9 0.9-38.7 0.1-12.9-0.9-25.5-2.2-37.7-6.3-7.7-2.5-16.3-5.7-24.5-4.6-6.5 0.9-12.2 3.7-18.4 5.7-11.4 3.7-21.5 1.3-31.6-5-8.5-5.3-16.1-11.5-24.3-17.2-1.4-1-2.8-2-4.4-3q-1.5 4.2-2.7 8.6c4.1 2.8 8.9 4.9 13 7 6.6 3.3 13.7 6.6 18.5 12.5 0.4 0.6 0 1.4-0.5 1.7-10.5 5.7-22.6-3.3-31.9-7.2q-0.9-0.4-1.6-0.7-0.5 3.2-0.7 6.5c15.9 5.3 31.9 11.9 48.6 13.1 11.8 0.8 22-1.6 33.4-4.3 8.6-2.1 17.4-2.8 26.2-2.5 10.2 0.3 20.4 1.5 30.3 3.6 9.9 2.1 19.4 5.7 29.3 7.9 13.2 2.8 26.2-0.7 39.3-2.6 0.6-7.2 0.4-14.4-0.5-21.4z"/><path class="g" d="m166 118.6c-20.2-5.5-39.8-11.3-61.1-11-19.7 0.3-38 8.9-57.8 6.6-15.9-1.8-30.9-7.7-46-12.7q-0.1 2.8-0.1 5.5c5.8 2.8 11.4 6.4 17.1 9.6 10.9 6.3 22.5 10 35.1 11 13.4 1 25.7-0.8 38.1-6 8.8-3.7 18.1-8.1 27.8-8.7 10.4-0.6 19.7 3 28.3 8.8 8.8 6.1 17.4 14.6 28.7 15.3 8.9 0.6 19.1-2.4 28.9-3.8q1.2-4.5 2-9.2c0.5-2.5 0.8-5.1 1.1-7.6-14.1 2-28 6-42.1 2.2z"/><path fill-rule="evenodd" class="j" d="m207.2 124.1q0 0-0.3 1.8c-0.3 1.2-0.6 3-1.2 5.3-1.1 4.7-3.1 11.5-6.9 19.6-3.8 8-9.3 17.6-17.8 26.8-8.5 9.2-19.7 18.3-33.9 24.7-7 3.1-14.8 5.6-23 7.2-8.2 1.7-16.9 2.1-25.8 1.6-17.7-1.1-36.1-7.2-52-18.2-15.8-11-29.1-26.7-37.2-45.2-4-9.3-6.8-19.2-8-29.3-0.7-5.1-0.9-10.2-0.9-15.3 0.1-5.2 0.6-10.3 1.4-15.4 0.9-5 2.1-10.1 3.7-15 1.6-4.8 3.4-9.7 5.7-14.3 4.6-9.2 10.6-17.6 17.5-25.1 14-14.8 32.1-25.1 51-29.9 9.4-2.4 19-3.3 28.3-3 2.4 0.1 4.7 0.2 7 0.5 1.1 0.1 2.3 0.2 3.4 0.3q1.7 0.3 3.4 0.5c2.4 0.4 4.5 0.9 6.7 1.3 2.2 0.6 4.4 1.1 6.5 1.8 8.5 2.6 16.6 6 23.7 10.4 7.2 4.3 13.6 9.3 19.1 14.8 11.1 10.8 18.6 23.2 23.3 34.8 4.9 11.5 6.8 22.4 7.6 31.3 0.8 8.9 0.3 16-0.3 20.7-0.1 2.4-0.5 4.2-0.7 5.4q-0.3 1.9-0.3 1.9zm-0.3-0.1q0 0 0.2-1.8c0.2-1.3 0.6-3.1 0.7-5.4 0.5-4.8 0.9-11.8 0-20.7-0.3-4.4-1.3-9.2-2.6-14.4-1.3-5.2-3.2-10.7-5.7-16.3-5-11.3-12.9-23-23.9-33.4-11-10.3-25.2-19-41.8-23.9-2-0.6-4.1-1.1-6.2-1.6q-1.7-0.4-3.3-0.7l-1.6-0.3-1.6-0.3q-1.7-0.2-3.3-0.4c-1.1-0.2-2.2-0.3-3.3-0.4-2.3-0.3-4.5-0.3-6.8-0.4-4.5-0.1-9.1 0-13.6 0.5-2.3 0.2-4.6 0.6-6.9 1-2.3 0.4-4.6 0.8-6.9 1.4-18.2 4.4-35.9 14.2-49.6 28.5-13.8 14.2-23.5 32.8-27.2 52.7-0.9 4.9-1.5 10-1.7 15-0.1 5.1 0 10.1 0.5 15.1 1.2 10.1 3.9 19.9 7.8 29 8 18.4 21.4 33.9 37.3 44.1 1.9 1.4 4 2.5 6 3.7 2.1 1.1 4.1 2.3 6.2 3.2 4.2 2.1 8.5 3.7 12.8 5.1 2.2 0.6 4.4 1.3 6.5 1.8 1.1 0.3 2.2 0.6 3.3 0.8q1.7 0.3 3.3 0.6c2.1 0.5 4.4 0.7 6.5 1.1 2.2 0.2 4.4 0.4 6.5 0.5 17.3 1 33.7-2.3 47.5-8.3 13.9-6 25.3-14.4 33.9-23.2 4.3-4.4 7.9-8.9 10.9-13.4 3.1-4.4 5.6-8.6 7.4-12.7 3.9-8 5.9-14.7 7.1-19.4 0.6-2.2 0.9-4.1 1.2-5.3q0.4-1.8 0.4-1.8z"/><path class="g" d="m150.6 137.1c-4.4-3.9-8.8-7.7-12.4-12.3-5.1-3-10.7-5.3-16.5-5.8-11.8-0.9-24.7 6-35.4 10.1-1.4 0.6-2.2 3-0.1 3.1 7.4 0.5 14.6 0.5 21.6 3.3 5.8 2.3 11.9 3.3 18.1 4.5 6.6 1.3 20.2 3.7 25.9-1.4q-0.7-0.8-1.2-1.5z"/><path class="k" d="m137.7 133.1c-1.5-2.7-4.2-4.8-7.3-6.3-2.7-1.9-6-2.8-9.7-3.8-6.8-2.1-11.9 2.1-18.1 3.8-1.8 0.5-2.3 3.2-0.1 3.4 6.2 0.4 12.4 2.1 18.4 3.8 4.6 1.2 9.3 3.2 14.2 2.5 1.4-0.2 3.5-1.8 2.6-3.4z"/><path class="l" d="m207 124.3c-10 56.5-63.8 94.2-120.3 84.2-56.5-10-94.2-63.9-84.2-120.3 10-56.5 63.8-94.2 120.3-84.2 56.5 10 94.2 63.8 84.2 120.3z"/><path class="m" d="m201.8 75c0 0 10.1 76.4-40.3 114.8 0 0 58.1-29.5 40.3-114.8z"/><path class="n" d="m14.6 144.3c-1.2-4.1-1.8-11.9 4.4-11.9 6.1 0.1 14.8 0.4 14.1-8.7-0.3-5.6-2.7-10.5-4.9-15.5-4.3-10.1-11-25.3 0.1-33.6 5.3-3.9 11.7-4.7 17.9-6.3 8.5-2.3 12.7-7.6 17-14.9 0.7-1.2 1.9-4.6 3.5-5 2.9-0.8 1.7-2.4 1.5-4.5-0.3-2.5 2.8-7.2 4.4-9.2 4.2-5.2 14.1-3.7 20-2.9 8.2 1 55 11.5 50.3-6-1-3.8-5-9.7 1.8-9.9 2.8 0 6.5 0.9 10.4 1.9-9.4-5-19.7-8.7-30.7-10.7-56.5-9.9-110.4 27.8-120.3 84.2-5 28.1 1.8 55.5 16.9 77.2 2.5-6-5.1-19-6.4-24.2z"/><path class="o" d="m58.5 18.2c0 0-73.5 42.5-46 121.2 0 0-18.6-74.7 46-121.2z"/><path class="p" d="m193.1 62c-6.2-2.3-13.2-0.6-19.3 1.2-9 2.6-16.2 4.3-25.6 3.9-10.1-0.5-19.9-0.6-29.8-3.2-7.5-1.9-15.2-3.7-23-3.9-0.7 0-1.3 1.4-0.4 1.5 8.7 1.1 15.9 5.3 23.9 8.5 5.6 2.2 11.6 2.9 17.7 3.3 7.3 1.4 14.8 1.4 22.2 0.8 9.7-0.8 19.6-0.6 29.1-3.3 0.6-0.2 0.9-1.4 0-1.3-5.7 0.4-11.5 0.1-17.2-0.1 2-0.8 4-1.6 6.1-2.3 5.1-1.5 10.1-1 15.3-1.7 1.7-0.2 3.1-2.6 1-3.4z"/><path class="p" d="m117.4 79.7c-13-6.9-28.8-7.1-43.1-7.2-9.1 0-17.8-0.6-26.6-3.5-8.3-2.7-17.1-7.9-25.2-11.7-0.8-0.4-1.8 0.8-1 1.4 13.9 9.5 25.9 19.3 43.2 21 8.4 0.8 17.7-1.2 26.1-2.3 9.5-1.1 16.8 3.6 25.8 4.1 0.9 0.1 1.8-1.3 0.8-1.8z"/><path class="p" d="m129.5 103c-13.1-3.3-27.1-8-40.8-6.7-6.5 0.6-12.9 3.1-19.2 4.6-10.5 2.5-20.6 0.3-30-4.6-0.2-0.1-0.5 0.2-0.3 0.3 11.4 9.9 21.5 12.8 36.2 8.8 3.6-1 7-2.8 10.5-4.1 5.7-2.2 12.1-1.4 18-0.8 8.5 1 16.8 2 25.3 3.3 0.4 0 0.8-0.7 0.3-0.8z"/><path class="p" d="m98.6 112.6c-11.2-0.2-22.3 4.7-33.5 5.8-14 1.3-29.1 0.3-42.2-5.2-0.4-0.1-0.9 0.5-0.5 0.7 10.7 6.1 24 10.5 36.3 11.2 6.4 0.3 10.4-2.4 15.7-5.4 6.9-4 16.6-4.3 24.2-5.7 0.7-0.1 0.9-1.3 0-1.4z"/><path class="p" d="m76 154.4c-7.2-5-15.6-2.8-23.8-2.3-13.2 0.9-23.7-8.4-35.8-11.8-0.6-0.2-1.4 0.8-0.7 1.1 9.1 4.2 16.7 10.4 26.4 13.4 10.7 3.4 22-1.2 33 1.1 0.8 0.2 1.7-0.9 0.9-1.5z"/><path class="p" d="m188.8 145.3c-12.8-3-27.5 1.8-40 4.6-9.6 2.2-19.2 4.1-29.1 2.4-7.6-1.2-15-3.9-22.5-5.5-0.2-0.1-0.4 0.2-0.2 0.3 7.2 2.7 14.1 6 21.2 8.5 6.9 2.5 14.5 2.2 21.6 1.8 7.5-0.4 14.3-3.1 21.2-5.8 8.6-3.4 18.1-4.3 27.3-4.4 0.9 0 1.7-1.6 0.5-1.9z"/><path class="p" d="m159.6 170.4c-9.8-0.8-18.9 1.3-28.8-0.3-10.3-1.6-20.5-2.6-30.2-7-0.3-0.2-0.7 0.3-0.4 0.5 18.1 10 39.3 10.5 59.2 8.3 0.8-0.1 1.2-1.4 0.2-1.5z"/><path class="p" d="m56.5 50.8c-3.2-1.8-6.8-1.7-10.4-2.3-5.3-1-11.2-5.1-15.2-8.6-0.5-0.5-1.4 0.3-1 0.8 7 8.3 15.6 10.5 26 11.6 0.7 0.1 1.4-1.1 0.6-1.5z"/><path class="p" d="m95.6 38.7c-15-4.4-33.2-3.4-45.9-13.9-0.5-0.5-1.5 0.5-0.9 1 11.4 10.8 31.4 12.5 46.3 14.1 0.7 0.1 1.4-1 0.5-1.2z"/><path class="p" d="m98.9 30.4c-5.9-1.5-12-1.6-17.9-2.7-4.5-0.8-11.2-4.4-14.7-7.3-0.3-0.3-0.8 0.3-0.5 0.6 7.5 7.9 22.2 10.7 32.5 11.5 1.1 0 1.8-1.8 0.6-2.1z"/></svg>
