<svg xmlns="http://www.w3.org/2000/svg" version="1.2" viewBox="0 0 293 206" width="293" height="206"><defs><linearGradient id="P" gradientUnits="userSpaceOnUse"/><radialGradient id="g1" cx="0" cy="0" r="1" href="#P" gradientTransform="matrix(189.633,28.046,-28.046,189.633,48.678,40.143)"><stop stop-color="#fff"/><stop offset="1" stop-color="#79388e"/></radialGradient><radialGradient id="g2" cx="0" cy="0" r="1" href="#P" gradientTransform="matrix(208.286,-3.333,3.333,208.286,234.759,192.747)"><stop/><stop offset="1" stop-color="#fff"/></radialGradient><radialGradient id="g3" cx="0" cy="0" r="1" href="#P" gradientTransform="matrix(299.023,0,0,299.023,108.912,83.924)"><stop offset=".06" stop-color="#6fc6e1"/><stop offset="1" stop-color="#6365ad"/></radialGradient><radialGradient id="g4" cx="0" cy="0" r="1" href="#P" gradientTransform="matrix(269.145,39.806,-39.806,269.145,166.457,-11.26)"><stop stop-color="#2b2b2b"/><stop offset="1" stop-color="#fff"/></radialGradient></defs><style>.a{fill:#00b0ef}.b{fill:#0065d0}.c{fill:#5e4395}.d{fill:#50197e}.e{fill:#be63a4}.f{fill:#fffab3}.g{fill:#f59364}.h{fill:#8c5ca3}.i{fill:#f8bcb6}.j{fill:#3865b0}.k{fill:#a843a3}.l{mix-blend-mode:multiply;fill:url(#g1)}.m{mix-blend-mode:screen;fill:url(#g2)}.n{fill:url(#g3)}.o{mix-blend-mode:multiply;fill:#d474ad}.p{opacity:.6;mix-blend-mode:screen;fill:#fff}.q{fill:#964896}.r{mix-blend-mode:screen;fill:url(#g4)}.s{mix-blend-mode:multiply;fill:#271053}.t{mix-blend-mode:overlay;fill:#fff}.u{opacity:.7;mix-blend-mode:multiply;fill:#0000b9}</style><path class="a" d="m246.4 118.6c-7.6 51.8-55.8 87.5-107.5 79.9-51.8-7.7-87.5-55.8-79.9-107.6 7.7-51.7 55.8-87.5 107.6-79.8 51.7 7.6 87.5 55.8 79.8 107.5z"/><path fill-rule="evenodd" class="b" d="m246.6 118.7q0 0-0.3 1.7c-0.2 1.1-0.4 2.7-0.9 4.8-0.9 4.3-2.5 10.6-5.8 18-3.3 7.5-8.1 16.3-15.6 24.9-7.4 8.6-17.5 17.2-30.2 23.4-6.4 3-13.4 5.5-20.8 7.2-7.5 1.7-15.4 2.3-23.5 2.1-16.2-0.6-33.1-5.7-47.9-15.3-14.7-9.6-27.2-23.6-35-40.2-4-8.4-6.7-17.3-8.1-26.5-0.8-4.6-1.1-9.3-1.2-14 0-4.7 0.3-9.3 0.9-14 0.7-4.6 1.6-9.3 2.9-13.8 1.4-4.5 2.9-8.9 4.9-13.1 4-8.6 9.2-16.4 15.3-23.4 12.4-13.9 28.6-23.8 45.7-28.6 8.5-2.4 17.3-3.5 25.8-3.5 2.1 0.1 4.3 0.1 6.4 0.3 1 0.1 2.1 0.1 3.1 0.2q1.6 0.2 3.1 0.4c2.2 0.3 4.1 0.7 6.1 1 2 0.5 4.1 0.9 6 1.4 7.9 2.2 15.3 5.1 21.9 8.9 6.6 3.8 12.6 8.2 17.8 13 10.4 9.6 17.5 20.8 22.1 31.2 4.7 10.4 6.7 20.2 7.7 28.3 1 8.1 0.7 14.6 0.3 18.9-0.1 2.2-0.4 3.8-0.5 5q-0.2 1.7-0.2 1.7zm-0.3-0.1q0 0 0.2-1.7c0.1-1.1 0.3-2.7 0.4-4.9 0.4-4.3 0.6-10.8-0.5-18.8-0.4-4-1.4-8.4-2.7-13.1-1.3-4.7-3.2-9.7-5.7-14.8-4.8-10.1-12.3-20.6-22.6-29.8-10.2-9.1-23.5-16.7-38.7-20.7-1.9-0.5-3.8-0.9-5.7-1.3q-1.5-0.3-3-0.5l-1.5-0.3-1.5-0.2q-1.5-0.2-3-0.3c-1-0.1-2-0.2-3.1-0.3-2-0.2-4-0.1-6.1-0.2-4.1 0.1-8.3 0.2-12.5 0.9-2.1 0.2-4.1 0.6-6.2 1-2.1 0.5-4.2 0.9-6.2 1.5-16.6 4.4-32.4 13.9-44.5 27.3-12.3 13.2-20.6 30.4-23.5 48.7-0.7 4.5-1.1 9.1-1.2 13.7 0 4.6 0.3 9.2 0.9 13.8 1.3 9.1 4 18 7.8 26.2 7.8 16.5 20.4 30.3 35.1 39.3 1.8 1.2 3.8 2.2 5.6 3.2 2 0.9 3.8 2 5.8 2.8 3.9 1.7 7.8 3.1 11.8 4.3 2 0.5 4 1.1 6 1.4 1 0.2 2 0.5 3 0.7q1.5 0.2 3 0.5c2 0.3 4 0.5 6 0.7 2 0.2 3.9 0.4 5.9 0.4 15.8 0.4 30.7-3 43.1-8.8 12.5-5.8 22.7-13.8 30.3-22.1 3.8-4.1 7-8.3 9.6-12.4 2.7-4.1 4.9-8.1 6.5-11.8 3.3-7.4 5-13.6 5.9-17.8 0.5-2.1 0.7-3.8 1-4.9q0.3-1.7 0.3-1.7z"/><path class="c" d="m246.4 118.6c-7.6 51.8-55.8 87.5-107.5 79.9-51.8-7.7-87.5-55.8-79.9-107.6 7.7-51.7 55.8-87.5 107.6-79.8 51.7 7.6 87.5 55.8 79.8 107.5z"/><path fill-rule="evenodd" class="d" d="m246.6 118.7q0 0-0.3 1.7c-0.2 1.1-0.4 2.7-0.9 4.8-0.9 4.3-2.5 10.6-5.8 18-3.3 7.5-8.1 16.3-15.6 24.9-7.4 8.6-17.5 17.2-30.2 23.4-6.4 3-13.4 5.5-20.8 7.2-7.5 1.7-15.4 2.3-23.5 2.1-16.2-0.6-33.1-5.7-47.9-15.3-14.7-9.6-27.2-23.6-35-40.2-4-8.4-6.7-17.3-8.1-26.5-0.8-4.6-1.1-9.3-1.2-14 0-4.7 0.3-9.3 0.9-14 0.7-4.6 1.6-9.3 2.9-13.8 1.4-4.5 2.9-8.9 4.9-13.1 4-8.6 9.2-16.4 15.3-23.4 12.4-13.9 28.6-23.8 45.7-28.6 8.5-2.4 17.3-3.5 25.8-3.5 2.1 0.1 4.3 0.1 6.4 0.3 1 0.1 2.1 0.1 3.1 0.2q1.6 0.2 3.1 0.4c2.2 0.3 4.1 0.7 6.1 1 2 0.5 4.1 0.9 6 1.4 7.9 2.2 15.3 5.1 21.9 8.9 6.6 3.8 12.6 8.2 17.8 13 10.4 9.6 17.5 20.8 22.1 31.2 4.7 10.4 6.7 20.2 7.7 28.3 1 8.1 0.7 14.6 0.3 18.9-0.1 2.2-0.4 3.8-0.5 5q-0.2 1.7-0.2 1.7zm-0.3-0.1q0 0 0.2-1.7c0.1-1.1 0.3-2.7 0.4-4.9 0.4-4.3 0.6-10.8-0.5-18.8-0.4-4-1.4-8.4-2.7-13.1-1.3-4.7-3.2-9.7-5.7-14.8-4.8-10.1-12.3-20.6-22.6-29.8-10.2-9.1-23.5-16.7-38.7-20.7-1.9-0.5-3.8-0.9-5.7-1.3q-1.5-0.3-3-0.5l-1.5-0.3-1.5-0.2q-1.5-0.2-3-0.3c-1-0.1-2-0.2-3.1-0.3-2-0.2-4-0.1-6.1-0.2-4.1 0.1-8.3 0.2-12.5 0.9-2.1 0.2-4.1 0.6-6.2 1-2.1 0.5-4.2 0.9-6.2 1.5-16.6 4.4-32.4 13.9-44.5 27.3-12.3 13.2-20.6 30.4-23.5 48.7-0.7 4.5-1.1 9.1-1.2 13.7 0 4.6 0.3 9.2 0.9 13.8 1.3 9.1 4 18 7.8 26.2 7.8 16.5 20.4 30.3 35.1 39.3 1.8 1.2 3.8 2.2 5.6 3.2 2 0.9 3.8 2 5.8 2.8 3.9 1.7 7.8 3.1 11.8 4.3 2 0.5 4 1.1 6 1.4 1 0.2 2 0.5 3 0.7q1.5 0.2 3 0.5c2 0.3 4 0.5 6 0.7 2 0.2 3.9 0.4 5.9 0.4 15.8 0.4 30.7-3 43.1-8.8 12.5-5.8 22.7-13.8 30.3-22.1 3.8-4.1 7-8.3 9.6-12.4 2.7-4.1 4.9-8.1 6.5-11.8 3.3-7.4 5-13.6 5.9-17.8 0.5-2.1 0.7-3.8 1-4.9q0.3-1.7 0.3-1.7z"/><path class="e" d="m82.2 51.8q6.6-5.7 12.4-12.2c2.6-2.9 4.9-5.9 6.6-9.4 0.9-1.7 2-4.3 2.5-6.4-14.4 8.7-26.4 21.2-34.5 36.3 4.8-1.1 9.9-5.6 13-8.3z"/><path class="f" d="m75.1 70.1c7.1-4.7 13.6-10.1 19.9-15.8 6.6-5.9 13.3-11.8 19.3-18.3 5.8-6.4 12.4-14.3 15-23-8.4 2.2-16.3 5.4-23.7 9.7-0.8 5.2-5.2 12.8-7.4 15.4-5.5 6.3-11.4 12.5-18.1 17.5-3.3 2.6-7.5 5.9-12 6.6q-3.5 7.1-5.9 14.9c4.9-1.5 9.8-4.9 12.9-7z"/><path class="g" d="m102.3 62c9.4-8.7 18.5-18 25.5-28.7 3.1-4.7 5.8-9.6 8.5-14.5 1.3-2.4 2.7-5.1 3.7-7.9q-4.4 0.6-8.7 1.6c-2.4 8.4-8.2 16-13.8 22.4-6.9 7.8-14.7 14.8-22.5 21.8-7.8 6.8-16 13.8-25.2 18.7-2.4 1.2-5.2 2.7-8.2 3.6q-1.6 5.8-2.6 11.9 0 0.2 0 0.4c15.5-8.1 30.3-17.4 43.3-29.3z"/><path class="f" d="m68.5 107.4c12.9-8.6 25.4-17.5 36.6-28.3 12.1-11.9 23-25.1 31.6-39.7 4.2-7.2 7.7-14.5 10.7-22.1 1-2.4 1.9-4.7 2.7-7.2q-0.3 0-0.6 0.1c-2.5 5.2-5.4 10.3-8.1 15.3-7.2 13.6-15.1 27.2-25.8 38.5-10.7 11.3-23 21.1-36.2 29.4-6.4 4-12.8 8.2-19.4 11.7q-1 0.5-1.9 1 0 4 0.4 8c3.4-2.3 6.8-4.5 10-6.7z"/><path class="h" d="m166.6 11.1q-1.6-0.2-3.2-0.4-0.6 1.7-1.3 3.4c-2.9 7.1-6.4 14.1-10 20.9-9.2 17.3-20 33.6-33.6 47.6-13.5 13.9-29.7 25.6-46.8 34.6-3.7 2-7.7 3.9-11.9 5.7q0.1 0.1 0.1 0.1c1.8-0.8 3.7-1.6 5.5-2.5 8.3-3.8 16.7-7.6 24.7-12.2 15.4-8.8 30-19.2 42.1-32.2 12.6-13.7 23.7-29.2 31.1-46.4 2.4-5.4 5.2-11.6 7.2-17.9q-1.9-0.4-3.9-0.7z"/><path class="e" d="m73.4 114.3c15.3-8.8 30.2-18.8 42.5-31.5 12.6-13 23.1-27.5 31.8-43.4 3.8-7 7.5-14.1 10.8-21.3 1.1-2.4 2.2-5 3.1-7.6q-4.8-0.4-9.5-0.4-0.7 2-1.5 4c-3 7.8-6.2 15.3-10.3 22.5-8.8 15.6-19.8 29.9-32.7 42.3-12.2 11.8-25.6 21.5-39.7 30.9-3 2.1-6 4.1-9.2 6.2 0.2 1.7 0.5 3.5 0.8 5.2 5-2 9.7-4.5 13.9-6.9z"/><path class="i" d="m136 85c12-11.5 22.8-24.4 29.6-39.8 3.2-7.4 5.5-15 7.5-22.8 0.8-3.1 1.7-6.3 2.3-9.5q-1.6-0.4-3.2-0.8c-1.8 5.7-4.2 11.2-6.3 16.1-7.8 18.1-19 34.7-32.5 49-13.7 14.4-30 26.2-47.5 35.4-8.1 4.3-16.5 8.2-24.9 11.8q-0.4 0.2-0.8 0.4 0.5 2.1 1.1 4.2c27.8-8.6 53.7-23.9 74.7-44z"/><path class="e" d="m181.4 14.5q-2.1-0.6-4.2-1.2-0.5 2.4-1.1 4.7c-2.1 8.7-4.3 17.5-7.9 25.7-7 15.8-17.3 29.3-29.7 41.2-21.8 20.9-48 36.8-76.8 45.9q1.1 3.7 2.4 7.2 1.4-0.4 2.7-0.9c10.3-3.6 20.4-7.7 29.9-13.1 17.1-9.6 32.4-21.9 45.9-36.2 17.3-18.4 39.2-46 38.8-73.3z"/><path class="i" d="m111.5 164.6c19.9-8.8 39-19.4 56.6-32.2 27.1-19.7 54-44.3 66-75.9q-2.1-3.6-4.5-7c-2.9 4.3-5.9 8.4-8.8 12-14.4 18.7-31.8 35-50.3 49.5-7.4 5.7-15 10.9-22.9 15.8-16 12.8-33.5 23.9-52 32.7-4.7 2.3-9.7 4.6-14.8 6.7q3.5 4.2 7.6 8c7.9-3 15.6-6.3 23.1-9.6z"/><path class="g" d="m191 136.3c16.1-15.1 30.7-32.2 41.5-51.5 2.6-4.7 5.5-9.7 8.2-14.9q-2.3-5.9-5.4-11.4c-12.4 30.7-38.3 55-64.9 74.4-18.2 13.2-38 24.5-58.7 33.5-7.1 3.1-14.4 6.2-21.9 9.1q4.8 4.3 10.3 7.9c33.9-7.2 65.2-23.1 90.9-47.1z"/><path class="j" d="m154.5 199.5c6.4-2.8 12.6-5.8 18.6-9.3 16.2-9.6 30.9-21.7 43.9-35.4 12.1-12.7 22.8-27.1 30.2-43 0.5-7.1 0.2-14.1-0.8-20.9-9.4 22.1-24.1 42.4-39.3 59.3-14.8 16.4-32.6 30.5-52.2 40.6-5.1 2.7-10.6 5.3-16.2 7.6q0.1 0.1 0.2 0.1c5.2 0.8 10.4 1.1 15.6 1z"/><path class="h" d="m218.2 156c-14.5 15.1-30.8 28.7-49.3 38.5-2.8 1.5-5.8 3.1-8.9 4.7 43.1-3.3 79.8-36 86.4-80.6q0.2-1 0.3-2c-7.4 14.5-17.2 27.7-28.5 39.4z"/><path class="e" d="m157.6 187.4c18-10.1 34.5-23 48.3-38.4 15.5-17.5 30.7-38.6 40-61.4q-1.5-8.1-4.4-15.7c-1.9 3.5-3.8 6.9-5.6 10.3-11 20.2-25.5 38.3-42.3 54-26.1 24.3-57.2 40.9-91.4 48.7 10 6.3 21.2 10.8 33.4 13 7.8-3 15.3-6.8 22-10.5z"/><path class="i" d="m168.2 110.6c18.1-14.2 35.7-30 49.9-48.3 3.3-4.3 7-9.1 10.4-14.3-4.4-5.8-9.4-11.2-15.1-15.9-0.2 3.1-0.7 6.1-1.5 9.2-2.8 10.6-7.7 20.7-13.5 30-10.8 17.3-24.7 32.9-40 46.5 3.3-2.3 6.6-4.7 9.8-7.2z"/><path class="h" d="m84.2 155.8c8.8-4 17.7-7.6 26.4-11.5 12.4-5.6 24.5-11.8 36.1-18.9 1.5-1.2 3-2.4 4.5-3.7 16.4-13.9 31.9-29.8 43.6-47.9 6.1-9.5 11.9-19.9 14.8-30.9 1.1-4.1 1.6-8.3 1.8-12.4-3.9-3.1-8-5.9-12.3-8.3-1.2 11.7-7.1 23.9-12.3 32.8-11.2 18.9-26.6 34.3-43.4 48.3-17.3 14.5-36.2 27.1-56 37.9-5.9 3.2-11.7 6.2-17.7 8.9 1.7 3.3 3.7 6.4 5.9 9.4 3-1.1 5.9-2.4 8.6-3.7z"/><path class="e" d="m109.1 146.9c-9.7 4.2-19.4 8.7-29.1 12.7q-1.7 0.7-3.4 1.4 1.5 1.9 3 3.8c5.5-2.2 10.8-4.7 15.7-7.1 14.2-6.9 27.9-14.9 40.7-24.1q-13.1 7.2-26.9 13.3z"/><path class="i" d="m93.5 135.7c17.7-10.2 34.7-21.7 50.2-34.8 15-12.7 29.3-26.5 39.5-43.4 5.9-9.6 13.3-23.4 14-36.3-4.4-2.3-9-4.4-13.8-6-0.3 27.5-22 55.3-39.6 73.8-14.6 15.3-31.1 28.7-49.8 38.5-9.4 4.8-19.2 9-29.2 12.2q1.8 4.6 4.1 8.9c8.5-3.6 16.6-8.2 24.6-12.9z"/><path class="k" d="m66.2 99.3c5.8-3.6 11.7-6.9 17.3-10.7 11.6-7.9 22.9-16.7 32.2-27.2 9.7-11.1 17.3-23.7 24.2-36.7 2.5-4.7 5.2-9.5 7.6-14.5q-2.7 0.2-5.3 0.5c-2.1 6.7-6.7 13.4-9.8 18.6-7.1 11.7-16.2 22-26.2 31.3-14.3 13.4-30.4 23.7-47.5 32.7-0.4 3.7-0.6 7.3-0.6 10.9 2.8-1.5 5.5-3.3 8.1-4.9z"/><path class="l" d="m246.2 118.6c-7.6 51.7-55.8 87.5-107.5 79.8-51.8-7.6-87.5-55.8-79.9-107.5 7.7-51.7 55.8-87.5 107.6-79.8 51.7 7.6 87.5 55.8 79.8 107.5z"/><path class="m" d="m195.9 28.6c-9.7-8.4-13.2-13-33.5-16.1-23.5-3.7-50 4-68.8 19.2-13.1 10.5-23.2 24.5-28.9 40.3-2.7 7.5-4.6 16-5.1 24-0.8 15.8 3.1 31.5 8.5 46.2 2.7 7.4 6.9 14 12.7 18.9 3.5-1.1 7-2.3 10.3-3.8-1.9-10.7 2.9-21 6.6-31.1 2.5-7 5.6-14 3.4-21.5-2.4-7.8-13.2-6.9-17.8-12.3-4.2-5.1 2.3-14.1 5.3-18 6-7.7 12.4-9.5 21.6-6.8 16.5 4.9 19-20.3 32.9-20.8 4.4-0.2 8 4.1 11.6 6 3.4 1.8 6.1 2.2 9.8 1.8 3.2-0.3 6.5-3.2 8.8-5.2 4.6-4 9.3-7.2 14.6-10.2 2-1.1 5.8-2.6 8.1-4.4q0.3-3-0.1-6.2z"/><path class="n" d="m286.1 5.7c-13.2-11.5-37-1.2-50.6 4.6-9.9 4.3-19.6 9-28.8 14.5 2.2 1.3 4.3 3.3 5.8 4.8 1.4 1.4 2.7 2.9 4 4.4 9.1-3.9 18.2-7.7 27.6-10.8 5.8-0.9 12.8-0.4 10.7 7.1-2.3 8.6-7 16.2-12 23.4-11.8 17-28.3 31.2-44.1 44.3-16.4 13.7-34.3 25.6-52.8 36.3-24.9 14.2-52.1 27.4-80.2 34-4.6 1-20.4 5.2-21.9-2-1.8-8.6 5.2-18.7 9.9-25.1 2.6-3.6 5.2-7 7.8-10.5-1.2-3.6-2-7.2-2.4-11-6.5 4.5-12.8 9.3-18.8 14.5-9.6 8.2-21.1 17.3-29 27.1-5.6 7-9.4 14.4-9.7 25.3 1.3 5.4 4.1 8.7 6.8 11.1 15.4 13.2 40.9 5.8 58.4 1.4 44.3-11.1 85.1-35.7 121.7-62.2 28.1-20.4 54.8-43.4 77.2-70.1 10-11.9 38.1-45.6 20.4-61.1z"/><path class="o" d="m28.3 167.1c3-17.4 17.3-30.3 31.9-41.2-0.2-0.6-0.2-1.1-0.4-1.7-2.9 2.4-5.6 5-8.5 7.3-7.1 6-14 12.2-20 19.3-5.6 6.8-14.4 16.4-14.6 25.9-0.1 7.2 5.2 12.2 12.1 13.8 8.7 2 18.3 0.5 27-1 9.8-1.7 19.4-4.2 28.7-7.4 18.8-6.4 36.8-15 54.1-24.5 50.7-27.8 101.7-60.8 131.4-111.8 4.3-7.4 13.1-21 9.1-30-5-11.3-23.6-2.8-31.3 0.6q-3.6 1.5-7.1 2.9c4.3-1.1 8.7-2 13.1-2.2 11.4-0.6 17.2 7 13.5 17.5-4.8 13.7-15.3 25.6-24.7 36.3-8.7 9.8-17.9 19.3-27.7 28.3-19.8 18.2-43.5 33.6-67 46.7-25.9 14.6-54.7 28.5-84.3 33.6-9.7 1.6-38.4 5.5-35.3-12.4z"/><path class="p" d="m43.8 166.3c-1.8-8.6 5.2-18.7 9.9-25.1 2.6-3.6 5.2-7 7.8-10.5q-0.5-1.5-0.9-3c-11.5 8.7-22.4 18.5-27.9 31.4-2.9 6.9-4.5 15.4 4.2 18.4 6.5 2.1 13.7 1.8 20.3 1 20.8-2.5 41.4-10.5 60.4-19.1 22-10 43-22.1 62.8-35.9 28.9-20.1 56.9-44.3 76.8-73.8 5-7.4 17.4-27 1.5-30.2-13.6-2.7-29.3 5.8-41.9 10.2q-1.6 0.6-3.1 1.2 1.4 1.5 2.8 3.1c9.1-3.9 18.2-7.7 27.6-10.8 5.8-0.9 12.8-0.4 10.7 7.1-2.3 8.6-7 16.2-12 23.4-11.8 17-28.3 31.2-44.1 44.3-16.4 13.7-34.3 25.6-52.8 36.3-24.9 14.2-52.1 27.4-80.2 34-4.6 1-20.4 5.2-21.9-2z"/><path class="p" d="m263.4 3.9c0 0 28.8-6.9 24.8 22.6 0 0-1.8 16.4-39.1 56 0 0 35.7-38 36.9-56.8 1.2-18.9-12.5-21.5-22.6-21.8z"/><path class="q" d="m59.1 119.7l-9.1 6.8c-1.5 1.2-3 2.4-4.5 3.6l-4.4 3.6c-1.4 1.2-2.9 2.4-4.3 3.7l-4.3 3.7c-2.9 2.4-5.8 4.9-8.5 7.5q-2.2 1.9-4.2 3.9c-1.3 1.3-2.7 2.7-3.9 4.1-1.4 1.3-2.5 2.8-3.8 4.2-0.6 0.7-1.1 1.5-1.7 2.3q-0.9 1.1-1.7 2.3c-1 1.5-1.9 3.2-2.8 4.9-0.4 0.8-0.8 1.7-1.1 2.5l-1 2.7c-0.5 1.8-1 3.6-1.2 5.5-0.4 1.8-0.4 3.7-0.6 5.6v-0.1c0.6 2.3 1.5 4.6 2.8 6.6 1.4 1.9 3.1 3.7 5.1 5.1 3.9 3 8.4 4.8 13.2 5.7 4.8 0.9 9.7 0.9 14.6 0.5 4.8-0.4 9.7-1.2 14.5-2.3 4.7-1 9.5-2.2 14.3-3.5l14.1-4.1c2.4-0.6 4.7-1.6 7-2.4l6.8-2.5c4.7-1.6 9.1-3.7 13.6-5.7l6.8-3 6.5-3.3c4.4-2.2 8.8-4.3 13.1-6.8 4.2-2.5 8.6-4.8 12.7-7.3l12.6-7.8 12.2-8.2c4.1-2.7 8.1-5.6 12.1-8.4 8-5.6 15.9-11.6 23.6-17.6 3.9-3.1 7.6-6.2 11.4-9.3 3.7-3.2 7.5-6.4 11.1-9.7 7.3-6.6 14.4-13.4 21.2-20.5l5-5.3 4.9-5.6c3.3-3.6 6.5-7.4 9.5-11.2 6.1-7.7 11.9-15.7 16.2-24.5 2-4.4 3.8-9 4.3-13.8 0.3-2.4 0.3-4.9-0.3-7.2-0.5-2.4-1.6-4.6-3.2-6.4-0.3-0.5-0.8-0.9-1.2-1.3l-0.6-0.6-0.7-0.6c-1-0.7-2-1.5-3.1-2l-1.6-0.8-1.7-0.5c-1.1-0.5-2.3-0.7-3.5-0.9-4.8-0.8-9.7-0.4-14.5 0.6-9.6 2-18.7 5.8-27.8 9.7-9 3.9-17.9 8.2-26.3 13.2 8.4-5.1 17.2-9.5 26.2-13.5 9-3.9 18.1-7.9 27.7-10 4.9-1.1 9.9-1.6 14.8-0.8 1.3 0.3 2.5 0.4 3.6 0.9l1.8 0.6 1.7 0.8c1.2 0.6 2.2 1.3 3.1 2.1l0.8 0.5 0.7 0.7c0.4 0.4 0.9 0.9 1.3 1.4 1.6 1.9 2.8 4.2 3.4 6.7 0.6 2.4 0.6 5 0.3 7.5-0.5 4.9-2.3 9.7-4.4 14.1-4.3 9-10 17-16.2 24.8-3 3.8-6.2 7.6-9.4 11.3l-4.9 5.5-5.1 5.4c-6.7 7.2-13.8 14-21.1 20.7-3.6 3.3-7.4 6.5-11.1 9.7-3.8 3.1-7.6 6.3-11.4 9.4-7.8 6.1-15.6 12-23.6 17.7-4.1 2.9-8 5.8-12.1 8.5l-12.3 8.2-12.6 7.7c-4.2 2.6-8.6 4.9-12.9 7.3-4.2 2.5-8.7 4.6-13.1 6.8l-6.6 3.3-6.8 3c-4.5 1.9-8.9 4-13.6 5.6l-7 2.6c-2.3 0.8-4.6 1.7-7 2.3l-14.2 4.1c-4.7 1.2-9.5 2.5-14.3 3.5-4.8 1-9.7 1.9-14.7 2.2-4.9 0.4-9.9 0.4-14.8-0.6-1.2-0.1-2.4-0.5-3.6-0.9-1.2-0.2-2.4-0.7-3.5-1.2-1.2-0.4-2.3-1.1-3.4-1.7-1.1-0.6-2.1-1.3-3.1-2.1-2-1.4-3.8-3.3-5.2-5.3-1.4-2.1-2.3-4.5-2.9-6.9v-0.1c0.1-2 0.2-3.9 0.5-5.8 0.3-1.9 0.8-3.7 1.3-5.6l1-2.7q0.6-1.3 1.2-2.6c0.9-1.7 1.8-3.4 2.9-4.9q0.8-1.2 1.7-2.4c0.6-0.7 1.2-1.5 1.8-2.2 1.3-1.4 2.5-2.9 3.8-4.2q2-2.1 4-4.1 2.1-2 4.2-3.9c2.8-2.5 5.7-5 8.6-7.4l4.4-3.7c1.5-1.2 2.9-2.4 4.4-3.6l4.4-3.6c1.5-1.2 3-2.4 4.5-3.5z"/><path class="r" d="m163.8 141.2c-8.1 2.6-15.2 7.8-22.5 12.1q-11.8 7.1-24 13.2c-16.8 8.5-35.6 14.3-54.2 17.6-8.6 1.4-41.6 8-40.2-7.5 0.8-8.6 8.7-17.6 13.6-24.2 5.5-7.2 11.1-14.1 17-21 0.9-1.1-0.6-2-1.6-1.2-15.1 12.2-38 26.8-42.9 47-5 20.7 18.5 23.9 33.4 23.4 22.6-0.7 43.6-9.2 64-18.2 10.8-4.8 21.4-10.3 31.7-16.2 9.7-5.6 20.7-11.1 28.3-19.3 2.2-2.3 1.4-7.1-2.6-5.7z"/><path fill-rule="evenodd" class="s" d="m247.1 96.2l0.3 3.9c0.1 1.3 0.1 2.6 0.1 3.9q0.1 2 0 3.9l-0.2 3.9q0 0 0 0v0.1-0.1l-0.5 4.7q0 0.1 0 0.1 0 0 0 0.1l-0.3-0.1q0 0 0 0.1 0 0 0.1 0.1c0.1 0 0.2 0 0.2-0.1-0.4 3.8-1.2 7.7-2.1 11.5-1 3.8-2.1 7.5-3.6 11.2-1.3 3.6-3 7.2-4.8 10.6-1.9 3.5-4 6.8-6.2 10-2.3 3.2-4.8 6.3-7.5 9.2-1.2 1.4-2.7 2.8-4 4.2-1.4 1.4-2.9 2.6-4.4 4-3 2.5-6.2 4.9-9.4 7-3.3 2.2-6.7 4.2-10.2 5.9l-2.7 1.3-2.7 1.1c-1.7 0.9-3.7 1.5-5.5 2.2-3.7 1.3-7.5 2.4-11.3 3.2-3.9 0.8-7.8 1.4-11.7 1.7-2 0.2-4 0.3-5.9 0.4-1.9 0-3.9 0.1-5.9-0.1-2 0-3.9-0.2-5.9-0.3l-2.9-0.4-1.5-0.2-1.5-0.2c-1.9-0.4-3.8-0.7-5.8-1.2-1.9-0.4-3.8-0.9-5.7-1.5-3.7-1.1-7.5-2.4-11.1-4-3.5-1.4-6.9-3.3-10.2-5.2-7.7 3.3-15.6 6.3-23.7 8.9-4.1 1.2-8.2 2.5-12.3 3.5-4.2 1.1-8.3 2.2-12.5 3.1-8.3 1.9-16.8 3.5-25.5 3.3-4.3-0.1-8.6-0.8-12.8-2.2-4.1-1.4-7.9-3.8-11-6.9-3.1-3.1-5.3-7.3-5.8-11.7-0.4-4.5 1.1-8.8 2.9-12.7 1.8-3.9 4.1-7.6 6.8-11 2.7-3.3 5.6-6.5 8.7-9.4 3.1-3 6.3-5.8 9.5-8.6l9.8-8.3c3.3-2.8 6.6-5.5 10-8.1 3.3-2.5 6.7-5 10.2-7.4q-0.8-5.3-1.1-10.6-0.2-5.5 0.2-11c0.6-7.3 1.9-14.5 4.1-21.5q1.7-5.2 3.9-10.3c0.7-1.6 1.6-3.3 2.4-4.9 0.8-1.6 1.7-3.2 2.6-4.8l2.9-4.6q1.6-2.3 3.2-4.5 3.3-4.4 7-8.4c5-5.3 10.7-10.1 16.8-14.1q2.3-1.5 4.7-2.8c1.6-0.9 3.2-1.8 4.8-2.6 3.3-1.6 6.7-3 10.2-4.2 1.7-0.6 3.4-1.2 5.2-1.7l2.6-0.8 2.7-0.6c1.7-0.5 3.5-0.8 5.3-1.1 1.8-0.4 3.7-0.6 5.5-0.8 3.6-0.5 7.3-0.7 10.9-0.7 1.9 0 3.7 0.1 5.5 0.1l5.4 0.5q0.1 0 0.1 0l1.5 0.2 0.8 0.1h0.4 0.2l0.1 0.1h0.1c1.7 0.3 3.4 0.5 5.1 0.9 1.7 0.4 3.4 0.7 5.1 1.2l2.5 0.6c0.9 0.2 1.7 0.6 2.5 0.8l2.5 0.8 2.5 0.9c1.6 0.6 3.2 1.3 4.8 2 1.6 0.7 3.2 1.5 4.7 2.3 1.6 0.7 3.1 1.6 4.6 2.5 0.8 0.4 1.5 0.9 2.2 1.3l1.9 1.2c1.5-1 3.2-1.9 4.7-2.8 1.7-1 3.4-2 5.2-2.9l5.2-2.7c1.7-0.9 3.5-1.7 5.2-2.5 3.6-1.8 7.2-3.3 10.7-4.8 3.6-1.6 7.3-3.1 10.9-4.4 7.4-2.7 15-4.9 23-5 3.9-0.1 7.9 0.5 11.6 2.2 3.6 1.6 6.8 4.3 8.7 7.9 2 3.6 2.4 7.7 1.9 11.6-0.5 4-1.7 7.8-3.3 11.3-3.1 7.3-7.4 13.9-12 20.2-4.6 6.2-9.6 12.2-14.8 18.1-1.2 1.5-2.5 2.9-3.8 4.4q-2 2.2-4 4.3c-2.7 2.8-5.4 5.6-8.1 8.4q0.3 1.9 0.6 3.9zm-0.3 20.3q0-0.1-0.1-0.1-0.1-0.1-0.2 0.1l0.3 0.1zm-142.5 70.6q0.1-0.1 0.3-0.2h-0.7q0.2 0.1 0.4 0.2zm-45.8-67.5q0 0.1 0 0.2l0.2-0.4q-0.1 0.1-0.2 0.2zm104.9-109.5c-0.2 0-0.4 0.1-0.5 0.3q0 0.1 0 0.2l0.5-0.5zm41.6 14.9q-0.1 0.1-0.3 0.2h0.7zm41.1 63.3q0 0 0 0l-0.1 0.1q0.1 0 0.1-0.1zm0.8 7.9l-0.4-3.9q-0.3-2-0.6-4 0 0 0-0.1c2.7-2.8 5.5-5.5 8.1-8.4q2-2.1 3.9-4.3c1.3-1.5 2.7-2.9 3.9-4.4 2.6-3 5.1-5.9 7.5-9q3.7-4.5 7.1-9.2c4.6-6.4 8.8-13 11.8-20.2 1.5-3.5 2.6-7.3 3.1-11.1 0.4-3.8 0-7.8-1.9-11.1-1.8-3.3-4.9-5.9-8.3-7.4-3.5-1.6-7.4-2.2-11.2-2.1-7.7 0.2-15.3 2.5-22.5 5.2-3.7 1.3-7.3 2.8-10.8 4.4l-5.4 2.4q-2.7 1.1-5.3 2.4c-1.7 0.8-3.5 1.6-5.2 2.5l-5.2 2.6c-1.8 0.9-3.4 1.9-5.1 2.9-1.7 0.9-3.4 1.8-5 2.9-0.3 0.2-0.5 0.1-0.7 0l-2.2-1.4c-0.8-0.4-1.5-0.9-2.2-1.3-1.5-0.9-3-1.8-4.5-2.5-1.6-0.8-3.1-1.6-4.7-2.3-1.6-0.7-3.1-1.4-4.8-1.9l-2.4-1-2.4-0.8c-0.9-0.2-1.7-0.5-2.5-0.7l-2.5-0.7c-1.6-0.5-3.3-0.8-5-1.2-1.7-0.4-3.4-0.6-5.1-0.9l-3-0.4-5.5-0.5c-1.8-0.1-3.6-0.2-5.4-0.2-3.6 0-7.2 0.2-10.8 0.6-1.8 0.2-3.7 0.4-5.4 0.8-1.8 0.3-3.6 0.6-5.4 1l-2.6 0.7-2.6 0.7c-1.8 0.5-3.5 1.1-5.2 1.7-3.5 1.1-6.8 2.5-10.1 4.1q-2.5 1.2-4.8 2.5-2.4 1.3-4.7 2.8c-6.1 4-11.7 8.6-16.7 13.9q-3.8 4-7 8.4-1.6 2.2-3.1 4.4l-2.9 4.7c-0.9 1.6-1.8 3.1-2.6 4.7-0.8 1.7-1.7 3.3-2.4 5-1.4 3.3-2.7 6.7-3.8 10.2-2.1 6.9-3.4 14.1-4 21.3q-0.3 5.5-0.1 10.9 0.3 5.4 1.1 10.8c0.1 0.2 0 0.4-0.2 0.5-3.4 2.4-6.9 4.9-10.2 7.5-3.4 2.6-6.7 5.4-9.9 8.2l-9.7 8.3c-3.2 2.8-6.4 5.6-9.5 8.6-3 2.9-5.9 6.1-8.5 9.4-2.6 3.3-4.9 6.9-6.6 10.8-1.7 3.8-3 7.9-2.7 12 0.5 4 2.4 7.9 5.4 10.8 2.9 2.9 6.5 5.1 10.5 6.5 3.9 1.3 8.1 2 12.3 2.1 8.5 0.2 16.9-1.3 25.2-3.3 4.1-0.9 8.3-2 12.4-3.1 4.1-1 8.2-2.2 12.2-3.5 8.1-2.6 16.1-5.6 24-8.9 0.2-0.1 0.4-0.1 0.6 0 3.4 1.9 6.8 3.8 10.4 5.3 3.6 1.5 7.2 2.8 10.9 3.9 1.9 0.5 3.8 1.1 5.7 1.5 1.9 0.4 3.8 0.8 5.7 1.1l1.4 0.3 1.4 0.1 2.9 0.4c2 0.1 3.9 0.3 5.8 0.4 2 0.1 3.9 0.1 5.9 0.1 1.9-0.1 3.8-0.1 5.8-0.3 3.8-0.3 7.7-0.9 11.5-1.6 3.8-0.8 7.5-1.9 11.2-3.1 1.9-0.6 3.7-1.2 5.5-2l2.7-1.2 2.6-1.2c3.5-1.7 6.9-3.6 10.1-5.7 3.3-2.2 6.4-4.4 9.4-6.9 1.5-1.3 3-2.6 4.4-3.9 1.4-1.4 2.8-2.7 4.1-4.2 2.7-2.8 5.1-5.8 7.4-9 2.3-3.1 4.3-6.5 6.2-9.9 1.9-3.4 3.6-6.9 5-10.6 1.4-3.6 2.6-7.3 3.6-11.1 0.9-3.7 1.7-7.5 2.2-11.4q0 0 0 0l0.5-4.8q0 0 0-0.1l0.2-3.8q0.1-2 0.1-3.9c0-1.3 0-2.6-0.1-3.9zm-80.5-84.7h-0.1q0.1 0 0.1 0zm-3.1-0.4zm0.5-0.2q0.1-0.1 0.1-0.3l-0.6 0.5zm83 105.8q0 0 0 0zm0.2-4.9v-0.1z"/><path fill-rule="evenodd" class="s" d="m216.5 34c6.2-3 12.4-5.9 18.9-8.3 3.3-1.1 6.6-2.2 10-2.8 1.7-0.3 3.5-0.5 5.3-0.3q1.4 0.1 2.7 0.7c0.4 0.3 0.8 0.6 1.2 0.9 0.2 0.2 0.3 0.5 0.5 0.7 0.2 0.2 0.3 0.5 0.3 0.7 0.7 1.8 0.7 3.6 0.5 5.4-0.3 1.7-0.7 3.4-1.3 5.1-1.2 3.3-2.8 6.4-4.6 9.3-1.9 3-3.9 5.8-6 8.5-2 2.8-4.2 5.4-6.6 8-0.2 0.3-0.6 0.3-0.9 0.1q-0.1-0.2-0.2-0.3l-0.7-2c-0.3-0.7-0.6-1.3-0.9-1.9q-0.4-1-0.9-1.9c-0.4-0.7-0.7-1.3-1.1-1.9-0.7-1.2-1.5-2.5-2.3-3.6q-0.6-0.9-1.2-1.8c-0.4-0.6-0.8-1.1-1.3-1.7-3.4-4.6-7.3-8.9-11.4-12.9zm0 0c2.2 1.8 4.3 3.9 6.3 5.9 2 2.1 4 4.2 5.8 6.5 0.4 0.5 0.9 1.1 1.3 1.7q0.7 0.8 1.3 1.7 1.3 1.8 2.5 3.6c0.4 0.6 0.7 1.3 1.1 1.9q0.5 0.9 1 1.9c0.3 0.7 0.7 1.3 1 2l0.4 1c4.2-4.9 8.1-10.1 11.4-15.6 1.8-2.9 3.4-5.9 4.6-9 0.5-1.6 1-3.2 1.2-4.8 0.2-1.6 0.2-3.3-0.3-4.8-0.4-1.3-2-1.9-3.6-2.1-1.6-0.2-3.3 0-4.9 0.2-3.3 0.6-6.6 1.5-9.9 2.5-3.2 1.1-6.4 2.3-9.6 3.5zm20.6 26.3q-0.3 0.4-0.7 0.8l1.1 0.2z"/><path fill-rule="evenodd" class="s" d="m61.5 130.7q0.8 2.3 1.7 4.5c0.6 1.5 1.2 2.9 1.9 4.4l1 2.2c0.3 0.7 0.7 1.4 1 2.1 0.8 1.5 1.4 2.9 2.2 4.3l2.3 4.2c0.8 1.4 1.7 2.7 2.6 4l1.3 2c0.4 0.7 0.9 1.3 1.4 1.9l2.9 3.8v0.1c0.3 0.2 0.2 0.7-0.1 0.9q-0.1 0.1-0.2 0.1-4.7 1.7-9.4 3.1c-3.2 0.9-6.4 1.7-9.7 2.3-3.3 0.5-6.7 0.9-10.1 0.5-1.7-0.2-3.4-0.6-5-1.6-0.3-0.3-0.7-0.5-1-0.9-0.2-0.2-0.3-0.2-0.5-0.5l-0.4-0.5c-0.2-0.4-0.4-0.9-0.6-1.3-0.1-0.4-0.3-0.9-0.3-1.3-0.2-1.8 0-3.5 0.4-5.2 0.4-1.6 1-3.2 1.7-4.7 1.3-3.1 3-6 4.8-8.8 1.7-2.8 3.7-5.5 5.7-8.1 2-2.6 4.1-5.1 6.4-7.5zm0 0c-4.2 5.1-8 10.5-11.4 16.1-1.6 2.8-3.2 5.7-4.4 8.7q-0.9 2.3-1.5 4.6c-0.4 1.6-0.6 3.2-0.3 4.6 0 0.4 0.2 0.8 0.2 1.1 0.2 0.4 0.2 0.6 0.5 1l0.3 0.5 0.4 0.3c0.2 0.3 0.5 0.5 0.8 0.7 1.3 0.8 2.8 1.2 4.4 1.4 3.2 0.3 6.4-0.1 9.6-0.6 6.1-1.1 12.2-2.8 18.1-4.9l-2.4-3.1c-0.4-0.6-1-1.3-1.4-2l-1.2-2c-0.9-1.4-1.8-2.7-2.5-4.2l-2.2-4.3c-0.4-0.7-0.7-1.4-1.1-2.1l-0.9-2.2c-0.4-0.8-0.7-1.5-1-2.3l-0.9-2.2q-0.9-2.2-1.6-4.5c-0.6-1.5-1-3.1-1.5-4.6zm16.7 33.5l0.5 0.8 0.3-1.1q-0.4 0.2-0.8 0.3z"/><path class="s" d="m79.3 164.6c0 0 0.7-0.3 2-0.7 1.3-0.5 3.2-1.2 5.7-2.2 2.4-0.9 5.3-2.1 8.7-3.4 3.3-1.5 7.1-3 11.1-4.9q3.1-1.4 6.4-2.8 3.2-1.6 6.7-3.3 3.5-1.6 7-3.5 3.6-1.8 7.3-3.7 3.7-2 7.5-4.1c2.5-1.4 5.1-2.7 7.6-4.3 5-3 10.1-5.9 15.1-9.3q3.7-2.4 7.5-4.8c2.4-1.6 4.8-3.3 7.2-5 2.4-1.7 4.8-3.3 7.1-5q3.4-2.7 6.7-5.2c2.2-1.7 4.4-3.4 6.5-5.1q3-2.6 6-5.1 2.9-2.4 5.6-4.8c1.9-1.5 3.5-3.2 5.1-4.7 3.2-3.1 6.2-5.9 8.8-8.4 2.5-2.7 4.7-5 6.4-6.9 3.6-3.8 5.6-5.9 5.6-5.9 0 0-1.9 2.2-5.3 6.1-1.8 2-3.9 4.4-6.3 7.1-2.5 2.6-5.4 5.5-8.6 8.6-1.6 1.6-3.2 3.3-5 4.9q-2.7 2.4-5.6 4.9-2.9 2.5-5.9 5.2c-2.1 1.8-4.3 3.4-6.5 5.1q-3.3 2.6-6.7 5.3c-2.3 1.7-4.7 3.4-7.1 5.1-2.3 1.7-4.7 3.4-7.2 5.1q-3.7 2.4-7.5 4.9c-5 3.3-10.2 6.2-15.2 9.2-2.5 1.5-5.1 2.9-7.6 4.2q-3.8 2.1-7.5 4.1c-5 2.5-9.8 5-14.5 7.1q-3.5 1.6-6.8 3.1-3.3 1.4-6.4 2.7c-4.1 1.8-7.9 3.3-11.3 4.6-3.4 1.3-6.4 2.4-8.8 3.2-2.5 0.9-4.4 1.5-5.8 1.9-1.3 0.4-2 0.7-2 0.7z"/><path class="t" d="m95.5 30.7c0 0-59.3 49.8-22.1 116.2 0 0-28.7-64.2 22.1-116.2z"/><path class="u" d="m244.6 109.1c0 0-16.2 68.3-71.6 84.6 0 0 59.1-6.2 71.6-84.6z"/></svg>
