<svg xmlns="http://www.w3.org/2000/svg" version="1.2" viewBox="0 0 210 211" width="210" height="211"><style>.a{fill:#743f0c}.b{fill:#fed985}.c{opacity:.5;fill:#fff1d4}.d{opacity:.5;mix-blend-mode:color-dodge;fill:#fff1d4}.e{fill:#fff1d4}.f{fill:#fdbc49}.g{opacity:.4;mix-blend-mode:multiply;fill:#bb7320}.h{opacity:.5;mix-blend-mode:multiply;fill:#b86d19}.i{opacity:.3;mix-blend-mode:multiply;fill:#bb7320}</style><path class="a" d="m96.9 1.1c-57.4 4.5-100.2 55-95.7 112.7 4.6 57.7 54.7 100.8 112 96.2 57.4-4.5 100.2-55 95.7-112.7-4.5-57.7-54.7-100.8-112-96.2z"/><path class="b" d="m113.1 208.4c-56.6 4.5-106-38-110.5-94.9-4.5-57 37.8-106.8 94.4-111.3 56.5-4.5 106 38.1 110.5 95 4.4 57-37.8 106.7-94.4 111.2z"/><path class="c" d="m164.6 66.3c-5.1 7.4-5.3-13.3-8.1-16.1-1.7 2.7-12.4-3.5-3-5.8-4.5-2.5-17.6-14.9-22.2-13.7-2.7 0.8 0.2 5.5-6.2 4.3-3.6-0.7-15.3 0.8-11.8-4.8-7.8-2.4-12.7 4.3-19.9 5.4-6.1 1-14.4-1-19.5 3.6-3.2 3-2.5 7.5-6 10.1-2.2 1.6-6.1 2.5-6.2 6-0.2 4.3-1.7 18.9-5.9 7.5-7.2 6.4-14.8 24.7-8.9 33.8q1.2-3.7 3.7-2.6c1.6 7.8 0.6 17.7 7.8 22.9 1.7-14.2 21.6 12.8 11.8 10.8 3.6 8 25.9 20.1 47.2 15.4-9.9-6.1 8.2-1.7 9.4-1.8 8-0.6 15.9-7.2 20.6-13.3-9.8-3.2 1.6-8.9 6.4-12.1 6.8-4.5 12.6-12.4 13.9-20.6q-1.7 2.8-3.8 1.5c-0.5-8.2 9.4-24.1 0.7-30.5-0.5 0.8 4.8 3.6 0 0z"/><path class="d" d="m92.4 41.6c-3.1 1.3-7.8 2.6-9.5 5.7q-3.7 1.4-3.2 5.1c1.1 3.2 1.2 6.6-0.3 9.7-2.1 4.2-6.7 6.5-7.5 11.1-0.5 2.4-1.8 14.4 1.8 14.7 4.8 0.4 3.5-2.2 5.6 3.1 2.2 5.7 5 7.1 9.4 10.5 4.4 3.3-3.9 4.4-0.1 7.8 4.7 4.2 13.5 4.5 19.3 3.6-4.2-6.1 14.5-4.9 16.7-5.4 5.5-1.3 2.8-2.5 5.8-5.3 2.8-2.6 11.1-3.8 10.9-8.7-9.7 4.9 2.5-12.2 3.1-14.8 1.2-5.6 1.6-25.8-7-27.1 0.1 7-4.1 0.8-5.8-1.6-3.4-5.3-8.5-8-14.6-8.7-7.1-0.7-12.7 0.1-18.7 3.8-8.5 5.4-5.1 1.1-5.9-3.5-2.3 0.9 0.3 1.7 0 0z"/><path class="e" d="m173.2 31.3c-3.8-5.1-9.1-9.6-14.3-13.2-5.6-3.8-11.5-7.1-17.9-9.5-13.1-5.1-27.3-6.3-41.3-5.1-13.2 1.1-26.8 3.8-38.8 9.4-11.1 5.1-21.2 12.6-29 22.1-3.3 4-6 8.6-8.3 13.2-0.1 0.3 0.3 0.5 0.5 0.2 6.4-11 16-20.3 26.6-27.2 11.3-7.5 23.9-11.4 37.1-13.6 14.3-2.5 29-3 43.2 0.5 13.7 3.3 26.9 10.5 37.5 19.9 1.4 1.3 2.7 2.6 4.1 3.8 0.3 0.3 0.8-0.1 0.6-0.5z"/><path class="f" d="m207.5 97.2c-2.3-29.5-16.8-55.2-38-72.4q1.7 1.8 3.5 3.6c1.1 1.1 2.2 2.3 3.2 3.5 0.9 1.2 1.6 2.4 2.5 3.6 0.9 1.3 2.5 3.6 1.4 5.1-0.2 0.4-0.7 0.8-1.2 0.7-0.4-0.1-1.4-1-1.7-0.8-1.1 0.8-0.9 2.6-0.4 3.6 0.6 1.1 1.4 2.1 2.2 3 1.4 1.5 3.2 2.8 4.5 4.4 0.1 0.1 0.1 0.2 0 0.3-3 2.9-8 3.2-11.7 1.6-1.9-0.8-2.9-2-3.8-3.7-0.6-1.2-1.4-3.1-2.7-3.7 0.2 2.7 0.9 5.4 2 7.9 1.2 2.4 2.8 6.5 5.2 7.9 2.5 1.5 4.2 1.1 6.9 0.5 1.3-0.2 2.4-1.2 3.6-1.6-1.5 2.7-0.9 6.9-0.3 10.1 0.4 2.7 2.2 11.7 5.5 14.3 0.7 0.6 1.3 0.3 1.7-0.2-0.6 1.3-1.4 2.5-2.6 4-1.6 1.9-3 4.1-3.8 6.5-0.4 1.2-0.7 2.4-0.8 3.7 0 0.5 0.5 3.4 0.3 3.7 2.4-2.8 3.5-6.5 5.3-9.7 1.8-3 4.6-5.8 8.3-5.7 6.9 0.3 8.4 10.4 6 15.4 0 0.1-0.2 0.1-0.3 0.1-3.1-1.8-6.3 1-8 3.5-1.9 2.8-3.5 6.3-3.3 9.7 0 1.4 0.4 2.9 1.6 3.6 1.9 1.1 3-0.5 4.6-1.3 1.1-0.5 2 0.1 2.2 1.3 0.3 1.2-0.7 2.8-1.2 3.7-0.8 1.5-1.6 3.1-3.2 3.8-1.7 0.7-3.2-0.4-4.9-0.4-3.1 0.1-5.1 2.7-7.3 4.7-1 0.9-2 1.9-3.1 2.8-2.6 3.5-5 7.1-6.5 11.2-0.6 1.7-1 3.3-1.2 5.1-0.1 1.1-0.2 2.1-0.7 3.1-1 2.3-3.2 4-4.3 6.3 1.9-0.1 4.9 0 4.8 2.4-0.2 2.7-2.8 5.1-4.6 6.9-2.6 2.5-5.5 4.9-8.7 6.6-0.9 0.5-2 1.1-3.1 1-2.4-0.2-5.4-2.1-7.7-1.4-2 0.7-3.1 2.5-2.5 4.4 0.2 0.6 0.4 1.2 0.3 1.8-0.2 1.8-2.3 3.2-3.7 4.1-5 3.5-11.1 5.2-17.1 6.3-6 1.1-12.6 2.1-18.8 1.4-2.1-0.3-5.1-0.6-6.7-2.2-1.4-1.4-2.5-3-4.7-3.1-1.1 0-2.1 0-3.1 0.1 1.4 2.6-0.3 4.4-3.4 4.9-3.4 0.4-8.2-0.3-10.7-3-0.9-1.1-1-2.1-0.4-3.3 1.4-2.8 0.7-5.3-1.5-7.4-3.3-3.1-7.7-5.1-12-6.6-0.6-0.1-1.3-0.3-1.8-0.4-2.6-0.6-5-0.4-7.7-0.1-1.3 0.2-2.7 0.3-4.1 0-1-0.1-1.4-1-2-1.6-1.9-1.9-3.8 2.2-5.2 2.9-0.6 0.2-1.7-0.7-2.1-1q-1.5-1.2-3.1-2.4c-2-1.6-4.4-3.6-5.3-6.2-0.5-1.2-1.4-3.2 0-4.1 1.5-1.1 2.1-2.7 2.3-4.5 0.2-3.6-0.7-7.3-1.9-10.7-1.4-3.8-3.3-7.5-5.7-10.8-1.9-2.4-4.3-5.3-7.4-6.1-3.3-0.7-5.4 1.9-6.6 4.6-0.1 0.2-0.3 0.2-0.4 0-3-5.1-4.9-12.4-2.3-18 0.1-0.2 0.4-0.2 0.5 0 0.4 1.1 1.7 1.5 2.4 2.4 2.9-2 3.2-6.7 2.6-9.9-0.6-3.1-2.5-7.2-6.3-6.4 0.3 1.7 0 3.3-1 4.8-0.1 0.1-0.2 0.1-0.4 0-2.1-1.8-2.8-4.7-3-7.3-0.3-3.6 0.2-7.3 1-10.8 1.9-9.4 5.4-18.8 9.7-27.4 3.2-6.6 6.9-13.2 11-19.4 1.7-2.7 3.7-5.3 5.6-8.1-20.4 20.7-32 49.8-29.6 81.1 4.5 56.9 53.9 99.4 110.5 94.9 56.6-4.5 98.8-54.2 94.4-111.2z"/><path class="g" d="m25.8 159.6c2.8 1.3 6.6 1 6.7-3.7 0.2-4.7-1.2-9.4-2.8-13.8-1.5-4.3-4.5-9.4-8.6-11.8-2.3-1.4-4.7-1.7-6.1 1.1q-0.8 1.7-1.3 3.5c0.7-0.9 1.6-1.6 2.6-1.8 1.8-0.4 3.5 0.6 3.3 2.6-0.1 1.9-0.2 3.5 0.4 5.3 0.6 2 1.4 4 2.4 5.9 1.2 2.2 2.3 3.7 4.7 4.8 0.9 0.4 1.9 0.9 2.2 2 1.4 6-0.6 5.3-3.5 5.9z"/><path class="g" d="m57 181.4c2.1 1.7 4.6 3 7.2 3.7 1.2 0.4 6.4 1.7 6.7-0.4 0.2-1.7-1.8-3.7-2.9-4.7-3-2.9-6.7-5.7-10.8-6.4-1.4 0.2-2.6 0.7-3.2 1.8-1.1 2.1 1.4 4.7 3 6z"/><path class="g" d="m177.5 143.4c-1.2 3.7-2.2 7.6-1.5 11.4 0.2 1 0.7 3.4 2.4 2.8 0.9-0.3 1.6-0.9 2.2-1.7q0.8-1.1 1.5-2.3c-1.3 0.6-2.6 0.7-3.1-1-1-3.8 2.9-5.2 4.4-8 1.2-2.4 1.8-4.9 2.7-7.3 0.5-1.4 1-2.8 2.1-3.8 1.2-1.2 2.1-0.3 2.6 0.9 1-2 2.2-5.1 0.7-5.4-0.6-0.2-1.4-0.2-2.1 0q-0.6 0.2-1.3 0.4c-3.3 2.9-6.5 6-8.9 9.8-0.6 1.4-1.1 2.8-1.7 4.2z"/><path class="g" d="m201.3 109c0.5-1.2 1-2.3 1.1-3.6-3.6-1.1-7.1 4.6-8.3 7.3-0.5 0.8-2.4 7.2 0 6.4 0.7-0.2 1.5-0.7 2.3-1.3-0.3-0.2-0.4-0.5-0.3-0.8 0.7-2.6 1.8-7.7 5.2-8z"/><path class="g" d="m3.6 88.6q0.2-1.2 0.4-2.3-0.2 1.2-0.4 2.3z"/><path class="g" d="m207.5 97.2c-1.3-15.9-6-30.6-13.5-43.6 3.4 6.6 6.1 13.5 7.9 20.9 1.8 7.6 2.8 15.4 3.2 23.2 1.4 21.7-6.9 42.2-19 60-27.5 41-79.3 52.5-123.4 34.5-5.5-2.2-11.2-4.6-16.4-7.7-11.2-6.7-21-16-28.5-26.7-7.6-10.9-11.2-24.1-13.4-37-1.1-6.6-1.9-14.4-1.4-21.1 0.3-4.2 0.1-7 0.6-11.1-1.3 8.1-1.7 16.4-1 24.9 4.5 56.9 53.9 99.4 110.5 94.9 56.6-4.5 98.8-54.2 94.4-111.2z"/><path class="g" d="m10.5 110.7q-0.4 0.2-0.8 0.2c0.1 1.7 0.7 3.9 2.6 3.3 2.2-0.7 2.2-3.6 2.1-5.5 0-2.5-1.3-8.4-4.4-7.3 1.5 1.1 1.7 3.7 1.7 5.5 0 1.2-0.1 3.1-1.2 3.8z"/><path class="h" d="m184.4 79.4c-0.8-0.2-1.8 0.2-2.5 0.6-0.3 0.2-0.7 0.5-1 0.7-0.4 0.3-0.6 0.7-1 1-0.1 0.1 0 0.2 0.1 0.2q0.3-0.2 0.5-0.4c0.4-0.4 0.9-0.6 1.3-0.8 0.9-0.4 1.8-0.4 2.6-0.8 0.2-0.1 0.2-0.4 0-0.5z"/><path class="h" d="m181.8 76c-0.5 0.2-1.1 0.6-1.7 0.5-0.1 0-0.2 0.2 0 0.2 0.6 0.2 1.2-0.2 1.7-0.4 0.2 0 0.2-0.3 0-0.3z"/><path class="h" d="m26.2 135.5c-1.7-2.6-4-4.9-6.9-6.1-2.8-1.1-3.5 0.9-4.4 2.9-0.1 0 0 0.1 0 0q0.2-0.3 0.4-0.6c0.7-1.9 2.6-2 4.2-1.1 1.2 0.6 2.2 1.5 3.1 2.5 1.8 1.8 3.1 4.1 4.2 6.3 1.5 2.9 2.8 6.1 3.8 9.4-1.2 0.6-4.8-5.1-5.1-5.7-1-1.5-1.9-3-2.7-4.6-0.4-0.9-0.5-2-1-2.8 0-0.1-0.1 0-0.1 0 0.3 0.7 0.3 1.6 0.5 2.3 0.3 1.3 0.7 2.5 1.3 3.7 0.8 1.9 1.9 3.8 3.1 5.5 0.6 0.8 3.2 3.7 4.3 2.6 0.5 2 0.8 3.9 1 5.8 0.1 0.3 0.5 0.2 0.5-0.1 0.3-6.8-2.6-14.4-6.2-20z"/><path fill-rule="evenodd" class="h" d="m190.8 85.4q0 0 0 0.1c0.1 0.1 0.1 0.3 0 0.5-1.6 2-3.7 3.1-5.1 5.4-1 1.6-1.9 3.3-2.3 5.1-0.1 0.8-0.2 1.5-0.4 2.2-0.1 0-0.2 0-0.2 0 0.2-1.5-0.1-2.8 0.4-4.3q0.7-2.3 1.9-4.4c0.7-1.5 2-3.1 3.5-3.9-2.1-1.6-4.5-7.6-4.7-8.4-0.9-3.1-1.6-6.3-1.8-9.5-0.2-2-0.5-4.6 0.1-6.6-3.9 1.5-8.1 2.2-11.6-0.7 0 0 0-0.1 0-0.1 3.9 2.9 8.4 0.5 12.4-0.6q0.1 0 0.2 0c0.7-0.6 1.5-0.5 2.5 0.3 2.1 1.7 3 4.4 3.8 6.9 1.1 3.2 1.6 6.4 1.8 9.7 0.1 2.6 0.7 5.9-0.5 8.3zm-2.1-0.1q2.4-0.5 2-2.5c-0.1-4.5-0.5-8.9-1.9-13.1-0.4-1.1-3.1-10-5.3-9q0 0.1-0.1 0.3c-1.1 1.8-0.7 4.9-0.6 7 0.2 2.3 0.5 4.7 1.1 7 0.5 2 1 4 1.9 5.9 0.5 1 1 2.1 1.7 3q0.5 0.8 1.2 1.4z"/><path class="h" d="m191.1 129.3c-4.6 0-8.2 4.9-10.5 8.4-2.9 4.4-5.5 10.2-4.6 15.6 0.1 0.6 0.9 0.2 0.9-0.3 0-4.9 2.2-9.6 4.5-13.9 0.9-1.6 2.1-3.5 3.6-5.3 0.7 4.7-3.3 9.3-5.5 13-0.3 0.4 0.2 0.8 0.5 0.4 2.9-3.5 6.8-8.7 5.1-13.6 1.7-2 3.8-3.7 6-4.1 0.1 0 0.1-0.2 0-0.2z"/><path class="h" d="m13.7 104.2c-0.3-0.9-2.5-5-3.5-2.6-0.1 0.1 0 0.1 0 0.1q0.1 0 0.3 0c0-0.1 0-0.1 0-0.1 1.9 0 2 2.4 2.5 4.2 0.8 2.4 0.8 4.4 0.2 6.8-0.1 0.4 0.3 0.5 0.6 0.3 2.4-2.4 0.8-6-0.1-8.7z"/><path class="h" d="m67.7 180.5c-0.7-2.1-3.1-3.7-4.9-4.8-2.1-1.3-3.8-1.4-6.2-0.8-0.1 0-0.2 0.3-0.1 0.3 2.3 0.3 4 1.1 5.8 2.5 1.6 1.1 2.7 3.1 4.7 3.7 0.4 0.1 0.8-0.5 0.7-0.9z"/><path class="h" d="m201.1 105.9c-1 0.4-2.2 0.4-3.1 1.2-1 0.9-1.9 1.9-2.7 3.1-1.5 2.2-2.4 4.7-2.4 7.3-0.1 0.6 0.6 0.4 0.8 0 0.7-2.2 1.4-4.5 2.5-6.6 1.3-2.3 3.1-3.4 5-4.9 0.1-0.1 0-0.2-0.1-0.1z"/><path class="i" d="m188.7 85.5c0.3-3.7-0.5-7.6-1.2-11.1-0.8-4-1.4-9.5-4.6-12.4-0.4 1.9-0.2 4.1-0.1 5.7 0.2 2.6 0.5 5.1 1.2 7.6 0.5 2.2 1.2 4.3 2.2 6.3 0.6 1.1 1.1 2.3 2 3.2q0.2 0.4 0.5 0.7z"/><path class="f" d="m49.1 42.4c-3.8 0.2-7.4 2.4-10.5 4.3q-2.6 1.5-5 3.2c1.1-0.4 2.3-0.6 3.5-0.4 1.2 0.1 3.4 0.5 3.3 2.2-0.1 0.7-0.7 0.8-1.3 0.7-0.8-0.1-1.2-0.2-2 0.3q-0.1 0-0.2 0.1 0 0.2-0.1 0.3-0.5 0.4-1.1 0.8-0.2 0.3-0.4 0.5c-0.1 0.2-0.2 0.2-0.3 0.1-3.6 3-6.6 7-8.8 10.9-2.5 4.4-5.4 10.9-1.7 15.4 0.1 0.2 0.1 0.4-0.1 0.4-1.6 0.3-3.3 0.3-4.4-1-1-1.3-1.1-3.1-1-4.6 0.2-3.7 1.3-7.3 2.6-10.7 1-2.5 2-5.2 3.6-7.4 1.3-1.9 3.1-4.1 5.2-5.7-0.1-0.1 0-0.2 0.1-0.3q0.2-0.1 0.4-0.3c-6.4 3-10.8 9.4-13.4 15.9-1.9 4.7-3 9.7-3.2 14.8-0.2 4.6 0.2 9.6 2.2 13.8 1.4 3.1 4.3 6 7.9 5.3 2.6-0.4 4.9-1.8 6.7-3.6 2.4-2.5 4.1-5.4 5.8-8.4-0.9 1.1-1.9 2-3 2.7-1.8 1.1-4.9 1.7-6.2-0.5-0.9-1.7-0.6-4 0.3-5.7 1.4-2.8 3.8-4.9 5.5-7.6 2-2.9 4.1-5.9 5.6-9.1 1.6-3.4 2.7-7 3.4-10.6 0.4-1.5 0.9-4.2 2.5-4.8 1.6-0.7 3.1 1.1 3.4 2.5 1.1 3.8-0.3 8-1 11.9 1.5-2.2 2.2-5 2.7-7.6 0.8-3.1 1.7-6 2.5-9.1 1-3.3 1.3-8.9-3.5-8.7z"/><path class="i" d="m28.7 63.7c-1.7 2.8-3.2 6-3.7 9.3-0.5 2.8-0.4 6.2 1.6 8.3 3-1.5 5.5-4.5 7.3-6.8 1.8-2.5 3.3-5.3 4.6-8 1.5-3.1 4.3-9.3 3.3-13.1-1.5 0.2-2.8 0.5-4.1 1.2-3.6 2-6.8 5.6-9 9.1z"/><path class="h" d="m51.7 48.7c-3.2 1.9-7.3 2.1-10.9 0.9-0.8-0.8-2.1-1.2-3.8-1-0.2 0.1-0.2 0.3-0.1 0.3 4.5-0.3 5.2 4.4 4.8 7.8-0.5 3.5-2 6.9-3.6 9.8-3.1 5.6-7.4 12.6-13.7 14.9-5.5 2-5.4-5-5-8.4 0.6-6.3 3-13.1 7.3-17.8 0.1-0.1 0-0.1 0-0.1-5.2 5-8.1 12.5-9.1 19.6-0.3 1.9-0.3 4.1 0.4 6 0 0.3 0.1 0.5 0.1 0.6 0.4 0.7 0.6 1.3 0.8 2 0.5 1.4 1 2.7 1.3 4.2 0.4 1.7 1 3.4 1.2 5.1 0.1 0.8 0.4 3.6-0.4 4.3 0 0.1 0 0.2 0.1 0.1 0.5-0.3 0.7-0.6 0.7-1.3 0-0.9 0.4-1.7 0.4-2.6 0-1.3-0.2-2.6-0.4-3.8-0.3-2.1-0.7-4-1.4-6 1.3 0.5 2.8 0.5 4.2 0.1 3.4-0.9 6.2-4.4 8.4-7 2.9-3.4 5-7.6 6.9-11.6 1.3-2.9 3.7-10.9 1.5-14.5 3.5 1.6 7.6 1.7 10.7-1 0.2-0.3 0-0.8-0.4-0.6z"/><path class="h" d="m34.9 85.6q-0.9-1.6-1.9-3.3c-0.3-0.5-0.8-1.1-1.2-1.6 0-0.1-0.2-0.2-0.3-0.2 0.1 0 0.1 0 0.1-0.1q-0.1 0-0.1-0.1c-0.1-0.1-0.2 0-0.2 0.1 0.4 1.1 1.1 2.2 1.5 3.3 0.3 0.9 0.6 2.3 1.7 2.5 0.3 0 0.5-0.3 0.4-0.6z"/><path class="h" d="m36.7 79.5c-0.6-0.3-1.2-0.7-1.6-1.3-0.1-0.1-0.2 0.1-0.2 0.1 0.4 0.7 0.9 1.3 1.6 1.5 0.2 0.1 0.4-0.2 0.2-0.3z"/><path class="h" d="m47 56.9c-1.2 0-2.3 0.1-3.4 0-0.1 0-0.1 0.1-0.1 0.1 1.1 0.2 2.3 0.5 3.5 0.3 0.1-0.1 0.2-0.4 0-0.4z"/><path class="e" d="m43.7 59.3c0-0.6-0.9-0.8-1.1-0.2-1.2 3.3-1.7 6.9-2.8 10.2-1.3 3.6-3.6 6.4-5.9 9.3-0.2 0.2 0.1 0.5 0.4 0.3 5.7-4.3 10-12.3 9.4-19.6z"/><path class="f" d="m122.4 176.9c3.6 1 7.8 0.1 11.3-0.7 1.9-0.4 3.8-1 5.7-1.5-1.1 0-2.3-0.2-3.4-0.7-1.1-0.5-3.1-1.6-2.4-3.1 0.2-0.6 0.9-0.5 1.4-0.3 0.7 0.4 1.1 0.6 1.9 0.4q0.2-0.1 0.3-0.1 0-0.2 0.2-0.2 0.6-0.2 1.3-0.4 0.3-0.2 0.5-0.4c0.2-0.1 0.3-0.1 0.4 0 4.3-1.7 8.4-4.6 11.7-7.6 3.7-3.3 8.5-8.6 6.5-14-0.1-0.2 0-0.4 0.2-0.4 1.6 0.2 3.2 0.8 3.8 2.4 0.6 1.5 0.1 3.3-0.4 4.7-1.4 3.4-3.6 6.4-5.9 9.2-1.7 2.1-3.5 4.4-5.7 6-1.9 1.3-4.2 2.9-6.7 3.7q0 0.2-0.2 0.3-0.3 0.1-0.6 0.1c7.1-0.8 13.3-5.4 17.8-10.8 3.2-3.8 5.9-8.3 7.7-13 1.6-4.4 2.7-9.2 2.2-13.9-0.4-3.3-2.2-6.9-5.8-7.5-2.6-0.4-5.2 0.2-7.5 1.4-3.1 1.5-5.6 3.7-8.2 6 1.2-0.7 2.5-1.2 3.8-1.5 2-0.5 5.2-0.1 5.6 2.4 0.4 1.9-0.7 4-2 5.3-2.2 2.3-5.2 3.5-7.6 5.4-2.8 2.2-5.7 4.4-8.2 7-2.6 2.7-4.7 5.7-6.6 8.9-0.7 1.3-2.1 3.7-3.8 3.8-1.7 0.1-2.6-2-2.5-3.5 0.2-4 2.8-7.5 4.8-10.9-2.2 1.6-3.7 4-5 6.3-1.7 2.7-3.5 5.2-5.3 7.8-1.9 2.9-4 8.1 0.7 9.4z"/><path class="i" d="m148.4 163.2c2.5-2.2 4.9-4.7 6.4-7.7 1.3-2.5 2.3-5.7 1.1-8.4-3.3 0.5-6.7 2.5-9 4.2-2.5 1.8-4.8 3.9-7 6.1-2.3 2.4-7 7.5-7.1 11.4 1.4 0.3 2.8 0.4 4.2 0.1 4.1-0.7 8.2-3.1 11.4-5.7z"/><path class="h" d="m121.8 170.1c3.7-0.8 7.7 0.4 10.7 2.6 0.5 1 1.6 1.8 3.3 2.1 0.2 0.1 0.3-0.2 0.1-0.2-4.3-1.1-3.5-5.8-2-8.9 1.5-3.1 4-5.9 6.5-8.2 4.7-4.3 10.9-9.6 17.6-9.7 5.9-0.2 3.6 6.4 2.2 9.5-2.6 5.8-7.1 11.5-12.6 14.6 0 0 0 0.1 0 0.1 6.5-3.1 11.6-9.3 14.8-15.7 0.8-1.8 1.6-3.8 1.5-5.9 0-0.2 0.1-0.5 0-0.6-0.1-0.7-0.1-1.4-0.1-2.1 0-1.5-0.1-2.9 0.1-4.4 0.1-1.7 0.1-3.5 0.5-5.2 0.1-0.8 0.7-3.5 1.7-4 0.1 0 0.1-0.2 0-0.2-0.6 0.2-0.9 0.5-1.1 1.1-0.3 0.8-0.9 1.5-1.2 2.4-0.4 1.2-0.6 2.4-0.9 3.7-0.3 2-0.6 4-0.5 6.1-1-0.9-2.5-1.3-3.9-1.4-3.6-0.2-7.3 2.1-10.2 3.9-3.8 2.3-7.1 5.7-10.2 8.9-2.1 2.3-6.9 9.1-5.9 13.2-2.8-2.6-6.8-4-10.5-2.4-0.3 0.2-0.3 0.8 0.1 0.7z"/><path class="h" d="m149.4 140.4q0.4 1.9 0.8 3.7c0.1 0.7 0.3 1.3 0.5 2 0.1 0.1 0.2 0.2 0.3 0.2q0 0 0 0c-0.1 0-0.1 0-0.1 0.1q0.1 0.1 0.1 0.1c0 0.2 0.2 0.1 0.2 0 0-1.2-0.3-2.4-0.4-3.6-0.1-1 0.2-2.4-0.8-2.9-0.3-0.2-0.7 0.1-0.6 0.4z"/><path class="h" d="m145.7 145.7c0.5 0.5 1 1 1.2 1.7 0 0.1 0.2 0 0.2-0.1-0.2-0.7-0.5-1.5-1.1-1.9-0.1-0.1-0.4 0.1-0.3 0.3z"/><path class="h" d="m128.9 163.8c1.1 0.4 2.2 0.6 3.3 1.1 0 0 0.1 0 0-0.1-0.9-0.5-2-1.2-3.1-1.3-0.2-0.1-0.4 0.2-0.2 0.3z"/><path class="e" d="m132.8 162.6c-0.2 0.6 0.6 1.1 1 0.6 2.2-2.8 3.7-6.1 5.9-8.9 2.3-2.9 5.3-4.9 8.4-6.9 0.2-0.1 0.1-0.6-0.2-0.5-6.8 2.3-13.5 8.6-15.1 15.7z"/><path class="f" d="m161.9 30.1c0.2 1.2 0.1 3.4-1.6 2.4-1.3-0.7-2-2.2-3-3.3-1.1-1.3-2.4-2.6-3.9-3.4-1.6-0.9-3.4-1.2-5.1-1.7-1-0.3-2.1-0.6-2.8-1.5-0.3-0.3-0.6-1-0.2-1.3 0.4-0.3 0.9-0.3 1.4-0.2q-0.4-0.4-0.9-0.8c-0.8-0.2-1.6-0.2-2.4-0.1-2.2 0.5-1.4 3-0.7 4.5 2.1 3.9 5.6 6.9 9.3 9.3 2 1.2 4 2.5 6.3 3.2 1.6 0.5 4.2 1.1 5.5-0.2 2.1-2.1 0.2-5.5-1.9-6.9z"/><path class="h" d="m161.5 36.2c-4.2-1.3-8-3.7-11.4-6.3-1.7-1.3-3.4-2.8-4.7-4.6q-0.1 0-0.1-0.1c1.4-1 5.1 1.7 6.1 2.4 2.3 1.6 4.1 4 5.9 6.1 0.4 0.5 1-0.2 0.7-0.7-1.7-2.9-4.1-5.6-7.2-7.2-1.3-0.6-4.4-2.3-5.7-0.8-0.5-0.7-0.9-1.5-1.3-2.4-0.6-1.3 1-2.3 2.1-1.4 0 0.1 0.1 0 0 0-0.5-1-2.3-0.9-3-0.2-1.3 1.1 1.5 4.9 2.1 5.7 1.9 2.6 4.8 4.9 7.5 6.5 2.6 1.6 5.6 3.8 8.8 3.6 0.3 0 0.5-0.5 0.2-0.6z"/><path class="e" d="m159.6 38.7c-6.6-5-16-7.4-18.6-16.3-0.1-0.4-0.6-0.2-0.6 0.1 0.7 9.1 10.9 15.1 18.9 16.8 0.3 0.1 0.6-0.4 0.3-0.6z"/><path class="f" d="m91.1 14.6q0.2 0.1 0.5 0.2c0 0.1 0.1 0.2 0.1 0.2-0.1 2.3-4.4 2.8-6 2.9-1.3 0.1-4.8 0-3.8-2q-0.7-0.1-1.4 0.2c-1 0.7-2 1.4-2.8 2.4-1.3 1.5-1.9 3.7 0.3 4.7 2.6 1.1 6.3 0.7 9 0 1.9-0.5 3.9-1 5.6-1.8 1.8-0.8 3.8-1.9 4.6-3.7 1.6-3.8-3.7-4.5-6.1-3.1z"/><path class="h" d="m94.7 17c-2 2.2-4.6 3.3-7.5 4.1-1.6 0.4-3.3 0.4-5 0.5-0.6 0-1.4-0.1-2-0.2-1.7-0.3-1.8-2.4-0.4-3.5 0 0 0-0.1-0.1-0.1-0.9 0.7-2.8 2-2.3 3.5 0.7 1.9 3.4 2.2 5.2 2.2 4.8-0.2 10.6-1.1 13.1-5.9 0.3-0.6-0.5-1.1-1-0.6z"/><path class="e" d="m98.3 18.7c-2.7 2-5 3.7-8.2 4.7-3 0.9-6.6 1.5-9.7 1.6-0.1 0-0.1 0.1 0 0.1 6.3 0.1 14.8 0.8 18.8-5.4 0.4-0.6-0.2-1.6-0.9-1z"/><path class="f" d="m46.2 143.8c0.2-1.2 0.7-3.3 2.2-2 1.1 1 1.5 2.6 2.2 3.8 0.8 1.6 1.8 3.1 3.1 4.2 1.4 1.2 3 1.9 4.6 2.8 1 0.5 1.9 1 2.5 2 0.2 0.4 0.3 1.1-0.2 1.3-0.4 0.2-0.9 0.1-1.3 0q0.3 0.5 0.6 0.9c0.8 0.3 1.6 0.6 2.4 0.6 2.3 0 2-2.6 1.6-4.2-1.2-4.3-4-8-7.1-11.1-1.7-1.6-3.5-3.3-5.5-4.4-1.5-0.9-3.9-2-5.5-1-2.4 1.5-1.3 5.3 0.4 7.1z"/><path class="h" d="m48 138c3.7 2.1 7 5.2 9.8 8.5 1.4 1.7 2.7 3.5 3.7 5.5q0 0.1 0 0.1c-1.6 0.7-4.7-2.7-5.5-3.6-1.9-2.1-3.2-4.8-4.5-7.2-0.3-0.6-1 0-0.8 0.5 1.1 3.2 2.8 6.4 5.5 8.5 1.2 0.9 3.8 3.2 5.4 2.1 0.4 0.8 0.6 1.7 0.8 2.5 0.3 1.5-1.4 2.1-2.3 1 0-0.1-0.1 0-0.1 0 0.3 1.1 2.1 1.3 2.9 0.9 1.5-0.9-0.4-5.2-0.8-6.1-1.3-2.9-3.6-5.8-6-8-2.2-2-4.7-4.8-7.9-5.3-0.2 0-0.5 0.4-0.2 0.6z"/><path class="e" d="m50.3 135.9c5.4 6.3 14.2 10.6 14.8 19.9 0 0.3 0.5 0.3 0.6 0 1.3-9.1-7.5-17.1-15-20.4-0.3-0.2-0.6 0.2-0.4 0.5z"/><path class="f" d="m91.4 176.2q-0.2-0.1-0.3-0.3c-0.1 0-0.1-0.1-0.1-0.2 0.5-1.7 3.9-1.4 5.2-1.2 1 0.2 3.7 0.9 2.6 2.2q0.5 0.2 1.1 0.1c0.9-0.4 1.8-0.8 2.6-1.4 1.3-0.9 2.1-2.5 0.6-3.7-1.9-1.3-4.9-1.6-7.1-1.5-1.6 0-3.2 0.1-4.7 0.4-1.5 0.4-3.2 0.9-4.2 2.2-1.8 2.6 2.2 4.1 4.3 3.4z"/><path class="h" d="m88.9 173.7c2-1.4 4.2-1.7 6.6-1.9 1.4-0.1 2.6 0.2 3.9 0.5 0.5 0 1.2 0.2 1.6 0.4 1.3 0.5 1 2.2-0.2 2.9 0 0 0 0 0 0 0.8-0.4 2.5-1.1 2.4-2.3-0.3-1.7-2.3-2.3-3.7-2.6-3.8-0.7-8.5-0.9-11.2 2.4-0.3 0.4 0.2 0.9 0.6 0.6z"/><path class="e" d="m86.5 171.8c2.4-1.1 4.4-2 7.1-2.3 2.5-0.2 5.4-0.1 7.9 0.4 0.1 0 0.1-0.1 0-0.1-4.9-1.2-11.4-3.1-15.6 1-0.4 0.5-0.1 1.3 0.6 1z"/><path class="f" d="m50.5 35.1c1-1.4 2.9-4.8 0.8-6-0.6-0.3-1.3-0.4-2.1-0.4 0.4 2.3-2.8 3-4 4.5-0.7 0.8-1.3 1.8-1.7 2.8-0.1 0.5-0.3 1-0.2 1.5 0.3 0.7 1.3 0.4 1.8 0.3 0.3-0.1 0.4 0.2 0.3 0.4-0.8 0.9-1.7 1.4-2.7 2 3.1 0.5 6.2-2.8 7.8-5.1z"/><path class="h" d="m49.7 29.8c0 0 0 0 0 0 0.9 0-0.1 3-0.3 3.3-0.6 1.4-1.7 2.4-2.5 3.6-0.1 0.2 0 0.5 0.3 0.6 0.9 0 1.5-0.9 2-1.6 0.6-0.9 1.5-2.3 1.4-3.4-0.1-0.5 0.1-2.8-0.9-2.5z"/><path class="e" d="m54.2 29.7c-1.3 3.3-2.1 6.6-5.1 8.7-0.3 0.2-0.1 0.6 0.2 0.5 3.1-1.6 5.7-5.4 5.8-9 0-0.5-0.7-0.6-0.9-0.2z"/><path class="e" d="m181.2 64.2c-0.1-0.4-0.6-0.3-0.6 0-1.1 4.6 0.1 9.2 2.2 13.3 0.2 0.2 0.6 0.1 0.5-0.2-0.8-4.3-1.1-8.9-2.1-13.1z"/></svg>
