<svg xmlns="http://www.w3.org/2000/svg" version="1.2" viewBox="0 0 283 205" width="283" height="205"><defs><clipPath clipPathUnits="userSpaceOnUse" id="cp1"><path d="m1057 255h-1250v-500h1250z"/></clipPath><linearGradient id="P" gradientUnits="userSpaceOnUse"/><linearGradient id="g1" x2="1" href="#P" gradientTransform="matrix(0,-69.56,172.624,0,125.12,72.318)"><stop stop-color="#ffff29"/><stop offset="1" stop-color="#ff7e59"/></linearGradient><radialGradient id="g2" cx="0" cy="0" r="1" href="#P" gradientTransform="matrix(77.514,0,0,77.514,137.855,86.204)"><stop offset=".02" stop-color="#8343b0"/><stop offset=".99" stop-color="#611b9c"/></radialGradient><radialGradient id="g3" cx="0" cy="0" r="1" href="#P" gradientTransform="matrix(119.337,0,0,119.337,132.248,62.946)"><stop stop-color="#d4cfff"/><stop offset="1" stop-color="#8d6fc7"/></radialGradient><linearGradient id="g4" x2="1" href="#P" gradientTransform="matrix(0,-4.112,19.083,0,141.079,108.463)"><stop stop-color="#ffff29"/><stop offset="1" stop-color="#ff7e59"/></linearGradient><linearGradient id="g5" x2="1" href="#P" gradientTransform="matrix(0,-3.79,12.194,0,189.265,109.428)"><stop stop-color="#ffff29"/><stop offset="1" stop-color="#ff7e59"/></linearGradient><linearGradient id="g6" x2="1" href="#P" gradientTransform="matrix(0,-2.424,9.882,0,220.712,114.21)"><stop stop-color="#ffff29"/><stop offset="1" stop-color="#ff7e59"/></linearGradient><linearGradient id="g7" x2="1" href="#P" gradientTransform="matrix(0,-3.79,12.194,0,98.375,109.279)"><stop stop-color="#ffff29"/><stop offset="1" stop-color="#ff7e59"/></linearGradient><linearGradient id="g8" x2="1" href="#P" gradientTransform="matrix(0,-2.424,9.882,0,61.325,113.97)"><stop stop-color="#ffff29"/><stop offset="1" stop-color="#ff7e59"/></linearGradient><radialGradient id="g9" cx="0" cy="0" r="1" href="#P" gradientTransform="matrix(45.976,0,0,45.976,136.303,53.513)"><stop offset=".02" stop-color="#725eb0"/><stop offset=".99" stop-color="#61349c"/></radialGradient><linearGradient id="g10" x2="1" href="#P" gradientTransform="matrix(0,-3.244,3.961,0,139.221,89.986)"><stop stop-color="#8dc7ff"/><stop offset=".32" stop-color="#5c4d86"/></linearGradient><radialGradient id="g11" cx="0" cy="0" r="1" href="#P" gradientTransform="matrix(10.74,-3.408,3.408,10.74,141.18,88.364)"><stop stop-color="#003cee"/><stop offset="1"/></radialGradient><linearGradient id="g12" x2="1" href="#P" gradientTransform="matrix(0,-3.244,3.961,0,255.562,94.275)"><stop stop-color="#8dc7ff"/><stop offset=".32" stop-color="#5c4d86"/></linearGradient><radialGradient id="g13" cx="0" cy="0" r="1" href="#P" gradientTransform="matrix(10.74,-3.408,3.408,10.74,257.521,92.653)"><stop stop-color="#003cee"/><stop offset="1"/></radialGradient><linearGradient id="g14" x2="1" href="#P" gradientTransform="matrix(0,-3.244,3.961,0,28.605,94.275)"><stop stop-color="#8dc7ff"/><stop offset=".32" stop-color="#5c4d86"/></linearGradient><radialGradient id="g15" cx="0" cy="0" r="1" href="#P" gradientTransform="matrix(10.74,-3.408,3.408,10.74,30.564,92.653)"><stop stop-color="#003cee"/><stop offset="1"/></radialGradient><radialGradient id="g16" cx="0" cy="0" r="1" href="#P" gradientTransform="matrix(23.325,0,0,23.325,142.53,105.867)"><stop stop-color="#ff9a00"/><stop offset="1"/></radialGradient><radialGradient id="g17" cx="0" cy="0" r="1" href="#P" gradientTransform="matrix(8.381,0,0,8.381,97.786,108.152)"><stop stop-color="#ff9a00"/><stop offset="1"/></radialGradient><radialGradient id="g18" cx="0" cy="0" r="1" href="#P" gradientTransform="matrix(8.381,0,0,8.381,220.462,112.758)"><stop stop-color="#ff9a00"/><stop offset="1"/></radialGradient><linearGradient id="g19" x2="1" href="#P" gradientTransform="matrix(0,-86.614,78.032,0,90.849,203.345)"><stop/><stop offset="1" stop-color="#106d90"/></linearGradient><linearGradient id="g20" x2="1" href="#P" gradientTransform="matrix(0,-88.045,24.614,0,-38.997,204.313)"><stop/><stop offset="1" stop-color="#106d90"/></linearGradient><linearGradient id="g21" x2="1" href="#P" gradientTransform="matrix(0,-88.362,3.704,0,-907.805,204.63)"><stop/><stop offset="1" stop-color="#106d90"/></linearGradient><linearGradient id="g22" x2="1" href="#P" gradientTransform="matrix(0,-87.82,7.384,0,-356.894,204.825)"><stop/><stop offset="1" stop-color="#106d90"/></linearGradient></defs><style>.a{fill:url(#g1)}.b{fill:url(#g2)}.c{fill:url(#g3)}.d{fill:#3c107b}.e{fill:#31165f}.f{fill:#0054b5}.g{fill:#31c7ff}.h{fill:url(#g4)}.i{fill:#fff}.j{fill:url(#g5)}.k{fill:url(#g6)}.l{fill:url(#g7)}.m{fill:url(#g8)}.n{fill:#77439f}.o{fill:#ff935f}.p{fill:url(#g9)}.q{mix-blend-mode:soft-light;fill:#fff}.r{fill:url(#g10)}.s{mix-blend-mode:screen;fill:url(#g11)}.t{fill:url(#g12)}.u{mix-blend-mode:screen;fill:url(#g13)}.v{fill:url(#g14)}.w{mix-blend-mode:screen;fill:url(#g15)}.x{mix-blend-mode:screen;fill:url(#g16)}.y{mix-blend-mode:screen;fill:url(#g17)}.z{mix-blend-mode:screen;fill:url(#g18)}.A{mix-blend-mode:screen;fill:url(#g19)}.B{mix-blend-mode:screen;fill:url(#g20)}.C{mix-blend-mode:screen;fill:url(#g21)}.D{mix-blend-mode:screen;fill:url(#g22)}</style><g clip-path="url(#cp1)"><path class="a" d="m52.8 69.8c0 0 37.4-64.5 83.2-67 47.5-2.5 89.4 69.5 89.4 69.5z"/><path class="b" d="m282.8 96.9c-0.7 2.4-52.7 24.7-141.3 24.7-81.8 0-142.1-21-141.3-24.7 0.6-2.6 63.3-11.4 141.3-11.4 78.1 0 141.9 9.6 141.3 11.4z"/><path class="c" d="m0.2 96.9c0 0 41.1-39.7 135.8-39.7 94.8 0 146.8 39.7 146.8 39.7 0 0-38.8-9-146.8-9-86.2 0-135.8 9-135.8 9z"/><path class="d" d="m254.8 107.8l-0.6-0.2c0.5-1.7-2.5-3.1-5.2-4-18.2-5.9-76.1-7.9-122.1-7.3-57.6 0.8-97.7 5.3-99.7 11.2l-0.6-0.2c2.6-7.6 53.5-11 100.3-11.6 46.1-0.6 104 1.4 122.3 7.3 4.3 1.5 6.2 3 5.6 4.8z"/><path class="e" d="m83.7 118.1c0 0 48.1-6.3 112.3 0.6 0 0-57.5 6.2-112.3-0.6z"/><path class="f" d="m89.4 118.7c0 0 45.2-5.8 100.7 0.6 0 0-52.1 5.9-100.7-0.6z"/><path class="g" d="m99.9 117.5c0 0 52.2 4.3 78 0.2 0 0-47.5-2.8-78-0.2z"/><path class="h" d="m151.1 106.4c0 1.1-4.3 2.1-9.6 2.1-5.2 0-9.5-1-9.5-2.1q0-0.2 0.2-0.5c1-0.9 4.8-1.5 9.3-1.5 4 0 7.4 0.5 8.8 1.2q0.7 0.4 0.8 0.8z"/><path class="i" d="m150.3 105.6c0 1-4.1 1.8-9.1 1.8-4.5 0-8.2-0.6-9-1.5 1-0.9 4.8-1.5 9.3-1.5 4 0 7.4 0.5 8.8 1.2q0 0 0 0z"/><path class="j" d="m196 107.5c0 1.1-2.8 1.9-6.1 1.9-2.8 0-5.2-0.6-5.9-1.3q0 0 0 0-0.2-0.3-0.2-0.6 0-0.2 0.1-0.4c0.6-0.8 3.1-1.5 6-1.5 1.7 0 3.3 0.3 4.5 0.7q0.7 0.2 1.1 0.5 0.4 0.3 0.5 0.7z"/><path class="i" d="m194.6 106.8c0 1-2.7 1.9-6.1 1.9-1.8 0-3.4-0.3-4.5-0.6q0 0 0 0-0.2-0.3-0.2-0.6 0-0.2 0.1-0.4c0.6-0.8 3.1-1.5 6-1.5 1.7 0 3.3 0.3 4.5 0.7q0.2 0.2 0.2 0.5z"/><path class="k" d="m226 113c0 0.7-2.3 1.2-5 1.2-2.2 0-4.1-0.4-4.7-0.9q0 0 0 0-0.2-0.1-0.2-0.3 0-0.1 0.1-0.3c0.5-0.5 2.5-0.9 4.8-0.9 1.5 0 2.8 0.1 3.7 0.4q0.5 0.1 0.9 0.3 0.3 0.2 0.4 0.5z"/><path class="i" d="m224.9 112.5c0 0.7-2.3 1.2-5 1.2-1.4 0-2.7-0.1-3.6-0.4q0 0 0 0-0.2-0.1-0.2-0.3 0-0.1 0.1-0.3c0.5-0.5 2.5-0.9 4.8-0.9 1.5 0 2.8 0.1 3.7 0.4q0.2 0.1 0.2 0.3z"/><path class="l" d="m91.7 107.4c0 1 2.7 1.9 6.1 1.9 2.8 0 5.1-0.6 5.8-1.4q0.1 0 0 0 0.3-0.2 0.3-0.5 0-0.2-0.2-0.4c-0.6-0.9-3-1.5-5.9-1.5-1.8 0-3.4 0.2-4.5 0.6q-0.7 0.2-1.1 0.5-0.5 0.4-0.5 0.8z"/><path class="i" d="m93 106.6c0 1.1 2.8 1.9 6.1 1.9 1.8 0 3.4-0.2 4.5-0.6q0.1 0 0 0 0.3-0.2 0.3-0.5 0-0.2-0.2-0.4c-0.6-0.9-3-1.5-5.9-1.5-1.8 0-3.4 0.2-4.5 0.6q-0.3 0.3-0.3 0.5z"/><path class="m" d="m56.1 112.8c0 0.6 2.2 1.2 4.9 1.2 2.3 0 4.2-0.4 4.8-0.9q0 0 0 0 0.2-0.2 0.2-0.3 0-0.2-0.2-0.3c-0.5-0.6-2.4-1-4.8-1-1.4 0-2.7 0.2-3.6 0.4q-0.6 0.2-0.9 0.4-0.4 0.2-0.4 0.5z"/><path class="i" d="m57.2 112.3c0 0.6 2.2 1.2 4.9 1.2 1.5 0 2.8-0.2 3.7-0.4q0 0 0 0 0.2-0.2 0.2-0.3 0-0.2-0.2-0.3c-0.5-0.6-2.4-1-4.8-1-1.4 0-2.7 0.2-3.6 0.4q-0.2 0.2-0.2 0.4z"/><path class="n" d="m260.7 84.6c-61.2-26.1-123.3-25-164.6-19.5-44.8 6-75.5 18.3-75.8 18.4l-0.3-0.5c0.3-0.2 31.1-12.5 76-18.5 41.4-5.6 103.6-6.7 165 19.5z"/><path class="d" d="m0.3 97.2l-0.2-0.6c0.5-0.1 42.6-8.9 143.6-8.9 101 0 138.8 8.8 139.2 8.9l-0.1 0.6c-0.4-0.1-38.2-8.9-139.1-8.9-100.9 0-143 8.8-143.4 8.9z"/><path class="n" d="m31.5 92.9l-0.4-0.5c0.2-0.1 17.2-15.9 30-21.6l0.3 0.6c-12.7 5.6-29.7 21.3-29.9 21.5z"/><path class="n" d="m256.7 93.3c-19.5-16-48.6-25.1-48.9-25.2l0.2-0.6c0.3 0.1 29.5 9.2 49.1 25.4z"/><path class="i" d="m159.3 11.6c0 0 3.7 4.2 10.9 12.1l6.9 0.1c0 0-3.8-6.5-14.1-12.2z"/><path class="i" d="m54.3 67.3c0 0 41.1-65.2 86.2-63.7 45 1.4 81.8 63.7 81.8 63.7 0 0-40.4-67-80.8-67-46.5-0.1-87.2 67-87.2 67z"/><path class="o" d="m84 59.9c0 0 23.9-15.3 57.8-16.9 33.9-1.7 58.4 16.4 58.4 16.4 0 0-59.6-12.7-116.2 0.5z"/><path class="i" d="m62.5 61.1c0 0 9.1-13.8 20.2-23.9l3.9-0.9c0 0-11.3 14.3-15.2 22.4z"/><path class="p" d="m52.8 69.8l2-3.1c0 0 103.4-30.8 167.5 0.6l1.9 3c0 0-28.8-11.7-87.2-11.7-58.3 0-84.2 11.2-84.2 11.2z"/><path class="q" d="m64.6 91c0 0 69.7-6.7 175.8 1.3 0 0-74.2-5.5-175.8-1.3z"/><path class="r" d="m142.5 88.4c0 0.9-0.9 1.6-2 1.6-1 0-1.9-0.7-1.9-1.6 0-0.9 0.9-1.7 1.9-1.7 1.1 0 2 0.8 2 1.7z"/><path class="i" d="m142.1 88.4c0 0.7-0.7 1.2-1.6 1.2-0.8 0-1.5-0.5-1.5-1.2 0-0.7 0.7-1.3 1.5-1.3 0.9 0 1.6 0.6 1.6 1.3z"/><path class="s" d="m151.9 85c2.3 4.8-0.6 10.3-6.6 12.2-5.9 1.8-12.6-0.6-14.9-5.4-2.3-4.9 0.7-10.3 6.6-12.2 6-1.9 12.6 0.5 14.9 5.4z"/><path class="t" d="m258.9 92.7c0 0.8-0.9 1.6-2 1.6-1.1 0-2-0.8-2-1.6 0-0.9 0.9-1.7 2-1.7 1.1 0 2 0.8 2 1.7z"/><path class="i" d="m258.5 92.7c0 0.7-0.7 1.2-1.6 1.2-0.9 0-1.6-0.5-1.6-1.2 0-0.8 0.7-1.3 1.6-1.3 0.9 0 1.6 0.5 1.6 1.3z"/><path class="u" d="m268.3 89.2c2.3 4.9-0.7 10.4-6.6 12.2-5.9 1.9-12.6-0.5-14.9-5.3-2.3-4.9 0.6-10.4 6.6-12.2 5.9-1.9 12.6 0.5 14.9 5.3z"/><path class="v" d="m31.9 92.7c0 0.8-0.9 1.6-2 1.6-1.1 0-1.9-0.8-1.9-1.6 0-0.9 0.8-1.7 1.9-1.7 1.1 0 2 0.8 2 1.7z"/><path class="i" d="m31.5 92.7c0 0.7-0.7 1.2-1.6 1.2-0.8 0-1.5-0.5-1.5-1.2 0-0.8 0.7-1.3 1.5-1.3 0.9 0 1.6 0.5 1.6 1.3z"/><path class="w" d="m41.3 89.2c2.3 4.9-0.6 10.4-6.6 12.2-5.9 1.9-12.6-0.5-14.9-5.3-2.3-4.9 0.7-10.4 6.6-12.2 5.9-1.9 12.6 0.5 14.9 5.3z"/><g style="mix-blend-mode:soft-light"><path class="i" d="m135.2 75.1c0.2 0.1 0.5 0.3 1 0.3 0.2 0 0.3-0.1 0.5-0.1q0.3 0 0.6 0c0.2 0 0.6-0.1 0.8-0.2 0.1 0 0-0.1-0.1-0.1q-0.3-0.1-0.5-0.1-0.4 0-0.7 0-0.2 0-0.3-0.1-0.2 0-0.4 0c-0.3 0-0.8 0.1-0.9 0.3z"/><path class="i" d="m138.9 75.6q-0.2 0-0.3-0.1c0-0.1 0.9-0.2 1.1 0 0.2 0.2-0.5 0.2-0.8 0.1z"/><path class="i" d="m144.5 78.7c-0.2-0.1-0.3-0.2-0.3-0.3q0.1-0.1 0.4-0.2c0.2 0 0.4-0.1 0.7-0.1q0.2 0 0.4 0c0.5 0 0.8 0.3 1 0.4 0.1 0.2 0.2 0.2 0.2 0.4q0 0.1 0.1 0.2c0 0 0.1 0.1 0 0.2 0 0-0.1 0.1-0.2 0.1-0.2 0.1-0.6 0.2-0.9 0.2-0.7 0-1.2-0.3-1.5-0.5-0.2-0.2-0.5-0.5 0.1-0.4z"/><path class="i" d="m143.5 77.9c0.2 0 0.3 0 0.4 0q0.1-0.1 0-0.2c0-0.1-0.4-0.2-0.6-0.1-0.2 0-0.4 0.1-0.4 0.2 0 0.1 0.4 0.2 0.6 0.2z"/><path class="i" d="m150.1 74.5c0.1 0 0.2 0 0.3 0q0.4 0 0.8 0 0.7 0 1.4 0 0.6 0 1.1 0 0.3 0 0.5-0.1c0 0-0.1 0-0.1 0q-0.2 0-0.4-0.1-0.5-0.1-0.9-0.1-0.1-0.1-0.2-0.1-0.1 0-0.2 0-0.1-0.1-0.3-0.1c-0.3-0.1-0.7-0.1-1-0.1q-0.2 0-0.4 0-0.2 0-0.3 0-0.4 0.1-0.8 0.2c-0.2 0-0.7 0.1-0.7 0.2-0.1 0.1 0.1 0.1 0.2 0.1q0.3 0 0.5 0c0.3 0 0.5 0.1 0.5 0.1z"/><path class="i" d="m147.8 74.3c-0.2 0-0.4 0-0.3-0.1 0-0.1 0.3-0.1 0.4-0.1 0.3 0 0 0.2-0.2 0.2z"/><path class="i" d="m149.9 73q0.2 0.1 0.4 0.1 0.3-0.1 0.3-0.2c0-0.1-0.1-0.2-0.4-0.2-0.2 0-0.5 0-0.6 0.1q-0.1 0-0.1 0.1c0 0.1 0.1 0.1 0.3 0.1z"/><path class="i" d="m159.6 70.3c-0.2-0.2-0.4-0.4-0.5-0.6-0.1-0.1 0-0.3-0.1-0.5 0-0.2-0.2-0.5-0.4-0.7-0.1-0.2-0.2-0.4-0.1-0.6 0.1-0.2 0.4-0.4 0.8-0.4q0.4-0.1 0.8-0.1 0.2 0 0.4 0c0-0.1 0.1-0.1 0.2-0.1 0.1 0 0.1 0.1 0.1 0.1 0 0.1 0 0.1-0.1 0.2-0.2 0.1-0.3 0.3-0.4 0.4q-0.1 0.2-0.1 0.4-0.1 0.2-0.2 0.4 0 0.1-0.1 0.3 0 0.1 0 0.3c-0.1 0.1 0 0.2-0.1 0.3q0 0.1 0 0.1 0 0.1 0 0.2c0 0 0 0.1 0 0.1 0 0-0.1 0.1-0.2 0.2z"/><path class="i" d="m157.6 69.2q0.1 0 0.2 0c0.1 0 0.1 0 0.2 0 0.2 0 0.2-0.1 0.2-0.2 0-0.2-0.2-0.4-0.5-0.5-0.2-0.1-0.6-0.2-0.9-0.2-0.4 0.1-0.7 0.3-0.8 0.4-0.1 0.2-0.1 0.4 0.2 0.5q0.2 0 0.4 0.1 0.2 0 0.3-0.1c0.2 0 0.3 0.1 0.5 0q0.1 0 0.2 0z"/><path class="i" d="m157.7 68.1c-0.2 0-0.2 0-0.3-0.1q-0.1 0-0.1-0.1c0.1 0 0.3-0.1 0.4 0q0.2 0 0.2 0.1c0 0-0.1 0.1-0.2 0.1z"/><path class="i" d="m147.5 66.7c0.1 0 0.1 0.1 0.3 0.1q0.1 0 0.3 0c0.2 0 0.4-0.1 0.5-0.2q0.1-0.2 0-0.3c-0.1 0-0.3-0.1-0.4-0.1q-0.2-0.1-0.4-0.1c-0.2-0.1-0.4-0.1-0.6-0.1-0.3 0.1-0.4 0.2-0.4 0.3q0 0.1 0.2 0.2c0.1 0.1 0.1 0.1 0.5 0.2z"/><path class="i" d="m148.6 67q0-0.1 0.1-0.1c0 0 0.1-0.1 0.2-0.1 0.1 0.1 0 0.1 0 0.2q0 0-0.1 0.1c0 0-0.1 0-0.2 0z"/><path class="i" d="m156.7 71.9c0.2 0.1 0.4 0.1 0.6 0.1 0.1-0.1 0.1-0.2 0-0.3 0 0-0.1 0-0.2-0.1q-0.2 0-0.3 0c-0.3 0-0.5-0.1-0.7 0-0.1 0.1-0.2 0.2-0.2 0.2 0.1 0.1 0.3 0.2 0.6 0.2z"/><path class="i" d="m166.4 80.2q0.1 0.2 0.5 0.3 0 0 0.1 0 0.3 0.1 0.6 0c0.6-0.1 0.5-0.4 0.5-0.6 0-0.2 0.1-0.5-0.8-0.4-0.4 0-1 0.1-1.2 0.3-0.1 0-0.1 0.1 0 0.1 0.1 0.1 0.2 0.2 0.3 0.3z"/><path class="i" d="m225.9 95.2q0.1 0.2 0.4 0.3 0 0 0.1 0 0.3 0.1 0.6 0c0.6-0.1 0.5-0.3 0.5-0.6 0-0.2 0.1-0.5-0.7-0.4-0.4 0.1-1 0.1-1.3 0.3-0.1 0.1 0 0.1 0 0.2 0.1 0 0.2 0.2 0.4 0.2z"/><path class="i" d="m167.4 77.5c-0.2 0-0.5-0.1-0.5-0.2-0.1 0 0.1-0.1 0.2-0.1 0.2-0.1 0.5-0.3 0.8-0.1 0.2 0 0.3 0.1 0.3 0.2 0 0.1-0.3 0.2-0.5 0.2z"/><path class="i" d="m114.6 66.2c0.4 0.1 0.4 0.1 0.9 0.1 0.3-0.1 0.7-0.1 1-0.2 0.4-0.1 0.3-0.3 0.4-0.5 0.1-0.1 0.1-0.2-0.2-0.3-0.2-0.1-0.5-0.2-0.8-0.3-1.1-0.2-2.6-0.2-3.7 0-0.7 0.1-1.5 0.3-1.7 0.6-0.2 0.2 0 0.5 0.5 0.7 0.5 0.2 1.3 0.2 1.9 0.2q0.3 0 0.5-0.1 0.3 0 0.6 0c0.2 0 0.4 0 0.6-0.2z"/><path class="i" d="m56.5 96.5c0.5 0.1 0.5 0.1 1 0 0.3 0 0.7-0.1 1-0.2 0.3-0.1 0.2-0.3 0.3-0.4 0.1-0.2 0.1-0.3-0.1-0.4-0.2-0.1-0.6-0.2-0.9-0.3-1-0.2-2.5-0.2-3.6 0-0.7 0.1-1.5 0.3-1.7 0.6-0.2 0.3-0.1 0.6 0.4 0.8 0.6 0.1 1.3 0.2 2 0.1q0.2 0 0.5 0 0.3 0 0.6 0c0.2 0 0.4-0.1 0.5-0.2z"/><path class="i" d="m116.3 66.7c0.4-0.2 0.3-0.1 0.8-0.2 0.2 0 0.2 0 0.4 0 0.2 0 0.4 0.2 0.4 0.3 0 0-0.4 0.1-0.5 0.2-0.2 0-0.3 0-0.5 0z"/><path class="i" d="m116.2 83.9c0.4 0.1 0.9 0.1 1.1 0 0.2-0.2 0-0.3-0.2-0.4-0.3-0.2-0.9-0.3-1.4-0.3-0.5-0.1-1 0.2-1.1 0.3-0.1 0.4 1.4 0.6 2 0.6z"/><path class="i" d="m113.7 105.2c0.4 0.1 0.8 0.1 1.1-0.1 0.1-0.1 0-0.2-0.2-0.3-0.3-0.2-1-0.3-1.4-0.3-0.5-0.1-1 0.2-1.1 0.3-0.1 0.4 1.3 0.6 2 0.6z"/><path class="i" d="m120.4 84.2c-0.1 0-0.4 0.1-0.5 0.1-0.1 0-0.1-0.1-0.2-0.1-0.1 0-0.3-0.1-0.3-0.1q-0.1-0.3 0.4-0.4 0.4-0.1 0.8 0c0.2 0.1 0.3 0.3 0 0.4z"/><path class="i" d="m169 68.5c0.7 0.1 1.4 0.1 2.1 0.1 0.4-0.1 1-0.1 1.2-0.3 0.5-0.4-1.9-0.8-2.7-0.8-0.6-0.1-1.4-0.1-2-0.1-0.4 0-1.2 0.2-1.4 0.3-0.3 0.2 0 0.4 0.4 0.6 0.9 0.2 2.1 0.2 3.2 0.3z"/><path class="i" d="m168.9 68.7c0 0.1 0 0.3 0.2 0.3 0 0.1 0.2 0.2 0.3 0.2 0.2 0 0.4-0.1 0.6-0.1 0 0 0.1-0.1 0.1-0.2-0.1 0-0.2 0-0.3-0.1q-0.2 0-0.5-0.1-0.1 0-0.3 0c-0.1 0-0.2 0-0.3 0z"/><path class="i" d="m174.8 69q0-0.1 0.1-0.2c0.2 0 0.4 0 0.4 0.1 0.1 0 0.1 0.1 0.1 0.2q-0.1 0.1-0.4 0.1c-0.2 0-0.3-0.1-0.3-0.2z"/><path class="i" d="m182.7 75.8c0.2 0 0.3 0 0.4-0.1 0.3 0 0.3-0.2 0.1-0.3-0.2-0.1-0.8-0.2-1.3-0.2-0.2 0-0.6 0.2-0.4 0.3 0.1 0 0.2 0.1 0.3 0.2 0.2 0 0.5 0.1 0.8 0.1z"/><path class="i" d="m90.1 70.4c0.2 0 0.2 0 0.4 0q0.3 0.1 0.5 0c0.4-0.1 0.6-0.3 0.7-0.4q0.1-0.2-0.2-0.4-0.3-0.2-0.9-0.2c-0.5 0-0.8 0-1 0.1-0.2 0.1-0.5 0.3-0.5 0.4q-0.1 0.2 0.2 0.4c0.2 0 0.6 0.2 0.8 0.1z"/><path class="i" d="m91.4 69.2c-0.1 0-0.2 0-0.2 0-0.1-0.1 0.1-0.2 0.2-0.2 0.1-0.1 0.3-0.1 0.4-0.1q0.2 0 0.2 0.1 0.2 0.1 0.1 0.1c-0.1 0.1-0.2 0.2-0.3 0.1z"/><path class="i" d="m77.6 72.7c0.2 0 0.3 0 0.4 0q0.4-0.1 0.7-0.3c0.2-0.1 0.3-0.3 0.3-0.4 0-0.1-0.4-0.2-0.6-0.2-0.3-0.1-0.8 0-1 0.1-0.5 0.1-0.9 0.4-0.8 0.6 0 0.3 1.1 0.3 1 0.2z"/><path class="i" d="m80.1 71.5q-0.1 0-0.3 0.1c0-0.1-0.2-0.1-0.2-0.1q0-0.1 0.1-0.2 0.1-0.1 0.3-0.1c0.2 0 0.2 0.1 0.3 0.1 0.1 0.1 0.1 0.1 0 0.1 0 0-0.1 0.1-0.1 0.1z"/></g><path class="x" d="m165.9 105.9c0 7.1-10.5 12.8-23.4 12.8-12.9 0-23.3-5.7-23.3-12.8 0-7.1 10.4-12.9 23.3-12.9 12.9 0 23.4 5.8 23.4 12.9z"/><path class="y" d="m106.2 108.2c0 2.5-3.8 4.6-8.4 4.6-4.6 0-8.4-2.1-8.4-4.6 0-2.6 3.8-4.7 8.4-4.7 4.6 0 8.4 2.1 8.4 4.7z"/><path class="z" d="m228.8 112.8c0 2.5-3.7 4.6-8.3 4.6-4.7 0-8.4-2.1-8.4-4.6 0-2.6 3.7-4.7 8.4-4.7 4.6 0 8.3 2.1 8.3 4.7z"/><path class="A" d="m99.9 117.5l5.6 85.8 71.6-3.2 0.8-82.4c0 0-56.9-2.1-78-0.2z"/><path class="B" d="m110 204.3l-3.8-87.6 24.6-0.4v86.9z"/><path class="C" d="m144.3 116.3l0.7 88.3h2.4l0.6-88z"/><path class="D" d="m161.7 117v87.8l7.4-1.2-1.6-86.2z"/></g></svg>
