<svg xmlns="http://www.w3.org/2000/svg" version="1.2" viewBox="0 0 248 206" width="248" height="206"><defs><linearGradient id="P" gradientUnits="userSpaceOnUse"/><radialGradient id="g1" cx="0" cy="0" r="1" href="#P" gradientTransform="matrix(143.686,0,0,143.686,86.072,68.623)"><stop stop-color="#fff"/><stop offset="1" stop-color="#2b2b2b"/></radialGradient><radialGradient id="g2" cx="0" cy="0" r="1" href="#P" gradientTransform="matrix(222.301,0,0,222.301,220.336,198.656)"><stop stop-color="#2b2b2b"/><stop offset="1" stop-color="#fff"/></radialGradient></defs><style>.a{fill:#00b0ef}.b{fill:#0065d0}.c{mix-blend-mode:multiply;fill:url(#g1)}.d{mix-blend-mode:multiply;fill:#84d1f6}.e{opacity:.3;mix-blend-mode:multiply;fill:#1cb6f0}.f{fill:#72bb32}.g{fill:#098137}.h{fill:#b8d424}.i{mix-blend-mode:screen;fill:url(#g2)}.j{mix-blend-mode:overlay;fill:#fff}.k{opacity:.7;mix-blend-mode:multiply;fill:#22613c}.l{mix-blend-mode:multiply;fill:#114a9d}.m{fill:#fff}.n{fill:#215a8c}.o{fill:#dbf1fc}</style><path class="a" d="m235 103.5c0 55.8-45.2 101.1-101 101.1-55.9 0-101.1-45.3-101.1-101.1 0-55.8 45.2-101.1 101.1-101.1 55.8 0 101 45.3 101 101.1z"/><path fill-rule="evenodd" class="b" d="m235.2 103.5q0 0 0 1.8c-0.1 1.2 0 3-0.2 5.3-0.3 4.7-1 11.5-3.3 19.9-2.3 8.4-6 18.5-12.6 28.8-6.5 10.2-15.8 20.8-28.2 29.3-6.3 4.2-13.3 8-20.9 10.9-7.5 3-15.8 4.8-24.4 5.8-17.2 2-35.9-0.7-53-8.6-17-7.8-32.4-20.6-43.3-37-10.9-16.3-17.1-36.2-17.3-56.2 0-5 0.2-10 0.9-15 0.7-4.9 1.7-9.9 3.1-14.7 2.9-9.6 7.1-18.7 12.5-27 10.9-16.6 26.5-29.6 43.8-37.3 8.6-3.9 17.7-6.4 26.7-7.7 2.3-0.3 4.5-0.6 6.8-0.8 1.1 0 2.2-0.1 3.3-0.2q1.7 0 3.4-0.1c2.3-0.1 4.4 0.1 6.5 0.1 2.3 0.2 4.5 0.3 6.6 0.6 8.6 1 16.9 3 24.5 6 7.6 2.9 14.6 6.7 20.8 10.9 12.5 8.6 21.7 19.2 28.3 29.4 6.6 10.3 10.2 20.4 12.5 28.8 2.3 8.4 3 15.2 3.3 19.9 0.2 2.3 0.1 4.1 0.2 5.3q0 1.8 0 1.8zm-0.3 0q0 0-0.1-1.8c0-1.2 0-3-0.2-5.3-0.4-4.6-1.2-11.4-3.5-19.8-1.1-4.2-2.8-8.7-5-13.4-2.1-4.8-4.9-9.7-8.2-14.7-6.7-9.9-16.2-19.8-28.6-27.9-12.2-8-27.4-13.9-44.1-15.8-2-0.3-4.1-0.4-6.3-0.5q-1.6-0.1-3.2-0.1h-1.6-1.6q-1.6 0-3.2 0.1c-1.1 0-2.2 0.1-3.3 0.2-2.1 0.1-4.3 0.5-6.5 0.7-4.3 0.7-8.7 1.6-13 2.9-2.2 0.5-4.3 1.3-6.5 2-2.1 0.9-4.2 1.6-6.3 2.6-16.8 7.3-32 19.7-42.7 35.7-10.8 16-17 35.4-17.2 55.1 0 4.9 0.3 9.8 0.9 14.7 0.8 4.9 1.7 9.7 3.1 14.4 2.8 9.4 7 18.4 12.4 26.5 10.8 16.2 26.2 28.8 43.2 36 2.1 1 4.3 1.7 6.4 2.5 2.2 0.7 4.3 1.5 6.5 2 4.3 1.2 8.8 2.1 13.1 2.7 2.2 0.2 4.4 0.5 6.6 0.6 1.1 0.1 2.1 0.2 3.2 0.2q1.7 0 3.3 0.1c2.2 0 4.3-0.1 6.4-0.1 2.2-0.2 4.3-0.3 6.3-0.6 16.8-2 31.9-8 44.2-16 12.3-8.1 21.8-18.1 28.5-28 3.4-5 6.1-9.9 8.2-14.7 2.2-4.7 3.9-9.2 5-13.4 2.4-8.4 3.1-15.2 3.5-19.8 0.2-2.3 0.2-4.1 0.2-5.3q0.1-1.8 0.1-1.8z"/><path class="c" d="m235 102.9c0 55.8-45.2 101-101 101-55.9 0-101.1-45.2-101.1-101 0-55.8 45.2-101.1 101.1-101.1 55.8 0 101 45.3 101 101.1z"/><path class="d" d="m110.4 200.2c1.1 0.7 2.2 1.4 3.4 2 0.4 0.2 0.7 0.4 1.1 0.6q0.9 0.1 1.8 0.3 1.2-2.4 2.4-4.8-0.3-1.2-0.8-2.3c-0.6-1.5-1.5-3.1-1.8-4.6-0.5-2.8-0.3-5.7 1.4-8.1 2.1-2.9 5.9-6.1 6.4-9.7 0.2-0.9 0.3-1.9 0.8-2.6 2.6-3.8 6.3-6.6 9.1-10.2 3.7-4.8 5-9.4 7.1-15 1.7-5 7-9.6 6.7-15.1-0.5-7.4-8.7-7.8-14.1-10.3-5.5-2.6-11.9-5.5-15.1-11-2.9-5.1-4.6-13.3-9.7-16.6-2.4-1.5-3.3 0.2-5.4-0.3-1.6-0.4-3-1.2-4.5-1.6-4.8-1.3-8.8 2.8-11.8 5.9-1.2 1.2-5.3 5.4-7.2 2.8-3.1-4.2-4.9-15.4 3.3-13.6 4.9 1 11-3.7 8.6-9-1-2.1-2.8-2.4-4.7-3.1-1.8-0.6-3.6-1.1-4.8-2.7-1.2-1.7 1.7-3.7 2.9-4.2 3.1-1.1 8.9-3 11.7-0.3 1.9 1.7 4.7 6.2 7.5 5.8 5.9-1 5.2-4.9 7-8.7 2.1-4.3 7.2-4.1 11.2-4 6.2 0.1 12-1.6 17.9 0.4 4.8 1.7 6.1-2.5 7.7-6.2 1-2.3 2-4.7 2.9-7.1 1-2.6 2.6-5.2 3-7.9 0.9-5.9-4.6-10.9-10.3-10.9-7 0-14 1.6-21 0.6-2.4-0.4-4.7-0.9-6.3-2.9-2.3-2.8-3.4-6.6-7.6-7.1-0.6-0.1-1-0.8-0.6-1.4 2.8-5 7.6-3.9 12.3-6 3.2-1.4 4.8-4.8 6-8.6-36.7 2.5-68 24.6-83.5 55.9 2.6 0.2 6.4 0.3 7.6 2.2 0.9 1.4 1.1 2.5 1.2 4.2 0.3 3.6 1.6 4.6 4.5 5.7 9 3.5 5 18.5 10.6 24.7 2.2 2.5 8.3 9.6 1.7 11.4-2.5 0.7-5.1 0.4-7.8 0.7-9.3 0.8-0.3 9.5 2.8 12.3 6.4 5.8 2.6 9.7-1.7 15.8-2.4 3.5 4 7.8 5.3 11.5 2 5.7 1.6 10.9 2.2 16.8 0.6 5.5 3.8 4.7 6.9 7q2.9 2.2 5.3 4.8c3.8 4.1 8.3 8 11.4 12.7 2.7 4.2 8.4 6 12.5 8.7 0.5 0.3 2.3 1.5 4.5 3.1z"/><path fill-rule="evenodd" class="d" d="m235 103.5c0 44.4-28.6 82.2-68.5 95.7 0.5-0.6 0.9-1.2 1.4-1.8 3.5-4.6 9.4-4.8 13.4-8.6 2.1-2 2.8-5.3 3.5-8 0.9-3 1.9-5.5 3.9-8 0.9-1.3 2.3-2.8 2.7-4.4 0.7-2.8 0.2-4.7-1.6-6.9-2.2-2.8-4.4-4.7-1.9-8.7 1.1-1.7 2.5-3 3.6-4.6 3.1-4.6-1.6-9.6-4.7-12.8-1.5-1.6-3.4-1.8-5.5-1.6-1.9 0.3-5.1 2.4-6.5-0.8-0.9-2.1-1.1-4.5-1.7-6.7-1.1-5.1-7.3-11.3 1.8-13.7 3.7-1 6.2-1.9 8.4-5.1 1.5-2.2 2.2-5 3.1-7.4 2.2-6.1 9.5 0 13.4 0.5 2.1 0.3 3.3-1.3 4-2.9 3-6 9.7-0.3 13.6 1.9 0.7 0.4 1.4-0.3 1.6-1 1-2.8 4.5-7.9 2-11-1.4-1.6-2.2-2.3-4.2-2.7-4.9-1-2.1-4.9-4.1-7.1-2.3-2.6-4.8-2-7.9-1.1-3.3 1-7.5 2.8-7.8-2.4-0.1-2-0.3-3.6-1.2-5.4-0.3-0.6-1-0.3-1.4 0-3.8 2.9-12.3 5.4-11.1-2.2 0.5-3.4 0.5-6.7 0.4-10.2-0.2-4.4-1.1-12 4.6-13 1.5-0.3 3.9-1.3 4.5-2.9 1.3-3.8-2.8-6.6-5-9-3.8-4.3-1.3-8.4 2.2-12.2 27.2 18.1 45 49 45 84.1zm-26.9-50.8c0.2-0.5 0-1.1-0.7-1.1-2.5-0.1-4.9 0.6-6.3 2.7-1.6 2.2-1.3 5.1-0.7 7.6 0.2 0.7 1 0.5 1.5 0.2 2.7-2.1 5-5.4 6.2-8.6 0.1-0.2 0.1-0.5 0-0.8z"/><path class="e" d="m80.9 72c-8.5-3.4-9.4-12.5-13.8-19.4-3.5-5.6-8.3-8.9-13.5-10.3-3 3.9-5.8 8.1-8.2 12.5 10.7-0.7 20.6 4.4 21.3 18.1 0.5 9.3-2.5 17.3-7.1 25.4-5.2 9.2-13.7 20.3-13.8 31.4 0 5.5 4.3 19.8 12.7 14.8 3.8-2.3 6.6-5.7 9.9-8.6 2.8-2.5 10.5-8.3 13.9-3.4 5 7.2-0.9 17 5.7 24.4 12 13.4 20.1-7 24.6-15.8 2.5-5 6.1-11.1 12.1-12.5 2.9-0.7 5.4-0.7 8.3-0.2 7.3 1.4 10.5-7.8 10-13.3-0.4-6-5.7-25.3 3.6-27.9 6.6-1.9 10.1 3.7 14.7 7.4 7.8 6.3 16.8-5.1 7.7-10.4-4-2.4-8.5-3.1-13.1-3.3-8.8-0.4-27.8 1.3-28-12 0-7.5 3.9-14.4 3.8-21.9-0.1-14.8-11.8-4.1-17.8 0.8-4.2 3.5-9.6 6.1-14.4 2-2-1.7-2.9-4.7-4.2-6.9-0.7-1.4-1.7-3.7-3.1-4.5-5.3-2.9-5.5 5.9-5.3 7.9 0.4 6.9 2.9 13.2 1.2 20-0.7 2.7-3.7 7.1-7.2 5.7z"/><path class="e" d="m47.9 94.9c4.1-6 8.4-13.4 5.6-20.9-3.1-8.6-10.1-9.8-15.1-3.3-3.6 10.3-5.5 21.3-5.5 32.8 0 5.7 0.5 11.2 1.4 16.6 2.4-9.9 7.8-16.9 13.6-25.2z"/><path class="e" d="m134 2.4c-14.6 0-28.4 3.1-40.9 8.7 2.9 10 8.2 18.4 21 16.8 10.6-1.3 19.7-8.2 30.6-4.8 6.5 2 9.2 8.1 9.1 14.3 0 4.1-1.9 8.2-3.6 11.9-1.6 3.6-5 9.7-1.3 13.6 3.2 3.4 8.4 4.9 12.9 3.1 10.9-4.5 1.6-17.7 4.8-25.5 4.3-10.6 19.6-16 29.4-10.1 11 6.6 8 19.6-0.2 27.3-6.2 5.8-22.7 18.1-9 25.4 6.6 3.5 13.9 3.2 20.7 5.8 11.7 4.5 13.3 14.9 5.5 24.1-4.5 5.3-11 8.3-17.7 9.4-9.6 1.6-19.2-6.3-28.7-2.4-24.4 9.9 13.6 51.4-18.4 60.3-10.9 3-12-11.5-14.9-18.1-4.9-10.8-12-2.2-14.7 5-2.2 5.7-3.5 11.6-5.9 17.2-4.7 11.4-15.9 9.7-22.3 1-5.2-7-9.1-19.1-19.6-18.2-4.6 0.4-9.7 1.5-14.4 1.1 18.5 22.2 46.4 36.3 77.6 36.3 55.8 0 101-45.3 101-101.1 0-55.8-45.2-101.1-101-101.1z"/><path class="f" d="m96.3 60.3c2.7 0.6 3.7 3.9 4.9 6 3.7 6.3 4.5-0.4 6-3 1.5-2.4 1.1-4.3 4.1-5.6 2.9-1.4 6.1-2 9.4-2.5 4.4-0.7 8.4-1.3 12.9-0.8 7 0.7 11.4 1.4 14.5-6.9 1.6-4.1 4.5-12.3-2.2-14.1-4.7-1.2-8.6-0.4-13.2 0.6-4.5 0.9-8.4 1.1-12.9-0.1-3.4-1-5.6-4.4-9.2-5.6-2.5-0.8-6.1-1.6-8-3.6-4.2-4.4 1.4-9.4 5.1-11.7 1.3-0.8 3.4-1 4.9-1.2 5.4-0.6 8-3.3 10.6-7.3q0.6-0.8 1.1-1.6c-34.5 3.3-63.9 23.9-79.5 53 0.5 0.4 1.1 0.7 1.9 0.7q0.9-0.1 1.7 0c1.1 0.3 2.8 0.7 3.4 1.9 1.7 3.4 1.7 9.7 7 10.2 1.4 0.1 2.8 0.3 4 1.2 3.8 2.8 1.8 8.8 3.1 12.7 2.5 7.4 5.2 14.8 9.2 21.5 0.6 0.9 0.1 2.2-0.8 2.7-3.6 1.5-7.3 1.5-11 2.5-7.8 1.9 4.7 9.6 6.2 11.3 6.1 7.2-0.3 11.2-5.1 16.1 3.6 3.4 6.1 6.8 7 12 1.5 7.8 1.2 16.2 7.6 22 5.7 5.3 11.7 9.7 17 15.6 6 6.6 13.4 9.4 21 13.2-1.5-4.1-6.6-8.2-5-12.7 2-5.5 7.1-8.3 8.3-14.3 0.5-2.6 3-4.5 4.9-5.9 3.6-2.8 6.9-5.1 8.5-9.7 2.8-8.3 5.8-14.3 10.6-21.5 8.9-13.5-23.3-12.2-27.1-22.4-3.1-8.1-9.7-18.1-19.8-17.7-5.3 0.2-8.8 5.4-13.9 6.9-0.6 1.5-1.4 2.7-2.5 3-2.3 0.7-3.7-2-4.8-3.5-2.1-3-4.2-6.4-3.3-10.2 1-4 3.2-7.5 4.4-11.4-1.7-1.2-5.2-2.6-5.5-4-0.6-2.9-0.2-5.8-0.1-8.8 0.1-0.9 0.7-1.7 1.5-2 6.9-2.4 15.6-6.8 23.1-5z"/><path fill-rule="evenodd" class="g" d="m96.3 60.3l-2.6-0.4c-0.9 0-1.8 0.1-2.7 0.1-0.9 0-1.7 0.2-2.6 0.3-0.9 0.2-1.7 0.4-2.6 0.6-0.8 0.2-1.7 0.5-2.5 0.8-0.8 0.3-1.7 0.5-2.5 0.8l-5 1.9-2.4 0.9c-0.9 0.3-1.5 1-1.6 1.9-0.1 0.8-0.1 1.7-0.1 2.6-0.1 0.9-0.2 1.8-0.1 2.6 0 0.9 0 1.8 0.1 2.7 0.1 0.4 0.1 0.9 0.3 1.2 0.2 0.4 0.5 0.7 0.8 1 1.4 1 3 1.7 4.5 2.7 0.1 0 0.1 0.1 0.1 0.1-0.5 1.4-0.9 2.7-1.5 4l-1.7 3.9c-0.3 0.6-0.5 1.3-0.7 1.9-0.2 0.7-0.5 1.4-0.6 2.1 0 0.3-0.1 0.7-0.1 1l0.1 1c0 0.7 0.1 1.4 0.4 2.1 0.2 0.6 0.5 1.3 0.8 1.9 0.3 0.6 0.6 1.2 1 1.8 0.4 0.6 0.8 1.2 1.2 1.7 0.4 0.6 0.8 1.2 1.2 1.8 0.4 0.5 0.9 1.1 1.4 1.5 0.6 0.3 1.2 0.4 1.9 0.3 0.6-0.1 1.2-0.6 1.6-1.2 0.4-0.5 0.7-1.2 0.9-1.8 0.1-0.1 0.1-0.1 0.2-0.1 3.1-1 5.7-3.3 8.5-5.1 0.7-0.3 1.4-0.8 2.2-1.1l1.3-0.4 1.2-0.2c1.7-0.3 3.4-0.1 5 0.4 3.3 0.8 6.2 2.9 8.5 5.3 2.3 2.4 4.1 5.3 5.6 8.3 0.4 0.7 0.7 1.5 1 2.3 0.4 0.7 0.7 1.5 1 2.2 0.8 1.4 2.1 2.5 3.5 3.3 2.8 1.7 6 2.8 9.1 3.9 3.2 1 6.4 2 9.4 3.4 1.6 0.7 3.1 1.5 4.4 2.7 0.6 0.5 1.1 1.2 1.6 2 0.3 0.9 0.5 1.8 0.4 2.7-0.1 0.9-0.4 1.7-0.8 2.5-0.4 0.7-0.9 1.5-1.3 2.2l-2.6 4.2c-0.8 1.4-1.6 2.9-2.4 4.3-0.8 1.5-1.4 3.1-2.1 4.5-1.4 3.1-2.3 6.2-3.6 9.4-0.8 1.5-1.8 2.9-3 4.1-1.2 1.2-2.6 2.2-3.9 3.3-2.6 2-5.5 3.9-6 7.2-0.8 3.4-3.2 6.1-5.1 8.7-0.5 0.6-1 1.3-1.4 2l-0.6 1-0.6 1.1-0.2 0.6c0 0.1-0.1 0.2-0.1 0.2l-0.1 0.3c-0.1 0.4-0.1 0.7-0.2 1.1q0 1.2 0.4 2.3c1.1 2.9 3.7 5.3 5 8.6 0.1 0.3-0.1 0.6-0.3 0.7q-0.3 0.1-0.5 0l-4.9-2.3c-1.6-0.8-3.2-1.5-4.8-2.4q-2.4-1.3-4.7-2.8c-0.7-0.5-1.5-1-2.2-1.5l-2.2-1.8c-1.2-1.2-2.5-2.6-3.8-3.8-1.3-1.3-2.4-2.6-3.8-3.8-1.3-1.1-2.6-2.4-4-3.5l-4.1-3.5c-1.3-1.2-2.7-2.4-4-3.6-1.4-1.3-2.6-2.8-3.4-4.4-1.8-3.3-2.5-7-3.1-10.5l-0.8-5.4c-0.3-1.7-0.6-3.4-1.2-5-0.6-1.6-1.4-3.2-2.4-4.6q-1.6-2-3.6-3.8c-0.3-0.3-0.3-0.8 0-1.1 1.6-1.7 3.4-3.2 4.8-4.8 1.5-1.6 2.7-3.5 2.6-5.5-0.1-0.9-0.4-1.9-1-2.8q-0.3-0.6-0.8-1.3l-0.6-0.7c-0.1-0.1-0.2-0.3-0.4-0.4-1.8-1.4-3.7-2.8-5.3-4.4-0.9-0.8-1.7-1.6-2.4-2.7-0.4-0.5-0.7-1.1-0.8-1.9-0.1-0.8 0.4-1.8 1-2.2 1.2-1 2.4-1 3.5-1.3q1.7-0.3 3.4-0.6c1.1-0.2 2.2-0.4 3.2-0.6 0.6-0.1 1.1-0.4 1.6-0.5l0.8-0.3 0.4-0.1c0.1-0.1 0.2-0.1 0.2-0.1 0.3-0.2 0.5-0.6 0.6-0.9 0-0.1 0-0.2 0-0.2-0.1-0.1 0-0.1-0.1-0.2v-0.2q0 0 0 0h-0.1q0 0 0.1 0h-0.1q0-0.1 0 0v-0.1l-0.2-0.4-1.6-3c-1.2-2-2-4.2-3-6.2-0.9-2.1-1.6-4.3-2.5-6.4l-1-3.2c-0.4-1.1-0.8-2.1-1.1-3.4-0.5-2.4-0.2-4.7-0.5-6.8-0.1-1.1-0.3-2.1-0.8-3-0.4-0.9-1.2-1.6-2.1-2-0.9-0.4-2-0.5-3.1-0.7-1.3-0.1-2.5-0.7-3.4-1.6-1.8-1.9-2.3-4.3-3-6.4-0.2-0.5-0.3-1.1-0.5-1.6q-0.1-0.3-0.3-0.7c-0.1-0.3-0.2-0.4-0.3-0.6-0.6-0.6-1.7-0.9-2.8-1.2h0.1-1.5-0.1-0.6c-0.2-0.1-0.4-0.1-0.6-0.2-0.2 0-0.4-0.2-0.6-0.2q-0.3-0.2-0.5-0.4c-0.3-0.2-0.3-0.5-0.2-0.8l3.2-5.4 3.4-5.2 3.8-5 4.1-4.8c1.4-1.4 2.8-3 4.3-4.4 1.6-1.4 3.1-2.9 4.6-4.3 1.7-1.3 3.3-2.6 4.9-3.9 1.7-1.2 3.4-2.4 5.1-3.6 1.8-1.1 3.5-2.2 5.3-3.3 1.9-1 3.7-2 5.5-2.9 1.9-0.9 3.8-1.9 5.7-2.7 1.9-0.7 3.8-1.5 5.8-2.2 2-0.7 3.9-1.4 6-1.9 2-0.5 4-1.1 6-1.6l6.1-1.1 6.2-0.8c0.3 0 0.4 0.1 0.5 0.3q0 0.2-0.1 0.3c-0.9 1.4-1.9 2.9-3 4.3-1.1 1.3-2.4 2.5-4 3.3-1.5 0.9-3.3 1.3-5 1.5q-1.3 0.1-2.5 0.3l-1.2 0.3c-0.3 0.2-0.8 0.3-1.1 0.5-1.4 0.9-2.8 2-3.9 3.2-1.2 1.2-2.2 2.6-2.4 4.2-0.3 1.6 0.6 3.2 1.9 4.2 1.2 1.1 2.8 1.7 4.4 2.2 1.6 0.6 3.3 0.9 4.8 1.9 1.6 0.9 2.8 2.1 4.2 3 1.3 1 2.9 1.7 4.6 2 1.6 0.4 3.3 0.4 5 0.5 3.4-0.1 6.7-0.9 10.1-1.5 3.4-0.5 7-0.7 10.3 0.5 0.8 0.3 1.5 0.9 2.1 1.5 0.6 0.7 1 1.5 1.2 2.4 0.3 1.7 0.1 3.5-0.3 5.2-0.3 1.6-0.9 3.3-1.5 4.9-0.6 1.6-1.4 3.1-2.5 4.5-1.1 1.4-2.6 2.3-4.3 2.7-1.7 0.3-3.5 0.2-5.2 0.1-3.4-0.5-6.8-0.6-10.2-0.3-3.4 0.4-6.8 0.9-10.1 1.6l-2.5 0.7c-0.8 0.4-1.6 0.7-2.4 1-0.7 0.4-1.5 0.9-1.9 1.6-0.5 0.7-0.8 1.5-1.1 2.3-0.3 0.8-0.8 1.5-1.2 2.3-0.3 0.7-0.6 1.6-0.9 2.3-0.4 0.8-0.7 1.6-1.3 2.3-0.3 0.3-0.8 0.4-1.2 0.3-0.2-0.1-0.4-0.2-0.6-0.3l-0.4-0.5c-1.2-1.3-1.9-2.9-2.6-4.4-0.8-1.5-1.9-3-3.6-3.4zm-21.8 44.2c0 0.1 0 0 0 0zm-0.1 0q0 0 0 0zm21.9-44.2c1.7 0.4 2.8 1.9 3.6 3.4 0.8 1.5 1.5 3.1 2.6 4.4l0.5 0.4q0.2 0.2 0.5 0.3c0.4 0.2 0.8 0 1.2-0.3 0.6-0.6 0.9-1.4 1.2-2.2 0.3-0.8 0.6-1.6 1-2.4 0.4-0.7 0.8-1.5 1.1-2.3 0.3-0.8 0.6-1.6 1.1-2.3 0.5-0.7 1.2-1.2 2-1.6 0.8-0.4 1.6-0.6 2.4-1l2.4-0.7c3.4-0.8 6.8-1.3 10.2-1.7 3.4-0.3 6.9-0.2 10.2 0.2 1.7 0.2 3.5 0.2 5.1-0.1 1.7-0.3 3.2-1.2 4.2-2.6 1.1-1.3 1.8-2.9 2.4-4.4 0.6-1.6 1.2-3.3 1.5-4.9 0.4-1.7 0.6-3.4 0.2-5-0.3-1.7-1.5-3.1-3.1-3.6-3.2-1.1-6.7-1-10-0.4-3.4 0.5-6.7 1.4-10.2 1.5-1.7-0.1-3.4-0.1-5.1-0.5-1.7-0.2-3.4-1-4.8-2-1.4-1-2.7-2.2-4.2-3-1.4-0.9-3.1-1.3-4.7-1.8-1.6-0.6-3.3-1.2-4.7-2.3-0.3-0.3-0.6-0.6-0.9-1-0.3-0.3-0.5-0.7-0.7-1.1-0.4-0.8-0.6-1.8-0.5-2.7 0.3-1.8 1.4-3.3 2.6-4.6 1.2-1.2 2.6-2.3 4-3.3 0.5-0.2 0.8-0.3 1.2-0.5l1.3-0.4q1.3-0.2 2.6-0.3c1.7-0.3 3.3-0.6 4.8-1.4 1.4-0.8 2.7-1.9 3.7-3.2 0.9-1.1 1.7-2.3 2.5-3.5l-5.3 0.7-6.1 1.2c-2 0.4-4 1-6 1.5-2 0.6-3.9 1.3-5.9 1.9-2 0.7-3.8 1.5-5.7 2.3-2 0.8-3.8 1.7-5.7 2.6-1.8 0.9-3.6 2-5.4 3-1.8 1-3.5 2.2-5.2 3.3-1.7 1.1-3.4 2.4-5 3.6-1.7 1.2-3.2 2.6-4.8 3.9-1.6 1.3-3.1 2.8-4.6 4.2l-4.3 4.4-4 4.7-3.7 5-3.4 5.1-2.8 4.9q0.2 0.1 0.3 0.1c0.1 0 0.3 0.1 0.4 0.1h0.4l1.7 0.1h0.1c1.1 0.3 2.4 0.5 3.4 1.6 0.2 0.2 0.5 0.6 0.6 0.9q0.2 0.3 0.3 0.8c0.2 0.6 0.4 1.1 0.5 1.6 0.7 2.2 1.3 4.4 2.7 5.9 0.7 0.7 1.6 1.1 2.7 1.2 1 0.1 2.3 0.2 3.4 0.7l0.9 0.5 0.2 0.1c0.2 0.1 0.1 0.1 0.2 0.2l0.3 0.3c0.5 0.4 0.9 1 1.2 1.5 0.6 1.1 0.9 2.3 1 3.5 0.3 2.4 0.1 4.7 0.5 6.7 0.2 1 0.7 2.1 1 3.2l1.1 3.2c0.9 2.1 1.6 4.2 2.5 6.3 1 2 1.8 4.1 2.9 6.1l1.6 2.9 0.2 0.4 0.2 0.3 0.1 0.2c0 0 0.1 0.4 0.1 0.6 0 0.2 0 0.4 0 0.6-0.1 0.8-0.5 1.5-1.2 2l-0.3 0.1c-0.2 0.1-0.1 0.1-0.2 0.1l-0.4 0.2-0.8 0.3c-0.6 0.1-1.1 0.4-1.7 0.5-1.1 0.2-2.3 0.5-3.4 0.7-1.2 0.2-2.3 0.4-3.3 0.6-1.1 0.2-2.3 0.4-2.9 0.9-0.3 0.3-0.4 0.5-0.3 0.8 0 0.4 0.2 0.8 0.5 1.2 0.5 0.9 1.3 1.6 2.1 2.4 1.6 1.5 3.4 2.8 5.2 4.3 0.2 0.2 0.5 0.4 0.7 0.7l0.6 0.7c0.3 0.4 0.6 0.9 1 1.5 0.6 1.1 1 2.3 1.1 3.6 0.1 1.3-0.3 2.6-0.9 3.6-0.6 1.1-1.3 2.1-2.1 3-1.4 1.5-2.9 2.8-4.3 4.2q1.6 1.6 3.1 3.5c1.1 1.5 2 3.2 2.6 4.9 0.7 1.8 1 3.7 1.3 5.4l0.7 5.4c0.5 3.5 1.2 7 2.9 10 0.8 1.5 1.8 2.9 3.1 4.1 1.3 1.2 2.7 2.4 4 3.6l4.1 3.5c1.3 1.1 2.7 2.4 4 3.6 1.3 1.2 2.5 2.5 3.8 3.8 1.3 1.3 2.5 2.6 3.8 3.8l2 1.7c0.7 0.5 1.5 1 2.2 1.5 1.4 1 3 1.9 4.6 2.7 1.5 0.9 3.1 1.7 4.7 2.4l3.5 1.7c-1.3-2.4-3.2-4.5-4.3-7.3-0.3-0.8-0.5-1.7-0.4-2.6 0-0.5 0-0.9 0.2-1.4l0.1-0.3c0-0.2 0.1-0.2 0.1-0.3l0.3-0.6 0.5-1.1 0.7-1.2c0.4-0.7 1-1.4 1.4-2 2.1-2.7 4.3-5.2 5.1-8.3l0.3-1.3c0.1-0.4 0.3-0.8 0.5-1.2 0.5-0.8 1-1.5 1.6-2.1 1.2-1.2 2.6-2.2 3.9-3.2 1.4-1 2.7-2 3.8-3.1q1.8-1.8 2.9-3.9c1.3-3 2.2-6.3 3.7-9.3 0.7-1.5 1.2-3.1 2.1-4.5 0.8-1.5 1.6-3 2.4-4.4l2.7-4.3q0.6-1 1.2-2.1c0.4-0.7 0.6-1.4 0.7-2.2 0.1-0.8 0-1.5-0.3-2.3-0.4-0.6-0.8-1.3-1.4-1.8-1.2-1.1-2.7-1.9-4.1-2.6-3.1-1.3-6.2-2.3-9.4-3.4-3.1-1.1-6.3-2.2-9.2-4-1.4-0.9-2.8-2-3.7-3.5-0.4-0.8-0.7-1.6-1-2.3-0.3-0.8-0.6-1.5-1-2.3-1.4-3-3.3-5.8-5.5-8.2-2.2-2.4-5-4.4-8.2-5.2-1.6-0.4-3.2-0.6-4.8-0.4l-1.3 0.2-1.1 0.4c-0.8 0.2-1.5 0.7-2.2 1.1-2.8 1.7-5.3 4-8.6 5-0.2 0.6-0.5 1.3-1 1.8-0.4 0.6-0.9 1.2-1.7 1.3-0.7 0.2-1.5 0.1-2.1-0.4-0.6-0.4-1.1-0.9-1.5-1.5-0.5-0.6-0.8-1.2-1.2-1.8q-0.7-0.8-1.2-1.7c-0.4-0.6-0.7-1.3-1.1-1.9-0.3-0.6-0.6-1.3-0.8-1.9-0.2-0.7-0.3-1.4-0.4-2.1v-1.1c0-0.4 0-0.7 0.1-1.1 0.1-0.7 0.4-1.3 0.6-2 0.2-0.7 0.4-1.4 0.7-2l1.7-3.9c0.6-1.2 1-2.6 1.5-3.9-1.5-0.9-3.1-1.6-4.5-2.7-0.3-0.3-0.6-0.6-0.9-1-0.2-0.5-0.1-0.9-0.2-1.3-0.2-0.9-0.2-1.8-0.2-2.7 0-0.9 0.1-1.7 0.1-2.6 0.1-0.9 0.1-1.8 0.2-2.6 0.1-0.9 0.8-1.7 1.6-2l2.5-0.9 5-1.8c0.8-0.4 1.6-0.6 2.5-0.9q1.2-0.4 2.5-0.7c0.9-0.2 1.7-0.5 2.6-0.6 0.9-0.1 1.7-0.3 2.6-0.3 0.9-0.1 1.8-0.1 2.7-0.1zm27.2-56.9l0.8-0.1-0.4-0.6q-0.2 0.4-0.4 0.7zm-77.9 52.3q-0.2-0.1-0.4-0.2l0.1 0.7zm19.9 81q-0.3-0.3-0.6-0.5v1.1q0.3-0.3 0.6-0.6zm50.4 61.6q0.3 0.7 0.6 1.4l0.8-0.7zm-32.2-96q0 0 0 0l-0.1 0.1q0-0.1 0.1-0.1zm-6.5-22.1q0 0 0 0v-0.1q0 0 0 0.1z"/><path class="f" d="m232.3 103.6c-2.7-0.9-6.9-4.7-9.5-1.6-0.4 0.4-1.5 1.1-2.1 0.7-0.3 0.1-0.5 0.2-0.7 0.3-0.1 0-0.2 0.1-0.3 0.1q-0.1 0.2-0.2 0.4c-0.3 0.9-1.5 1.6-2.4 1.1-2.5-1.7-4.5-3.6-6.8-5.5-2.7-2.3-6 2.9-7.5 4.6-0.3 0.4-1 0.6-1.5 0.5-4.2-1.3-12.6-5.1-13.7 1.5-0.5 2.8-1.2 3.8-3.2 5.9-2 2.1-5.5 3.7-8 5.4-3.4 2.1-0.9 13.4 3.9 11.9 4.5-1.4 9.2-1.3 12.8 2.1 3.2 3.1 9.1 8.2 9.3 13.1 0.1 1.4-0.2 2.7-1.2 3.8-3.4 3.3-5.9 6.7-4.4 11.7 1.9 6.5 2.4 7.8-0.2 14.3-2.2 5.4-4.9 9.3-9.5 12.9-3 2.3-6 4.5-8.4 7.1 33-16.5 55.7-50.6 55.9-90q-1.1 0.2-2.3-0.3z"/><path fill-rule="evenodd" class="g" d="m234.4 110.9c-0.2 2.3-0.5 4.6-0.8 6.9-0.3 2.3-0.8 4.6-1.2 6.9-0.4 2.3-1.1 4.5-1.6 6.7-0.6 2.3-1.5 4.5-2.2 6.7-0.7 2.2-1.7 4.3-2.5 6.5-0.9 2.1-2 4.2-3 6.3-1.1 2-2.3 4-3.5 6.1-1.2 1.9-2.5 3.8-3.8 5.8-1.4 1.9-2.8 3.7-4.2 5.6-1.5 1.7-3.1 3.5-4.6 5.2-1.7 1.7-3.4 3.3-5 5-1.7 1.5-3.6 3-5.3 4.6l-5.6 4.2-5.9 3.8-6.1 3.4c-0.4 0.2-0.8 0-1-0.3-0.2-0.3-0.1-0.6 0.1-0.9 2.3-2.6 5.1-4.6 7.7-6.6 1.3-1.1 2.5-2.2 3.7-3.3 0.5-0.6 1-1.2 1.6-1.8 0.5-0.7 1-1.3 1.4-2l1.3-2.1c0.4-0.6 0.7-1.5 1.1-2.2 0.3-0.7 0.7-1.6 1-2.2 0.2-0.8 0.6-1.6 0.8-2.4q0.9-2.3 0.7-4.6c0-1.5-0.5-3.1-1-4.7-0.4-1.6-1-3.4-0.8-5.2 0-1.8 0.7-3.6 1.7-5.1 0.9-1.5 2.2-2.7 3.3-3.9 0.4-0.5 0.8-1.2 0.9-1.8 0.1-0.3 0.1-0.8 0.1-1.2 0-0.3-0.1-0.7-0.1-1.1-0.7-3-3-5.6-5.2-8-1.2-1.2-2.4-2.3-3.6-3.5-1.2-1.1-2.4-2.1-4-2.5-1.4-0.5-3.1-0.7-4.7-0.5-0.8 0-1.5 0.2-2.3 0.4l-1.3 0.3c-0.4 0-0.9 0.2-1.4 0.1-1 0-1.8-0.7-2.4-1.4-0.7-0.7-1-1.4-1.4-2.3-0.7-1.6-1-3.3-0.9-5.1 0-0.8 0.2-1.7 0.5-2.6 0.2-0.4 0.5-0.9 0.8-1.1l0.3-0.2 0.2-0.2 0.1-0.1 0.5-0.3c1.5-0.9 3-1.6 4.3-2.5 0.7-0.5 1.4-0.9 2-1.5l1-0.8c0.3-0.2 0.6-0.6 0.8-0.9 1.2-1.2 2-2.5 2.3-4.2 0.1-0.4 0.2-0.8 0.3-1.2 0.1-0.2 0.1-0.5 0.2-0.7l0.3-0.6c0.2-0.4 0.5-0.7 0.8-1 0.4-0.3 0.7-0.6 1.1-0.7 1.7-0.7 3.5-0.4 5.1 0 1.7 0.3 3.2 0.9 4.8 1.4l1.2 0.4q0.6 0.3 1.2 0.1c0.7-0.3 1.1-1.1 1.7-1.7 1-1.3 2.1-2.7 3.6-3.5 0.7-0.4 1.7-0.5 2.5 0 0.7 0.4 1.3 1 1.9 1.6 0.7 0.5 1.3 1.1 2 1.6l2 1.5 1 0.8c0.3 0.3 0.6 0.4 1.1 0.4 0.8-0.1 1.4-0.8 1.6-1.6q0-0.1 0-0.1c0.4 0 0.7-0.2 1-0.4q0 0 0.1 0c0.4 0.3 1 0.1 1.4-0.2 0.5-0.2 0.8-0.7 1.3-1 0.2-0.2 0.4-0.3 0.7-0.4 0.2-0.1 0.5-0.2 0.7-0.2q0.9-0.1 1.6 0.1c2.2 0.6 3.9 1.9 5.9 2.7-2-0.7-3.8-2.1-5.9-2.6q-0.7-0.2-1.5-0.1c-0.3 0-0.6 0-0.8 0.2-0.3 0-0.5 0.2-0.7 0.3-0.4 0.3-0.8 0.8-1.2 1.1-0.5 0.3-1.1 0.5-1.6 0.2h0.1c-0.4 0.2-0.7 0.4-1 0.4-0.2 0.8-0.8 1.6-1.7 1.7-0.5 0.1-0.9-0.1-1.2-0.4l-1-0.8-2-1.5c-0.7-0.5-1.3-1.1-1.9-1.6-0.7-0.5-1.3-1.1-2-1.6-0.7-0.4-1.6-0.3-2.3 0.1-1.5 0.8-2.5 2.1-3.6 3.4l-0.7 1c-0.3 0.3-0.6 0.7-1.1 0.8-0.4 0.2-0.9 0.1-1.3 0l-1.2-0.4c-1.5-0.5-3.1-1.1-4.8-1.4-1.6-0.3-3.3-0.5-4.8 0.1-0.4 0.1-0.7 0.4-1 0.6-0.2 0.3-0.6 0.6-0.7 1l-0.3 0.5q0 0.3-0.1 0.6c-0.1 0.4-0.2 0.8-0.3 1.2-0.1 0.4-0.2 0.8-0.3 1.2l-0.5 1.3c-0.4 0.7-0.9 1.4-1.5 2.1-0.3 0.3-0.5 0.6-0.9 0.9l-0.9 0.8c-0.6 0.6-1.4 1.1-2.1 1.5-1.4 1-2.9 1.8-4.3 2.7-0.7 0.4-1.2 0.9-1.5 1.6-0.3 0.7-0.4 1.5-0.4 2.3-0.1 1.6 0.3 3.2 0.9 4.7 0.6 1.4 1.6 2.9 3 3 0.6 0 1.5-0.3 2.3-0.5 0.8-0.2 1.7-0.4 2.5-0.4 1.7-0.3 3.5-0.1 5.2 0.4 1.8 0.5 3.2 1.6 4.5 2.8 1.3 1.1 2.5 2.2 3.7 3.4 2.3 2.5 4.7 5.1 5.6 8.7 0.1 0.5 0.1 0.9 0.1 1.4 0 0.4 0 0.8-0.1 1.4-0.1 1-0.6 1.8-1.2 2.6-1.2 1.2-2.3 2.4-3.1 3.8-0.9 1.3-1.4 2.8-1.5 4.3v1.1c0 0.4 0.2 0.8 0.2 1.2 0.2 0.7 0.5 1.5 0.7 2.3 0.4 1.7 1 3.3 1.1 5.1 0.1 1.8-0.2 3.6-0.8 5.3-0.2 0.8-0.6 1.6-0.9 2.4-0.3 0.8-0.7 1.5-1.1 2.3-0.3 0.8-0.6 1.5-1.1 2.3l-1.3 2.2c-0.5 0.7-1 1.4-1.6 2.1-0.6 0.6-1.1 1.3-1.7 1.9-1.3 1.1-2.5 2.4-3.9 3.4q-1.5 1.2-3 2.4l0.7-0.4 5.9-3.7 5.6-4.1c1.7-1.5 3.5-2.9 5.3-4.4 1.6-1.7 3.3-3.2 5-4.8 1.5-1.8 3.1-3.4 4.6-5.2 1.5-1.8 3-3.6 4.3-5.4 1.3-1.9 2.7-3.8 3.9-5.8 1.2-2 2.5-3.9 3.6-5.9 1-2.1 2.1-4.2 3.1-6.3 0.8-2.1 1.8-4.2 2.6-6.4 0.7-2.2 1.5-4.4 2.2-6.6 0.5-2.3 1.2-4.5 1.7-6.8 0.4-2.2 0.9-4.5 1.2-6.8 0.3-2.3 0.6-4.6 0.8-6.9l0.3-7q-0.6 0-1.2 0 0.6 0 1.2 0 0 0 0 0zm-14.7-7.7q0 0 0-0.1v0.1q0 0 0 0zm-35.9 87.2l-5.4 2.9 0.9 1.1c1.4-1.4 2.9-2.7 4.5-4zm50.8-86.4q0 0 0 0z"/><path class="f" d="m192.4 21q-0.8 0.7-1.5 1.5c-5.2 5.7 2.6 11.3 5.5 15.7 1.6 2.4 4.5 9.2 7.5 9.9 2.8 0.6 9.3 1.4 7.8 6-1.8 5.8-6.7 9.8-9 15.4q0 0 0 0.1-0.5 1.3-0.9 2.6c-0.3 1.2-0.7 2.4 1.2 2.3 1.6-0.1 3-0.6 4.3-1.3 2.1-1.1 4-2.5 6-3.6 0.4-0.2 0.9-0.2 1.3-0.1 0.6-0.3 1.3-0.2 1.5 0.7 0.9 4.2 7 2.3 7.4 6.7 0.1 1.3-0.1 2.6-0.2 3.8q0.6 1.7 1.3 3.3 0.6 0.3 1.5 0.6 0 0 0.1 0.1c2.5-0.7 5.4-1 6.9 1.3q0.3 0.6 0.6 1.1c-4.5-27.2-19.7-50.7-41.3-66.1z"/><path fill-rule="evenodd" class="g" d="m192.4 21l4.1 3 3.9 3.1 3.7 3.3 3.6 3.5 3.4 3.7 3.2 3.9c1 1.3 2.1 2.6 3 4 1 1.4 1.9 2.7 2.8 4.2 0.9 1.4 1.8 2.8 2.6 4.3 0.8 1.4 1.7 2.9 2.4 4.4 0.7 1.5 1.5 3 2.2 4.5 0.6 1.6 1.3 3.1 1.9 4.7 0.6 1.6 1.1 3.1 1.7 4.7l1.4 4.9 1.2 4.9 1 4.9c0 0.4-0.2 0.8-0.7 0.9-0.3 0.1-0.7-0.1-0.8-0.4l-0.5-1-0.1-0.1q0 0 0 0l-0.2-0.2-0.2-0.3q-0.2-0.2-0.4-0.3c-0.1-0.1-0.2-0.2-0.4-0.2-0.2-0.1-0.5-0.3-0.8-0.3q-0.4-0.1-0.9-0.1c-0.3 0-0.7 0-1 0-0.7 0.1-1.4 0.3-2.1 0.4q-0.1 0.1-0.3 0h-0.1c-0.3 0-0.6-0.2-0.9-0.3-0.3-0.1-0.6-0.3-0.9-0.5q-0.2-0.1-0.3-0.3l-1.3-3.4q-0.1-0.1-0.1-0.2c0.1-0.7 0.1-1.4 0.2-2.1v-1-0.5c0-0.1 0-0.2 0-0.2l-0.1-0.2c0-0.3-0.1-0.5-0.2-0.7-0.1-0.2-0.2-0.5-0.4-0.6-0.4-0.4-0.9-0.7-1.5-0.9-1.2-0.5-2.6-0.8-3.9-1.9-0.3-0.3-0.6-0.6-0.8-1-0.3-0.4-0.3-0.7-0.5-1-0.1-0.5-0.1-0.4-0.1-0.4 0 0-0.1-0.1-0.3 0-0.2 0.1-0.4 0.1-0.5 0.1h-0.1c-0.1-0.1-0.2-0.1-0.3-0.1q0 0.1 0 0c-0.1 0.1-0.4 0.2-0.3 0.1l-1.1 0.7-2.2 1.3-2.2 1.2c-0.7 0.5-1.5 0.9-2.4 1.2-0.4 0.2-0.9 0.3-1.3 0.4-0.5 0.1-0.9 0.1-1.3 0.2-0.4 0-0.6 0-0.9-0.1-0.1 0-0.3 0-0.4-0.1-0.2 0-0.3-0.1-0.5-0.2-0.3-0.3-0.5-0.7-0.6-1 0-0.4 0-0.7 0.1-0.9 0.1-1 0.5-1.8 0.7-2.6 0.2-0.4 0.3-0.7 0.5-1.2l0.5-1.2c0.8-1.6 1.8-3 2.7-4.4 1-1.4 2-2.8 3-4.2 0.9-1.4 1.7-2.7 2.4-4.3l0.4-1.2c0.1-0.3 0.2-0.7 0.2-1 0-0.7-0.3-1.4-0.8-1.9-1.1-1-2.7-1.5-4.3-1.9-0.8-0.2-1.6-0.3-2.5-0.6-1-0.3-1.7-0.9-2.3-1.5-1.2-1.4-2.1-2.8-2.9-4.3-0.9-1.5-1.6-3.1-2.5-4.5-1.9-2.7-4.4-5.1-6.1-8.1-0.8-1.5-1.1-3.4-0.6-5.1 0.5-1.7 1.9-2.8 3.1-4zm40 65.4q0 0 0 0 0 0 0 0zm-40-65.4c-1.2 1.2-2.5 2.5-2.9 4.1-0.4 1.6 0 3.3 0.8 4.8 1.6 2.9 4.2 5.2 6.3 7.9 1 1.5 1.7 3 2.6 4.5 0.9 1.4 1.8 2.8 2.9 4 0.5 0.6 1.2 1.1 1.9 1.3 0.7 0.2 1.6 0.3 2.4 0.5 1.7 0.4 3.4 0.8 4.9 2.1 0.7 0.7 1.2 1.7 1.2 2.7 0 0.5-0.1 0.9-0.2 1.5l-0.5 1.1c-0.6 1.6-1.5 3.2-2.4 4.7-1 1.4-2 2.8-2.9 4.2-0.9 1.4-1.9 2.7-2.6 4.2l-0.5 1.1c-0.1 0.3-0.3 0.8-0.4 1.2-0.2 0.8-0.6 1.6-0.7 2.3 0 0.4 0 0.5 0 0.5 0 0 0.2 0 0.2 0.1h0.5c0.4-0.1 0.8-0.1 1.2-0.2 0.4-0.1 0.7-0.2 1.1-0.3 1.5-0.6 2.9-1.5 4.3-2.4l2.3-1.3 1-0.6 0.4-0.2c0.2-0.1 0.4-0.1 0.6-0.1q0.3-0.1 0.6 0c0.4-0.1 0.9-0.2 1.4 0.1 0.6 0.2 0.9 1 0.9 1.2 0.2 0.4 0.3 0.7 0.4 0.9 0.1 0.1 0.3 0.3 0.5 0.5 0.8 0.7 2.1 1.1 3.4 1.6 0.7 0.3 1.4 0.6 2 1.2 0.4 0.3 0.6 0.7 0.8 1.1 0.2 0.3 0.3 0.8 0.4 1.2v0.3c0.1 0.2 0 0.2 0 0.3v0.5 1q0 1-0.1 2l1.1 2.8q0.2 0.1 0.4 0.2 0.3 0.1 0.5 0.2c0.7-0.2 1.4-0.3 2.1-0.4 0.4 0 0.8-0.1 1.2 0q0.6 0 1.2 0.1c0.5 0.1 0.9 0.3 1.3 0.5q0.2 0 0.3 0.2l-0.3-1.8-1.1-4.8-1.4-4.8c-0.5-1.6-1.1-3.1-1.7-4.7-0.5-1.5-1.2-3.1-1.8-4.6q-1-2.3-2-4.5c-0.8-1.5-1.6-3-2.3-4.4-0.8-1.5-1.7-2.9-2.5-4.3-0.9-1.4-1.8-2.8-2.7-4.2-0.9-1.4-2-2.7-2.9-4l-3.1-3.9-3.3-3.8-3.4-3.6-3.7-3.4-3.8-3.3zm9.9 52.7q0 0 0 0 0 0 0 0zm12.2-5q-0.1 0-0.2 0.1h0.5q-0.1-0.1-0.3-0.1zm9.7 11.9v-0.2 0.3q0-0.1 0-0.1zm1.1 2.8q-0.1-0.1-0.2-0.1l0.3 0.3zm1 0.4q-0.2 0.1-0.3 0.1h0.5q-0.1 0-0.2-0.1zm6.1 0.4l0.5 3.1 1.5-0.5-0.5-1-0.1-0.1c-0.1-0.2 0-0.1-0.1-0.1v-0.1l-0.2-0.3-0.4-0.5c-0.2-0.1-0.4-0.2-0.5-0.4q-0.1 0-0.2-0.1z"/><path class="f" d="m197.7 56.4c-0.5-1.9-1.3-3.9-2.4-5.6q-0.2-0.4-0.3-0.8c-0.4-1.4-0.8-2.9-1.6-4.1-1.3-2-4.1-0.9-5 0.8-1.3 3.1-2.7 6.7-2.7 10 0 2.4-0.2 5.4 2 7 1.9 1.5 5.4 0 7.2-0.9 1.9-0.9 3.3-4.5 2.8-6.4z"/><path fill-rule="evenodd" class="g" d="m197.7 56.4c0.2 0.9 0.1 1.8-0.1 2.7-0.3 0.9-0.7 1.8-1.2 2.5-0.6 0.8-1.4 1.4-2.2 1.8-0.9 0.4-1.7 0.8-2.6 1-1 0.3-1.9 0.5-3 0.2-1-0.2-2-0.9-2.5-1.8-0.6-0.8-0.9-1.8-1-2.8q-0.2-1.5-0.2-2.9c0-0.9 0.1-1.9 0.2-2.9 0.2-0.9 0.5-1.9 0.7-2.8q0.4-1.3 1-2.7c0.4-0.8 0.7-1.6 1.2-2.5 0.7-1 1.6-1.6 2.7-1.8l0.8-0.1q0.4 0.1 0.8 0.2c0.2 0.1 0.5 0.3 0.7 0.4 0.3 0.2 0.3 0.4 0.5 0.6 0.6 0.8 0.9 1.7 1.2 2.6 0.3 0.9 0.4 1.8 0.7 2.7l1.3 2.7q0.5 1.4 1 2.9zm0 0q-0.5-1.5-1-2.9l-1.5-2.6c-0.4-0.9-0.6-1.8-1-2.7-0.3-0.8-0.7-1.6-1.2-2.2-0.2-0.2-0.3-0.4-0.5-0.5-0.2-0.1-0.3-0.1-0.5-0.2h-0.5l-0.6 0.1c-0.8 0.2-1.4 0.8-1.8 1.4-0.1 0.3-0.3 0.8-0.4 1.2l-0.5 1.3-0.9 2.6c-0.2 0.8-0.4 1.7-0.5 2.6-0.1 0.9-0.3 1.7-0.3 2.6 0 1-0.1 1.8 0 2.7q0.1 1.3 0.6 2.4 0.6 1.1 1.8 1.5c0.7 0.3 1.7 0.2 2.5 0.1q1.3-0.3 2.6-0.8c0.9-0.3 1.7-0.8 2.2-1.5 0.6-0.7 1-1.5 1.3-2.4 0.2-0.9 0.4-1.8 0.2-2.7z"/><path class="f" d="m89.9 78.2c-1.7-1.8-4.7-2.3-6.4-0.2-0.3 0.1-0.5 0.3-0.5 0.5q0 0.1 0 0.2c-0.3 0.6-0.3 1.2-0.2 1.8 0 1.6 0.2 3.2 1.4 4.3 1.6 1.4 4.8 0.5 6.2-1 1.4-1.5 0.8-4.1-0.5-5.6z"/><path fill-rule="evenodd" class="g" d="m90.6 79.1c0.2 0.3 0.3 0.7 0.4 1 0.1 0.4 0.3 0.7 0.3 1.1q0.1 0.5 0 1.1c0 0.4-0.2 0.8-0.3 1.2l-0.3 0.4c-0.1 0.3-0.3 0.3-0.4 0.5-0.6 0.6-1.2 1-2 1.3-0.3 0.2-0.7 0.3-1.1 0.4-0.4 0.1-0.9 0.1-1.3 0.1-0.4 0-0.9-0.1-1.4-0.3-0.2-0.1-0.3-0.2-0.5-0.3l-0.2-0.1-0.1-0.1-0.1-0.1-0.1-0.1c-0.7-0.7-1.1-1.5-1.3-2.3-0.2-0.8-0.1-1.7-0.1-2.4v0.1l0.1-1q0.1-0.5 0.2-0.9l0.1-0.3c0.1-0.1 0.1-0.3 0.2-0.4 0.2-0.2 0.4-0.4 0.6-0.5l-0.2 0.2 0.8-0.7c0.3-0.1 0.6-0.3 0.9-0.4 0.3-0.1 0.7-0.1 1-0.2l0.9 0.1q0.5 0.1 0.9 0.2l0.9 0.4q0.4 0.2 0.7 0.5l0.7 0.6-0.7-0.6q-0.4-0.2-0.8-0.5c-0.2-0.1-0.5-0.1-0.8-0.2-0.3-0.1-0.6-0.1-0.9-0.2q-0.4 0.1-0.9 0.1c-0.2 0.1-0.5 0.2-0.8 0.3q-0.3 0.3-0.6 0.5l-0.6 0.6-0.1 0.2c-0.1 0-0.2 0.1-0.2 0.1 0 0.1 0 0.1 0 0.1 0 0 0 0.1 0 0.2v0.2q-0.1 0.3-0.1 0.7l0.1 0.7v0.1c0 0.7 0.2 1.4 0.3 2q0.3 0.9 0.8 1.5l0.1 0.1 0.2 0.1c0.2 0.1 0.3 0.3 0.5 0.3 0.2 0 0.3 0.2 0.6 0.2l0.5 0.1q0.3-0.1 0.5-0.1c0.3 0.1 0.6 0 1-0.1 0.6-0.1 1.3-0.4 1.8-0.8 0.1-0.1 0.3-0.2 0.4-0.3l0.3-0.4c0.2-0.3 0.4-0.5 0.4-0.9l0.2-0.5v-0.5q0-0.6-0.2-1.1c-0.2-0.6-0.5-1.3-0.9-1.8 0.2 0.3 0.4 0.5 0.6 0.8zm-8.2-0.4l0.1-0.2q0 0.1-0.1 0.2zm2.3 5.4c0 0-0.1-0.1 0.1 0.1l-0.1-0.1zm0 0q0 0 0 0zm5.3-5.8q0 0 0 0 0 0 0 0z"/><g style="opacity:.4;mix-blend-mode:screen"><path fill-rule="evenodd" class="h" d="m71.7 67.3c-0.1 3-0.5 5.9 0.1 8.8 0.3 1.4 3.8 2.8 5.5 4-1.2 3.9-3.4 7.4-4.4 11.4-0.9 3.8 1.2 7.2 3.3 10.2 1.1 1.5 2.5 4.2 4.8 3.5 1.1-0.3 1.9-1.5 2.5-3 5.1-1.5 8.6-6.7 13.9-6.9 10.1-0.4 16.7 9.6 19.8 17.7 3.8 10.2 36 8.9 27.1 22.4-4.8 7.2-7.8 13.2-10.6 21.5-1.6 4.6-4.9 6.9-8.5 9.7-1.9 1.4-4.4 3.3-4.9 5.9-1.2 6-6.3 8.8-8.3 14.3-1.6 4.5 3.5 8.6 5 12.7-7.6-3.8-15-6.6-21-13.2-5.3-5.9-11.3-10.3-17-15.6-3.8-3.4-5.3-7.8-6.1-12.4 1.4 0.7 2.8 1.4 4 2.4 0.8 0.5 1.7-0.1 2.2-0.7 2-2.3 5.5-9.5 8.7-5.5 1.8 2.3 2.7 5.3 3.7 7.9 0.8 1.8 2.6 7.4 5.5 6.9 2.7-0.4 5.2-3.1 5.3-5.9 0.3-5.2-0.3-8.8 4.5-12.6 1.3-1 1.8-2.9 1.7-4.4-0.1-6.3-12.3-16.9-6.6-21.9 3.3-2.9 7.4-7.5 4.7-12.1-3.1-5.2-7.1-12.3-14-11.3-3.3 0.5-6.5 2.7-9.3 4.3-4.2 2.3-6.8 2.9-9.9 1.7q0.4-0.2 0.9-0.3c0.9-0.5 1.4-1.8 0.8-2.7-4-6.7-6.7-14.1-9.2-21.5-1.3-3.9 0.7-9.9-3.1-12.7-1.2-0.9-2.6-1.1-4-1.2-5.3-0.5-5.3-6.8-7-10.2-0.6-1.2-2.3-1.6-3.4-1.9q-0.8-0.1-1.7 0c-0.8 0-1.4-0.3-1.9-0.7q1.4-2.6 2.9-5.1c3.8-0.3 5.9 4.6 10.5 7.4 1.8 1.1 4.2-0.2 5.7-1.3 4.5-3.3 8.5-4 13.8-3.5 1.5 0.1 4-0.1 5.3-1 4.8-3.2 7.4-8.5 11.7-12.3 6.7-6.1 7.6-7.5-1.2-13-8.6-5.4 7.6-12.5 11.7-15.5 2.1-1.5 3.1-3.8 3.9-6.1 5-1.2 10-2.1 15.2-2.6q-0.5 0.8-1.1 1.6c-2.6 4-5.2 6.7-10.6 7.3-1.5 0.2-3.6 0.4-4.9 1.2-3.7 2.3-9.3 7.3-5.1 11.7 1.9 2 5.5 2.8 8 3.6 3.6 1.2 5.8 4.6 9.2 5.6 4.5 1.2 8.4 1 12.9 0.1 4.6-1 8.5-1.8 13.2-0.6 6.7 1.8 3.8 10 2.2 14.1-3.1 8.3-7.5 7.6-14.5 6.9-4.5-0.5-8.5 0.1-12.9 0.8-3.3 0.5-6.5 1.1-9.4 2.5-3 1.3-2.6 3.2-4.1 5.6-1.5 2.6-2.3 9.3-6 3-1.2-2.1-2.2-5.4-4.9-6-7.5-1.8-16.2 2.6-23.1 5-0.8 0.3-1.4 1.1-1.5 2zm31.5-16c2.6 2.3 7.8-0.4 10.3-1.6 3.3-1.6 7.9-4.1 9.9-7.5 0.3-0.6 0.8-1.8-0.1-2.2-2.6-1.5-6-3.7-9.1-3.1-0.4 0.1-0.7 0.2-1 0.4-5.9-2-15.1 9.8-10 14z"/><path class="h" d="m232.3 103.6c-2.7-0.9-6.9-4.7-9.5-1.6-0.4 0.4-1.5 1.1-2.1 0.7-0.3 0.1-0.5 0.2-0.7 0.3-0.1 0-0.2 0.1-0.3 0.1q-0.1 0.2-0.2 0.4c-0.3 0.9-1.5 1.6-2.4 1.1-2.5-1.7-4.5-3.6-6.8-5.5-0.5-0.4-0.9-0.6-1.4-0.6 0.3 1.4 0.4 2.8 0.6 4.2 0.8 6.5 4.3 5.6 9.1 7.3 3.1 1.1 2.5 5.1 2.1 7.5-1.6 9.1-3.7 17.1-14 18.3-0.7 0.1-1.1-0.6-1.2-1.2-0.4-4.6 1.6-9.2 1.2-13.7-0.9-7.5-7.2-0.2-9.7 0.6-2.9 0.9-5 0.6-7.9-0.7-6.1-2.7-9.7 1.4-12.6 6.3 0.9 1.4 2.3 2.3 3.8 1.8 4.5-1.4 9.2-1.3 12.8 2.1 3.2 3.1 9.1 8.2 9.3 13.1 0.1 1.4-0.2 2.7-1.2 3.8-3.4 3.3-5.9 6.7-4.4 11.7 1.9 6.5 2.4 7.8-0.2 14.3-2.2 5.4-4.9 9.3-9.5 12.9-3 2.3-6 4.5-8.4 7.1 33-16.5 55.7-50.6 55.9-90q-1.1 0.2-2.3-0.3z"/><path class="h" d="m200.2 27.2c0.2 1.9 0.3 3.9 0.4 6 0.3 9.1 10.3 5.3 13.5 11.9 2.1 4.1 4.2 13.8 2 18.2-1.2 2.4-2.1 3.6-4.5 4.8-3.3 1.6-4.9 3.6-6.5 6q1.2-0.3 2.2-0.9c2.1-1.1 4-2.5 6-3.6 0.4-0.2 0.9-0.2 1.3-0.1 0.6-0.3 1.3-0.2 1.5 0.7 0.9 4.2 7 2.3 7.4 6.7 0.1 1.3-0.1 2.6-0.2 3.8q0.6 1.7 1.3 3.3 0.6 0.3 1.5 0.6 0 0 0.1 0.1c2.5-0.7 5.4-1 6.9 1.3q0.3 0.6 0.6 1.1c-3.9-23.8-16.1-44.8-33.5-59.9z"/><path class="h" d="m197.7 56.4c-0.5-1.9-1.3-3.9-2.4-5.6q-0.2-0.4-0.3-0.8c-0.4-1.4-0.8-2.9-1.6-4.1-1.3-2-4.1-0.9-5 0.8-1.3 3.1-2.7 6.7-2.7 10 0 2.4-0.2 5.4 2 7 1.9 1.5 5.4 0 7.2-0.9 1.9-0.9 3.3-4.5 2.8-6.4z"/><path class="h" d="m89.9 78.2c-1.7-1.8-4.7-2.3-6.4-0.2-0.3 0.1-0.5 0.3-0.5 0.5q0 0.1 0 0.2c-0.3 0.6-0.3 1.2-0.2 1.8 0 1.6 0.2 3.2 1.4 4.3 1.6 1.4 4.8 0.5 6.2-1 1.4-1.5 0.8-4.1-0.5-5.6z"/></g><path class="i" d="m182.4 22.9c-10.8-9.6-14.1-14.8-36.2-18.6-25.1-4.3-53.5 3.5-73.8 19.4-14.1 10.9-25.1 25.7-31.5 42.4-3 8-5.2 17.1-5.8 25.6-1.2 16.8 2.6 33.7 8.2 49.4 3.7 10.8 10.3 19.9 20.3 25.5 2.6 1.4 5.6-2.5 4.9-4.9-4.1-13 2.1-25.2 6.6-37.2 2.9-7.3 6.3-14.8 4-22.8-2.4-8.4-13.9-7.6-18.7-13.5-4.4-5.4 2.7-15 5.9-19 6.6-8.2 13.4-10 23.2-6.9 17.5 5.5 20.6-21.4 35.5-21.7 4.7-0.1 8.4 4.6 12.2 6.6 3.6 2 6.5 2.5 10.5 2.1 3.4-0.2 6.9-3.3 9.4-5.4 5-4.2 10.1-7.6 15.8-10.6 4.1-2.2 14.8-5.7 9.5-10.4z"/><path class="j" d="m71.1 25.3c0 0-63.3 53.2-23.6 124 0 0-30.6-68.4 23.6-124z"/><path class="k" d="m221.7 57.2c0 0 22.6 71.4-19.2 116.8 0 0 50.7-38.2 19.2-116.8z"/><path fill-rule="evenodd" class="l" d="m235.1 102.9q0 0 0 1.8c-0.1 1.2 0 3-0.2 5.3-0.3 4.6-1.1 11.5-3.4 19.9-2.3 8.3-6 18.4-12.7 28.5-6.6 10.2-15.9 20.7-28.3 29.1-6.2 4.1-13.2 7.8-20.7 10.7-7.6 2.9-15.8 4.8-24.3 5.7-8.5 1-17.4 0.8-26.3-0.4-4.5-0.8-9-1.6-13.3-3-2.3-0.6-4.4-1.4-6.6-2.1-2.2-0.9-4.4-1.7-6.5-2.7-17.1-7.6-32.5-20.4-43.3-36.8-10.9-16.2-17.1-36.1-17.1-56-0.1-20 5.9-39.9 16.7-56.3 10.9-16.5 26.4-29.3 43.6-36.9 4.2-1.9 8.6-3.6 13-4.8 4.5-1.3 9-2.2 13.4-2.9 9-1.2 17.8-1.4 26.4-0.4 8.5 1 16.8 3 24.3 5.9 7.6 2.9 14.5 6.6 20.7 10.8 12.4 8.4 21.8 18.8 28.3 29 6.7 10.2 10.4 20.2 12.7 28.6 2.4 8.4 3.1 15.2 3.4 19.8 0.2 2.4 0.1 4.2 0.2 5.4 0 1.1 0 1.8 0 1.8zm-0.1 0q0 0-0.1-1.8c0-1.2 0-3-0.2-5.3-0.3-4.7-1.1-11.5-3.5-19.8-2.3-8.4-6.3-18.3-13-28.3-6.7-10-16.1-20.2-28.4-28.3-12.4-8.1-27.6-14.2-44.5-16.1-8.3-1-17.1-0.8-25.9 0.4-4.4 0.7-8.8 1.6-13.2 2.9-2.1 0.6-4.3 1.4-6.5 2.1-2.1 0.8-4.3 1.6-6.3 2.6-16.9 7.3-32.3 19.9-43 36.1-10.9 16.1-17 35.7-17.1 55.5 0 19.8 5.9 39.5 16.7 55.7 10.8 16.3 26.2 28.9 43.2 36.3 2.1 0.9 4.3 1.7 6.4 2.5 2.2 0.7 4.4 1.5 6.6 2.1 4.3 1.3 8.7 2.1 13.1 2.8 8.9 1.2 17.7 1.4 26 0.3 16.9-2 32.1-8 44.5-16.2 12.3-8.2 21.8-18.3 28.4-28.4 6.7-10 10.7-19.9 13-28.2 2.4-8.4 3.2-15.2 3.5-19.8 0.2-2.3 0.2-4.1 0.2-5.3q0.1-1.8 0.1-1.8z"/><path class="m" d="m50 104.8c-5.1-1.8-7.4 3.4-11.8 4.6-2.6 0.7-6.5 2.8-9.1 1.7-1.7-0.7-3.6-1.9-5.5-1.5-4.7 1-7 4.5-7.1 8.5-5 2.1-9.4 5.5-13.4 9.5-2.7 2.8-1.7 6.9 0.3 9.6 3.5 4.8 10.5 2.5 14.7 6.5 6.5 6.4 16.1 1.5 20.7-4.9 2.2-3.1 2.8-7.8 5.6-10.4 1.4-1.3 6.2-1 8.1-1.6 1.7-0.5 3.1-1.6 4.3-3 3.1-3.9 1.3-7.4 7.1-8.9 2.9-0.7 4.4-2.8 5-5.5 2.5-10.3-16-3.6-18.9-4.6z"/><path fill-rule="evenodd" class="n" d="m50 104.7c1.3 0.2 2.8-0.2 4.1-0.4l4.2-0.7c1.5-0.3 2.9-0.5 4.3-0.6 1.5-0.1 3-0.1 4.5 0.4 0.8 0.3 1.5 0.8 2.1 1.5 0.6 0.7 0.9 1.6 1 2.5 0.1 0.4 0 0.8 0 1.3-0.1 0.4-0.1 0.6-0.2 1.1q-0.2 1.2-0.7 2.3c-0.7 1.5-1.8 2.9-3.5 3.7-0.5 0.3-0.8 0.3-1.1 0.5l-1 0.3q-0.9 0.3-1.5 0.8c-0.8 0.6-1.2 1.3-1.7 2.7-0.4 1.3-1 2.9-2 4.3-1 1.3-2 2.4-3.8 3.4-0.4 0.2-0.7 0.3-1 0.4l-0.5 0.2v0.1c-0.3 0.1-0.2 0-0.2 0h-0.1l-0.2 0.1-0.3 0.1c-0.9 0.1-1.6 0.2-2.3 0.3q-1.1 0.1-2.1 0.2c-0.3 0-0.7 0-0.9 0.1-0.3 0-0.7 0.1-0.8 0.1 0 0-0.1 0.1-0.2 0-0.1 0-0.3 0.2-0.5 0.3l-0.1 0.1-0.3 0.3c-0.4 0.4-0.7 0.9-1.1 1.4-0.6 1.1-1.1 2.3-1.7 3.6-0.3 0.7-0.5 1.4-0.9 2.1l-0.6 1c-0.2 0.4-0.3 0.7-0.5 1-0.9 1.3-1.9 2.4-3.1 3.4-1.1 1.1-2.3 2-3.6 2.8q-2 1.2-4.2 1.8c-1.4 0.4-3 0.7-4.6 0.6-1.5-0.2-3-0.6-4.4-1.3-0.7-0.4-1.4-0.9-1.9-1.3l-1.6-1.4c-2-1.8-4.9-2.2-7.6-2.8-1.5-0.3-2.9-0.7-4.2-1.5-1.3-0.8-2.3-2-3-3.2-0.8-1.3-1.3-2.8-1.3-4.4-0.1-0.7 0-1.5 0.2-2.3q0.2-0.6 0.5-1.2c0.1-0.4 0.4-0.6 0.6-0.9 0.1-0.2 0.1-0.2 0.3-0.5l0.4-0.4 0.8-0.8 1.5-1.5c1-1 2.2-2 3.3-2.9 1.1-0.9 2.3-1.7 3.5-2.6q1.6-0.8 3.1-1.6 0.1-1 0.4-2c0.1-0.5 0.3-0.9 0.4-1.4 0.2-0.4 0.5-0.9 0.8-1.3 0.2-0.4 0.5-0.8 0.9-1.2 0.3-0.3 0.6-0.7 1.1-1 0.4-0.3 0.8-0.6 1.2-0.8l1.4-0.7c0.5-0.2 0.8-0.2 1.3-0.3l0.6-0.2c0.4-0.1 0.6-0.1 0.9-0.1 1.2 0 2.1 0.3 3 0.7 0.9 0.4 1.5 0.8 2.3 1.1 0.3 0.2 0.6 0.3 0.9 0.4 0.3 0 0.7 0.1 1.1 0 1.4 0 3.1-0.5 4.7-1 0.8-0.2 1.6-0.4 2.4-0.6q1.2-0.4 2.2-1c1.4-0.8 2.7-2 4.3-2.8 0.7-0.3 1.6-0.6 2.5-0.7 0.8-0.1 1.7 0.1 2.5 0.3zm-4.5 25.2v-0.1c0.2-0.2-0.2 0.2-0.2 0.1h0.1zm-30.4-12.6q0 0.5 0 0.9l0.9-1.3q-0.4 0.2-0.9 0.4zm34.8-12.2c-0.8-0.2-1.6-0.4-2.4-0.3q-1.2 0.1-2.3 0.7c-1.4 0.9-2.7 2-4.1 3.1q-1 0.7-2.2 1.3c-0.9 0.3-1.6 0.6-2.4 0.9-1.5 0.6-3.1 1.3-5 1.6-0.4 0.1-1 0.1-1.5 0.1-0.5-0.1-1-0.2-1.5-0.3-0.8-0.3-1.6-0.7-2.3-0.9-0.7-0.2-1.4-0.4-1.9-0.3-0.1 0-0.4 0-0.3 0l-0.6 0.2c-0.4 0.2-0.9 0.3-1.2 0.4q-0.4 0.3-0.8 0.5c-0.3 0.2-0.6 0.4-0.9 0.6-0.3 0.2-0.5 0.5-0.7 0.7-0.3 0.3-0.4 0.6-0.6 0.9-0.2 0.2-0.4 0.5-0.5 0.9-0.1 0.3-0.3 0.6-0.3 1-0.3 0.6-0.3 1.3-0.4 2.1l-0.1 0.9-0.8 0.4c-1.2 0.6-2.5 1.1-3.7 1.7-1.1 0.7-2.4 1.4-3.5 2.1-1.1 0.9-2.3 1.6-3.3 2.5l-1.6 1.4-0.8 0.7-0.4 0.3c0 0-0.2 0.2-0.3 0.3-1.9 1.9-1.6 4.9-0.4 7.3 0.7 1.2 1.5 2.2 2.7 2.9 1.1 0.7 2.4 1 3.8 1.3 2.7 0.6 5.8 0.8 8.3 2.6l1.7 1.4c0.6 0.4 1.1 0.7 1.7 0.9 1.2 0.6 2.4 0.8 3.7 0.8 2.6-0.1 5.1-1.1 7.3-2.6 2.2-1.4 4.1-3.4 5.4-5.5 1.4-2.2 2-4.9 3.5-7.8 0.5-0.6 0.9-1.4 1.5-2l0.4-0.5 0.1-0.1c0.1-0.1 0.3-0.2 0.3-0.2h0.1l0.2-0.2c0.1-0.1 0.2-0.2 0.5-0.3q0.4-0.2 0.8-0.3c0.6-0.2 0.9-0.2 1.3-0.3q0.6-0.2 1.2-0.2c0.7-0.1 1.4-0.2 2.1-0.3 0.7 0 1.4-0.1 1.9-0.2h0.2l0.1-0.1q0 0 0 0l0.5-0.1c0.2-0.2 0.7-0.3 0.8-0.4q0.3-0.3 0.6-0.4l0.7-0.6c0.2-0.2 0.4-0.4 0.6-0.6 0.1-0.1 0.3-0.3 0.3-0.3l0.3-0.4c0.7-0.9 1.1-2 1.6-3.4 0.3-0.6 0.6-1.4 1.1-2.2 0.5-0.8 1.1-1.5 1.9-2 0.8-0.5 1.6-0.8 2.4-1l0.6-0.2h0.1l0.1-0.1c0 0-0.1 0.1 0 0.1l0.2-0.1c0.3-0.1 0.8-0.2 0.9-0.3 0.9-0.4 1.8-1.2 2.4-2.2 0.3-0.5 0.6-1 0.8-1.6 0-0.2 0.1-0.7 0.2-1 0-0.3 0.1-0.5 0.1-0.8q0.1-1.7-1.6-2.6c-1.1-0.5-2.5-0.7-3.9-0.8q-2 0-4.2 0.2-2.1 0.2-4.2 0.5c-1.4 0.1-2.8 0.5-4.3 0.2zm-6.7 22.2q0 0 0 0zm8.6-2.1h0.1q0 0-0.1 0zm11.7-11.7q0.1 0 0 0zm-11.6 11.7c0.1 0 0.1 0 0.1 0z"/><path class="m" d="m244.1 44.8c-5.6-4.6-11.3 3-16.5 3.3-4.6 0.1-9.9-0.8-13.7 1.6-1.6-0.1-3.2 0.3-4.7 1.5-2.4 1.8-2.2 5.2-4.2 7-3.3 2.7-5.9 4.4-7.6 8.4-3.7 8.9-15.6 8.2-23.4 12.5-5.3 2.8-10.9 8.1-8.9 14.5 0.4 1.3 1.3 1.9 2.6 2.2 2.3 0.4 4.2-0.4 6.1-1.5 4.6-2.6 8.7-2.7 13.8-2.5 3.7 0.1 7-0.8 10.3-2.2 4.5-1.9 10.6 0.7 15.4 0.3 2.8-0.3 5.3-3.3 7-5.2 3.6-3.9 6.4-8.2 10.6-11.8 5.3-4.5 10.6-7.8 14.3-14 2.3-3.9 2.8-11-1.1-14.1z"/><path fill-rule="evenodd" class="n" d="m244.3 44.6c1.5 1.3 2.4 3.1 2.7 5 0.4 1.9 0.4 3.8 0 5.7-0.2 1-0.5 1.9-0.9 2.9-0.3 0.9-0.9 1.7-1.3 2.5-1 1.7-2.3 3.2-3.6 4.6-2.6 2.9-5.5 5.3-8.3 7.8q-1.1 0.9-2 1.9c-0.6 0.7-1.3 1.3-1.9 2-1.2 1.4-2.4 2.8-3.6 4.3-1.1 1.5-2.4 2.9-3.6 4.3-1.3 1.5-2.5 3-4.3 4.3-0.4 0.3-0.9 0.6-1.4 0.9q-0.4 0.2-1 0.4c-0.1 0.1-0.3 0.2-0.4 0.2l-0.4 0.1-0.3 0.1h-0.2-0.1c-0.4 0.1-0.1 0-0.3 0.1h-0.8c-0.5 0-1 0-1.5 0-2.1-0.1-4-0.5-5.8-0.8-1.8-0.2-3.7-0.4-5-0.2-0.4 0-0.9 0.2-1.3 0.3l-0.4 0.1-0.1 0.1h-0.1c0 0 0.3-0.1 0.1-0.1l-0.1 0.1-0.6 0.2c-1 0.3-1.9 0.7-2.9 0.9-0.9 0.3-1.9 0.6-3 0.7l-1.5 0.2h-1.4-1.5-1.4c-1-0.1-1.9-0.1-2.8-0.1-1.8 0.1-3.6 0.2-5.3 0.7-0.4 0.1-0.8 0.3-1.2 0.4-0.4 0.2-0.8 0.3-1.2 0.5l-1.3 0.6q-0.6 0.3-1.3 0.6c-0.9 0.4-1.9 0.8-3 0.9-0.5 0-1.2 0-1.7 0l-0.7-0.2c-0.4 0-0.5-0.1-0.8-0.2-2.6-0.8-2.9-3.6-2.8-5.5 0-2.1 0.8-4 1.9-5.6 1.1-1.7 2.5-3 4-4.2 1.6-1.2 3.2-2.2 4.9-3.1 1.8-0.8 3.6-1.4 5.4-2 3.6-1.1 7.3-2.1 10.5-3.9 1.5-0.8 3-1.9 4-3.2 0.5-0.7 0.9-1.3 1.3-2.2l0.6-1.3q0.3-0.7 0.7-1.4c1-1.8 2.4-3.3 3.9-4.6 0.7-0.7 1.5-1.2 2.2-1.9l0.5-0.4c0.2-0.2 0.3-0.3 0.4-0.4 0.2-0.2 0.3-0.5 0.5-0.8 0.4-0.7 0.7-1.6 1.1-2.5 0.2-0.5 0.4-1 0.8-1.5 0.3-0.5 0.7-1.1 1.1-1.3 1.6-1.6 3.8-2.3 5.9-2.2 0.5-0.2 1.1-0.5 1.6-0.6 0.7-0.2 1.4-0.5 2.1-0.5q1.1-0.2 2.1-0.2c0.7 0 1.4 0 2.1 0 1.4 0.1 2.7 0.2 4 0.2l2 0.1 0.8-0.1 1-0.1c2.4-0.7 4.7-2.2 7.2-3.2 0.6-0.3 1.2-0.5 1.9-0.6 0.7-0.2 1.3-0.3 2-0.3q0.5 0 1 0.2c0.4 0 0.7 0.1 1 0.3 0.7 0.2 1.2 0.6 1.7 1zm-30.5 3.8q-0.2 0.2-0.5 0.3l0.8-0.2q-0.2 0-0.3-0.1zm30.3-3.5c-0.5-0.4-1-0.8-1.6-1q-0.5-0.2-1-0.2-0.4-0.2-0.9-0.2c-0.7 0-1.3 0.1-1.9 0.3-0.7 0.1-1.3 0.4-1.9 0.6-1.2 0.6-2.3 1.3-3.4 1.9-1.2 0.7-2.3 1.4-3.6 1.9l-1 0.3-1.2 0.2-1.9 0.1c-1.4 0.1-2.7 0.1-4 0.2q-1 0-1.9 0.1-1 0.1-1.9 0.4c-0.6 0.1-1.1 0.3-1.7 0.5-0.5 0.2-1 0.6-1.5 0.8l-0.4 0.2h-0.4c-1.6 0-3 0.6-4.1 1.6-0.9 1-1.2 2.7-2.2 4.7-0.3 0.5-0.6 1-1 1.4-0.3 0.2-0.5 0.5-0.7 0.7l-0.6 0.4-2.1 1.8c-1.4 1.2-2.6 2.4-3.5 3.8-0.3 0.4-0.5 0.8-0.7 1.1l-0.7 1.3c-0.4 0.8-1.1 1.7-1.7 2.6-1.4 1.5-3.2 2.6-5 3.5-3.6 1.6-7.4 2.2-11 3.3-3.6 0.9-7.1 2.3-9.9 4.7-1.5 1.1-2.8 2.5-3.8 4-0.9 1.5-1.5 3.3-1.4 5-0.1 0.4 0.1 0.9 0.1 1.3q0.1 0.3 0.2 0.6l0.1 0.3v0.2l0.3 0.7c0.1 0.2 0.2 0.2 0.3 0.3 0.1 0.1 0.3 0.1 0.4 0.2 0.2 0.1 0.3 0.2 0.5 0.2l0.5 0.2h0.8c0.4 0 0.7 0 1.1-0.1 0.8-0.1 1.6-0.4 2.4-0.8 0.3-0.2 0.7-0.4 1.1-0.7l1.3-0.7c0.4-0.2 0.9-0.4 1.4-0.6 0.4-0.2 0.9-0.4 1.4-0.6 1.9-0.6 3.9-0.9 5.9-1 1-0.1 2-0.1 2.9-0.1h1.4l1.4-0.1 1.4-0.1 1.2-0.2c0.8-0.1 1.7-0.4 2.5-0.6 0.9-0.2 1.7-0.6 2.6-0.9l0.6-0.3 0.3-0.1h0.2l0.3-0.1c0.5-0.1 0.9-0.3 1.4-0.4l1.8-0.2c0.6-0.1 1 0 1.5 0 1.1 0 2.1 0.1 3 0.2 1.9 0.3 3.8 0.5 5.5 0.6 0.5 0.1 0.9 0 1.3 0h0.6 0.1l0.4-0.1 0.3-0.1c0.1 0 0.1 0 0.2-0.1 0.1 0 0.2-0.1 0.3-0.1 0.3-0.2 0.7-0.4 1-0.7 2.5-2 5-5.1 7.4-7.9 1.2-1.5 2.5-2.9 3.9-4.3 1.4-1.3 2.8-2.8 4.3-3.9 3-2.4 6.2-4.4 9-6.9 1.3-1.2 2.6-2.5 3.7-4 1.2-1.5 2-3 2.5-4.8 0.5-1.8 0.6-3.7 0.4-5.5-0.3-1.8-1.1-3.6-2.6-4.8zm-78.2 48.4c0 0.1 0 0.1 0 0zm0 0q0-0.1 0 0zm47.3-5.2c0 0 0.1 0 0 0zm0 0h-0.1-0.1q0.1 0 0.2 0zm-47.3 5.2q0 0 0 0z"/><path class="m" d="m130.6 123.5c-0.5-2.3-3.3-2.9-5.2-2-1.8 0.8-3 1.6-4.6 2.7-3.3 2.4-7.5-0.2-11 0.4-4.9 0.8-8.9 2.8-13.9 3.2-4.1 0.3-7.7 1.8-10.6 4.8-1.9 2.1-3.5 4.4-5 6.7-1.7 2.8-5.4 4.3-8 6.1-1.4 1-2.3 3-2.3 4.8-3 1.5-4.8 6.7-0.3 7.4 5.6 0.8 11.3-0.6 16.6-2.6 2.5-0.9 5-2.9 7.2-4.4 5.3-3.5 9.7-3.9 15.7-4.5 6.3-0.6 12.6-6.4 17.3-10.1 4.1-3.2 5.1-7.7 4.1-12.5z"/><path fill-rule="evenodd" class="n" d="m130.7 123.5q0.6 2.6 0.3 5.4c-0.2 1.8-0.9 3.6-1.9 5.2q-0.4 0.5-0.9 1.1l-0.9 1c-0.7 0.7-1.3 1.2-2 1.9q-2 1.8-4.1 3.6-1 0.9-2.1 1.7c-0.8 0.6-1.5 1.1-2.4 1.6-0.8 0.5-1.6 0.9-2.5 1.4l-1.4 0.5c-0.5 0.2-1 0.4-1.4 0.5l-1.4 0.3h-0.3l-0.2 0.1h-0.3l-0.6 0.1q-1.4 0.1-2.7 0.3c-1.7 0.3-3.4 0.5-5 1-1.6 0.4-3.1 1.1-4.6 1.8-0.7 0.4-1.6 0.9-2.2 1.3l-2.2 1.5c-0.8 0.5-1.6 1-2.5 1.5-0.9 0.6-1.6 0.8-2.6 1.2-1.8 0.6-3.5 1.2-5.3 1.6-1.8 0.4-3.7 0.7-5.6 0.9-0.9 0-1.8 0.1-2.8 0l-1.5-0.1-1.3-0.1-0.7-0.2c-0.3 0-0.5-0.1-0.8-0.2-0.5-0.1-1.1-0.4-1.5-0.8-1-0.8-1.3-2.2-1.2-3.3 0.4-2 1.6-3.6 3.3-4.5 0.2-1.5 0.7-3 1.8-4.1 1.2-1.2 2.6-1.8 3.9-2.6 1.3-0.8 2.6-1.7 3.6-2.6 1-1 1.7-2.4 2.6-3.7 0.7-1.4 1.7-2.6 2.6-3.8l0.7-1 0.8-0.9q0.9-0.9 1.9-1.6c1.3-1 2.8-1.7 4.4-2.2 0.8-0.3 1.6-0.5 2.4-0.7l1.2-0.2 0.6-0.1 0.5-0.1c1.4-0.2 2.9-0.4 4.3-0.8 1.4-0.4 2.9-0.8 4.4-1.2 1.6-0.3 3-0.6 4.6-0.8 1.9-0.2 3.5 0.3 4.9 0.6 1.5 0.4 2.9 0.7 4.2 0.4q0.5-0.1 1-0.2c0.1-0.1 0.3-0.2 0.5-0.3 0 0 0.2-0.1 0.2-0.1l0.3-0.2 2-1.1 2-1c0.7-0.4 1.6-0.6 2.3-0.6 0.8-0.1 1.6 0.2 2.3 0.6 0.7 0.4 1.2 1.2 1.3 1.9zm-61.3 26.4q0 0.2 0 0.4l0.4-0.6q-0.2 0.1-0.4 0.2zm61-26.3c-0.2-0.7-0.6-1.3-1.2-1.7-0.6-0.4-1.3-0.6-2.1-0.5-0.7 0-1.4 0.2-2 0.6-0.6 0.4-1.3 0.8-2 1.2l-1.8 1.4-0.2 0.2-0.2 0.1c-0.2 0.1-0.3 0.3-0.5 0.4q-0.6 0.3-1.2 0.5c-1.7 0.5-3.4 0.3-4.9 0.2-1.5-0.2-3-0.4-4.2-0.1-1.3 0.4-2.9 0.7-4.3 1.2-1.4 0.4-2.8 0.9-4.4 1.3-1.5 0.4-3.1 0.6-4.7 0.8l-0.6 0.1-0.5 0.1-1.1 0.1c-0.7 0.1-1.4 0.2-2 0.4-1.4 0.3-2.7 0.8-3.9 1.6q-1 0.5-1.8 1.2c-0.2 0.2-0.6 0.5-0.8 0.6l-0.7 0.9c-1 1.1-2.1 2.2-3 3.4l-1.2 1.9c-0.6 0.6-1 1.2-1.6 1.8-1.2 1.1-2.6 1.9-3.9 2.7l-1.9 1.2c-0.6 0.4-1.3 0.8-1.7 1.3-0.9 1-1.3 2.5-1.3 3.8v0.4l-0.4 0.2c-1.3 0.7-2.3 2.3-2.4 3.7-0.1 1.5 0.9 2 2.6 2l1.4 0.1 1.2-0.1c0.9 0 1.7-0.1 2.6-0.2 1.7-0.2 3.4-0.6 5-1.1 1.7-0.4 3.4-1 5-1.7 0.5-0.3 1.6-0.7 2.2-1.1 0.7-0.4 1.3-0.9 2.1-1.4l2.2-1.6c0.9-0.6 1.5-1 2.3-1.5 1.8-0.9 3.6-1.7 5.5-2.2 0.9-0.3 1.8-0.4 2.7-0.6 0.9-0.2 1.9-0.3 2.8-0.4q1.4-0.1 2.7-0.3h0.7 0.2l0.3-0.1 1.3-0.2c0.5-0.1 0.8-0.2 1.2-0.4l1.1-0.3c0.7-0.3 1.5-0.7 2.3-1.1 0.7-0.3 1.5-0.8 2.3-1.2l2.2-1.4q2.2-1.4 4.4-3c0.7-0.5 1.6-1 2.2-1.5l1-0.9c0.3-0.3 0.6-0.6 0.9-0.9 1.1-1.3 1.9-2.9 2.2-4.6 0.4-1.8 0.2-3.6-0.1-5.3zm-21.4 20.9c0 0 0.1-0.1-0.1 0zm-0.1 0q0 0 0 0zm0 0q0.1 0 0.1 0z"/><path class="o" d="m65.7 103.8c0.6 3.5-1.7 6.1-5.7 7.7-3 1.2-6.9 1.7-9.6 3.6-2.2 1.5-3 4.8-5.7 5.7-6 2.1-11.8 2.1-16.9 6.6-3.3 2.8-6.6 6.9-10.8 8.2-4.5 1.5-10.4 0.1-15.3-2 0.3 1.3 0.9 2.6 1.7 3.6 3.5 4.8 10.5 2.5 14.7 6.5 6.5 6.4 16.1 1.5 20.7-4.9 2.2-3.1 2.8-7.8 5.6-10.4 1.4-1.3 6.2-1 8.1-1.6 1.7-0.5 3.1-1.6 4.3-3 3.1-3.9 1.3-7.4 7.1-8.9 2.9-0.7 4.4-2.8 5-5.5 0.9-3.5-0.7-5-3.2-5.6z"/><path class="o" d="m244.1 44.8c-1-0.9-2.1-1.3-3.1-1.4 1.9 3.7-0.2 9-4.5 11.6-5.7 3.6-17.7-0.2-15.5 11.1 0.9 4.6 0.5 7.9-2.8 11.5-2.7 2.9-8.1 0.1-11.5 1.4-5.1 1.9-9.1 6.7-14.5 7.8-2.3 0.5-4.6 0.6-6.9 0.1-5.2-1.1-8.8-1-12.8 3.1-1.8 1.8-3.6 3.5-6 2.5q-0.7 0.6-1.4 1.3c0.5 1.2 1.4 1.7 2.6 2 2.3 0.4 4.2-0.4 6.1-1.5 4.6-2.6 8.7-2.7 13.8-2.5 3.7 0.1 7-0.8 10.3-2.2 4.5-1.9 10.6 0.7 15.4 0.3 2.8-0.3 5.3-3.3 7-5.2 3.6-3.9 6.4-8.2 10.6-11.8 5.3-4.5 10.6-7.8 14.3-14 2.3-3.9 2.8-11-1.1-14.1z"/><path class="o" d="m129.2 121.6q-0.3 1.6-0.8 3.1c-0.9 2.9-2.7 5.2-5 7.1-2.2 1.9-5.5 3.1-8.4 3.4-4.3 0.4-6.6-1-10.6-1.8-6.3-1.2-8.4 5.8-12.4 9.1-2.1 1.8-6.2 3.1-8.9 2.8-3.4-0.3-4.7 4.7-7.8 5.9-1.9 0.8-4.3 0.5-6.5-0.1-2.2 2-3 5.9 0.9 6.5 5.6 0.8 11.3-0.6 16.6-2.6 2.5-0.9 5-2.9 7.2-4.4 5.3-3.5 9.7-3.9 15.7-4.5 6.3-0.6 12.6-6.4 17.3-10.1 4.1-3.2 5.1-7.7 4.1-12.5-0.2-0.9-0.7-1.5-1.4-1.9z"/></svg>
