<svg xmlns="http://www.w3.org/2000/svg" version="1.2" viewBox="0 0 214 231" width="214" height="231"><defs><clipPath clipPathUnits="userSpaceOnUse" id="cp1"><path d="m805 336h-1250v-500h1250z"/></clipPath><linearGradient id="P" gradientUnits="userSpaceOnUse"/><linearGradient id="g1" x2="1" href="#P" gradientTransform="matrix(1.262,-25.306,43.64,2.176,100.055,26.625)"><stop offset=".01" stop-color="#2f0063"/><stop offset=".98" stop-color="#383e81"/></linearGradient><linearGradient id="g2" x2="1" href="#P" gradientTransform="matrix(.664,-13.319,3.655,.182,62.235,17.079)"><stop stop-color="#007cde"/><stop offset="1" stop-color="#0f4aa4"/></linearGradient><linearGradient id="g3" x2="1" href="#P" gradientTransform="matrix(0,-30.658,18.492,0,163.335,75.895)"><stop stop-color="#a40540"/><stop offset="1" stop-color="#c7224a"/></linearGradient><linearGradient id="g4" x2="1" href="#P" gradientTransform="matrix(0,-76.706,160.39,0,87.694,89.862)"><stop stop-color="#9795ff"/><stop offset="1" stop-color="#f4f1ff"/></linearGradient><linearGradient id="g5" x2="1" href="#P" gradientTransform="matrix(1.498,-83.663,61.988,1.11,-5.557,93.457)"><stop offset=".01" stop-color="#2f0063"/><stop offset=".98" stop-color="#383e81"/></linearGradient><linearGradient id="g6" x2="1" href="#P" gradientTransform="matrix(1.231,-68.74,23.48,.42,-76.795,85.166)"><stop stop-color="#007cde"/><stop offset="1" stop-color="#0f4aa4"/></linearGradient><linearGradient id="g7" x2="1" href="#P" gradientTransform="matrix(0,-54.52,25.163,0,85.584,84.549)"><stop stop-color="#a40540"/><stop offset="1" stop-color="#c7224a"/></linearGradient><linearGradient id="g8" x2="1" href="#P" gradientTransform="matrix(63.386,0,0,65.029,69.367,21.56)"><stop stop-color="#9579a7"/><stop offset="1" stop-color="#fff"/></linearGradient><linearGradient id="g9" x2="1" href="#P" gradientTransform="matrix(0,-21.405,17.386,0,101.552,27.151)"><stop stop-color="#9795ff"/><stop offset="1" stop-color="#f4f1ff"/></linearGradient></defs><style>.a{fill:#321255}.b{fill:#5a4d9c}.c{fill:#4f2f5b}.d{fill:url(#g1)}.e{fill:#766bd5}.f{fill:url(#g2)}.g{fill:url(#g3)}.h{fill:url(#g4)}.i{fill:url(#g5)}.j{fill:url(#g6)}.k{fill:#fff}.l{fill:#ff4c4f}.m{fill:url(#g7)}.n{fill:#bebdff}.o{opacity:.5;mix-blend-mode:soft-light;fill:#fff}.p{fill:#53345f}.q{mix-blend-mode:multiply;fill:url(#g8)}.r{fill:url(#g9)}</style><g clip-path="url(#cp1)"><path class="a" d="m161.8 117.7l51.7 112.5h-3.5l-61.6-112.5z"/><path class="a" d="m148.4 80.9l-1.9 8.2-12.2 0.5 1.1-7.8z"/><path class="b" d="m134.3 89.6h-6.2l-1-9.5 5.5-0.3 0.2 2.1 2.6-0.1z"/><path class="a" d="m133.3 89.6l1 9.5h7.4l1.1-9.9z"/><path class="b" d="m109.7 95.8l34.4-0.2v9.8h-34.4z"/><path class="a" d="m144.1 95.6l21.1 1.8 3.2 8h-24.3z"/><path class="a" d="m113.7 105.4l2 13.6 46.1-1.3 3-12.3z"/><path class="b" d="m114.5 110.6l-52.7 119.6h2.8l56.8-111.2z"/><path class="b" d="m139.2 118.4l5.4-7.8 8.5 7.4 26.4 112.2h-4.5z"/><path class="a" d="m144.6 110.6l33 119.6h1.9l-26.4-112.2z"/><path class="a" d="m119.2 116.4l-55.8 113.8h1.2l56.8-111.2z"/><path class="b" d="m162.6 191.5l-80 1.2-1.1 2.7 82.2-0.6z"/><path class="a" d="m170.2 190.9h23.5l2.7 2.5-26.2 1.2z"/><path class="c" d="m90 25.8v-4.7l22.8 4.2-0.9 3.7z"/><path class="d" d="m87.4 0.6l40.8 8.7c3.1 2.9 2 15.6-4.6 18.5l-37.9-5.3c0 0 5.8-8.9 1.7-21.9z"/><path class="e" d="m87.4 0.6c-4.4 1.5-8.4 16.1-1.7 21.9 0 0 3.8-2.7 4.2-10.8 0.4-8.4-2.5-11.1-2.5-11.1z"/><path class="a" d="m88.6 12c-0.2 3.6-1.4 5.5-2.1 6.3-0.4 0.4-0.6 0.6-0.6 0.6-2.8-1.4-3.8-10.9 0.7-15 0 0 0.3 0.4 0.7 1.1 0.7 1.2 1.6 3.5 1.3 7z"/><path class="f" d="m88.6 12c-0.2 3.6-1.4 5.5-2.1 6.3-2.7-2.8-1.5-11.4 0.8-13.3 0.7 1.2 1.6 3.5 1.3 7z"/><path class="g" d="m182 45.2l12.1 2.8c4.1 2.8 6.5 20.2-0.9 25.1l-13.7 2.8z"/><path class="h" d="m25.8 13.2l154.2 26.9c6.9 1.7 10.6 30.3-2.5 38.3l-151.5 11.5c0 0 7.6-31.6-0.2-76.7z"/><path class="i" d="m24.2 10.3l45.5 7.2c15 10.3 21.3 59.2-5.4 72.6l-44.4 3.8c0 0 25.9-35.8 4.3-83.6z"/><path class="e" d="m24.2 10.3c-24.7 8.6-35.2 62.5-4.3 83.6 0 0 17.5-12.7 18-42.8 0.6-31.1-13.7-40.8-13.7-40.8z"/><path class="a" d="m36.2 52.8c-0.8 18.1-7.8 30-12.3 34.2-2.3 2-3.9 2.9-3.9 2.9-18.1-6.4-27-55.7 1.3-76.7 0 0 2.1 1.6 4.8 5 4.6 6 10.8 17.3 10.1 34.6z"/><path class="j" d="m36.2 52.8c-0.8 18.1-7.8 30-12.3 34.2-18-13.6-12.3-59 2.2-68.8 4.6 6 10.8 17.3 10.1 34.6z"/><path class="k" d="m20.1 30c0 0-2.6 4.5-2.7 8.6l4.6 0.1 2.8-8.6z"/><path class="l" d="m129.5 31.3l2.6-1.3c4.7 0 12.5 34.7 0.7 54.5l-4.1-2.4 3.4-0.2c0 0 12.5-24.6-0.3-50.2z"/><path class="m" d="m132.1 30c7 4.2 9.8 39.9 0.7 54.5l16.6-1.3c8.4-6.8 11.5-38.2 1.9-50.2z"/><path class="n" d="m155.7 175.9l6.4-4.2 2.4 8.3-6.6 3z"/><path class="b" d="m170.2 179.9l-5.7 0.1-2.4-8.3 6.3 1z"/><path class="a" d="m170.2 179.9l-2.3 1.1h-3.9l-4.1 2h-2l6.6-3z"/><path class="n" d="m85.5 173l3.7 1.9-3.4 6.3-3.2-1.3z"/><path class="b" d="m89.2 174.9l3.8 2.6-3 5.1-4.2-1.4z"/><path class="b" d="m178.7 175.2l9.3-3.5 2.4 6.5-8.5 2.9z"/><path class="n" d="m169.4 105.4c0 9.5-4.5 17.2-10 17.2-5.6 0-10.1-7.7-10.1-17.2 0-9.5 4.5-17.2 10.1-17.2 5.5 0 10 7.7 10 17.2z"/><path class="n" d="m157.9 88.4c0 0 4.5-1.8 9.7 0l-1.4 34.2c0 0-4.1 1.4-8.3-0.2 0 0-8.7-20.6 0-34z"/><path class="b" d="m176.2 105.4c0 9.5-4.5 17.2-10 17.2-5.6 0-10.1-7.7-10.1-17.2 0-9.5 4.5-17.2 10.1-17.2 5.5 0 10 7.7 10 17.2z"/><path class="a" d="m172.3 105.3c0 3.7-1.8 6.7-3.9 6.7-2.2 0-3.9-3-3.9-6.7 0-3.7 1.7-6.7 3.9-6.7 2.1 0 3.9 3 3.9 6.7z"/><path class="n" d="m170.1 105.4c0 2.7-1.2 4.8-2.8 4.8-1.5 0-2.8-2.1-2.8-4.8 0-2.7 1.3-4.9 2.8-4.9 1.6 0 2.8 2.2 2.8 4.9z"/><path class="o" d="m29.8 16.6c0 0 28.8 5.9 30.4 7.6 1.5 1.7-25.1 3.5-25.1 3.5 0 0-3.8-9-5.3-11.1z"/><path class="p" d="m136.5 68.1l-55.3-1.5v-0.3l55.3 1.5z"/><path class="p" d="m183.9 44.9l-28.5-3.2v-0.3l28.6 3.2z"/><path class="q" d="m73.9 21.6l2.3 0.3c0 0 14.9 26.8 2.5 62.1l54.1-2.1h-0.7l-62.7 4.7c0 0 25.1-24.3 4.5-65z"/><path class="r" d="m106 25.3c0 0 9.2-5 5.4-19.6l10.5 2.3c0 0 5 10.2-2.9 19.2z"/><path class="o" d="m23.6 85c-0.1 0.4 2.5-7.4 10.3-22.5 0 0-2.7 15.8-10.3 22.5z"/><path class="k" d="m83.1 28l14.5 2 2.2 2.2-16.3-1.1z"/><path class="k" d="m155.9 38.6l6.5 1.5 0.8 1.4-6-0.8z"/><path class="k" d="m151.9 93.9c0 0 3 0.7 5.7-0.9 2.7-1.5-0.4-4.4-0.4-4.4 0 0-3.2 0.6-5.3 5.3z"/></g></svg>
