<svg xmlns="http://www.w3.org/2000/svg" version="1.2" viewBox="0 0 203 205" width="203" height="205"><defs><linearGradient id="P" gradientUnits="userSpaceOnUse"/><radialGradient id="g1" cx="0" cy="0" r="1" href="#P" gradientTransform="matrix(142.686,0,0,142.686,53.961,70.411)"><stop stop-color="#fff"/><stop offset="1" stop-color="#5d0000"/></radialGradient><radialGradient id="g2" cx="0" cy="0" r="1" href="#P" gradientTransform="matrix(144.474,0,0,144.474,133.917,141.212)"><stop stop-color="#2b2b2b"/><stop offset=".99" stop-color="#f7a579"/></radialGradient></defs><style>.a{fill:#ff4617}.b{fill:#67000d}.c{mix-blend-mode:multiply;fill:#b03714}.d{mix-blend-mode:multiply;fill:#e0001d}.e{mix-blend-mode:multiply;fill:url(#g1)}.f{fill:#fff}.g{opacity:.7;mix-blend-mode:multiply;fill:#2c0000}.h{mix-blend-mode:screen;fill:#e9311f}.i{fill:#e9311f}.j{mix-blend-mode:screen;fill:url(#g2)}</style><path class="a" d="m201.9 102.5c0 55.5-45 100.4-100.4 100.4-55.4 0-100.4-44.9-100.4-100.4 0-55.4 45-100.3 100.4-100.3 55.4 0 100.4 44.9 100.4 100.3z"/><path fill-rule="evenodd" class="b" d="m202.1 102.6q0 0-0.1 1.8c0 1.2 0 2.9-0.2 5.2-0.3 4.7-1 11.4-3.2 19.8-2.4 8.3-6 18.3-12.5 28.5-6.5 10.2-15.7 20.7-28.1 29.2-6.2 4.2-13.1 7.9-20.7 10.8-7.5 2.9-15.7 4.8-24.3 5.8-17 1.9-35.5-0.8-52.5-8.6-16.9-7.7-32.3-20.5-43-36.8-5.5-8.1-9.7-17-12.6-26.5-1.5-4.7-2.6-9.5-3.4-14.4-0.8-4.9-1.2-9.9-1.3-14.9 0-4.9 0.3-9.9 1-14.8 0.7-4.9 1.6-9.8 3.1-14.6 2.8-9.5 7-18.6 12.4-26.9 10.8-16.5 26.3-29.3 43.5-37 8.5-3.9 17.5-6.3 26.4-7.7 2.3-0.2 4.5-0.6 6.8-0.7 1.1-0.1 2.2-0.2 3.3-0.2q1.7-0.1 3.3-0.1c2.3-0.1 4.4 0.1 6.6 0.1 2.1 0.2 4.3 0.3 6.5 0.6 8.5 1 16.8 2.9 24.3 5.9 7.5 2.9 14.5 6.6 20.7 10.8 12.3 8.5 21.5 19.1 28 29.2 6.6 10.3 10.2 20.3 12.5 28.6 2.3 8.3 3 15.2 3.2 19.8 0.2 2.3 0.2 4 0.2 5.2q0.1 1.8 0.1 1.9zm-0.4-0.1q0 0 0-1.8c-0.1-1.1 0-2.9-0.3-5.2-0.3-4.6-1.1-11.4-3.5-19.6-1.1-4.2-2.7-8.7-4.9-13.4-2.1-4.7-4.8-9.6-8.1-14.5-6.7-9.9-16.2-19.8-28.4-27.8-12.2-7.9-27.2-13.8-43.8-15.7-2.1-0.2-4.1-0.3-6.2-0.5-1.1 0-2.2 0-3.2-0.1h-1.7-1.5q-1.6 0.1-3.3 0.1c-1 0.1-2.1 0.2-3.2 0.2-2.1 0.2-4.3 0.5-6.4 0.8-4.4 0.7-8.7 1.5-13 2.8-2.1 0.6-4.2 1.3-6.4 2-2 0.9-4.2 1.6-6.3 2.6-16.6 7.2-31.7 19.6-42.4 35.5-10.7 15.8-16.8 35.1-17.1 54.7 0.1 4.8 0.3 9.7 1 14.6 0.7 4.8 1.7 9.6 3.1 14.3 2.7 9.3 6.9 18.2 12.2 26.3 10.7 16.1 26 28.6 42.9 35.7 2.1 1 4.3 1.7 6.4 2.5 2.1 0.7 4.3 1.4 6.4 2 4.4 1.2 8.7 2 13.1 2.6 2.2 0.3 4.3 0.6 6.5 0.7 1.1 0 2.1 0.1 3.2 0.2q1.7 0 3.3 0c2.1 0.1 4.2-0.1 6.4-0.1 2.1-0.2 4.2-0.3 6.2-0.5 16.6-2 31.7-8 43.9-16 12.2-8 21.6-17.9 28.3-27.8 3.3-4.9 6-9.8 8.2-14.5 2.1-4.7 3.8-9.2 4.9-13.4 2.3-8.2 3.1-15 3.4-19.6 0.3-2.3 0.2-4.1 0.3-5.2q0-1.8 0-1.9z"/><path class="c" d="m40.3 182c6.1 4.8 12.8 8.8 20 12.1 4-0.1 7.6-1 9.7-3 9.9-9.5-13.9-22.1-2.7-30.7 6.2-4.8 16-3.6 23.3-3.4 5.5 0.1 23.6 2.1 22.9-7.4-0.4-5-3.2-10.8-7.2-14-3.3-2.6-7.5-4.5-10.3-7.8-5.6-6.6-2.7-17 4.7-21 5.4-2.8 12.6-4 16.4-9.1 4.1-5.5 3.9-13-0.7-18.2-5-5.7-13.7-8-20.5-3.8-5.1 3.1-8.3 8.2-12.5 12.3-9.2 8.7-20 2.5-31.1 5.4-7.2 1.9-15.9 12-9.7 19.3 3.2 3.8 5.9 7 7.6 11.8 3.2 9.3 3.6 23.7-6.7 29.2-3.5 1.9-18 6-20.7 11.1 4.7 5.9 14.4 15.8 17.5 17.2z"/><path class="c" d="m170.8 29.9c-1.7 0.7-3 1.9-3.8 3.9-4.3 11.6 6.4 20.8 11 30.2 3.1 6.4 1.1 17.6-7.2 19.1-5.1 0.9-10.4-2-15.3-0.5-7 2.2-11 8.1-11.3 15.4-0.3 7.4 4.7 28.8 16.2 22.1 6.5-3.8 11.2-10.4 18.3-13.1 7-2.7 16.1-2 21.4 3.8q0.7 0.7 1.3 1.6 0.5-4.9 0.5-9.9c0-28.5-12-54.3-31.1-72.6z"/><path class="c" d="m125.5 5.1c-0.2 4.7-1.9 9.3-5.7 12.6-7 6.1-17.7 11.3-21.9 19.9-2 3.9-0.5 12.2 5.5 11.4 3.9-0.5 6.9-4.1 9.7-6.6 5.3-4.6 12.1-8.7 18.9-4.3 5.2 3.2 8 10.2 11.6 15 1.5 2 4.9 7.3 7.9 7 4.2-0.3 3.3-12.8 2.7-15.3-2.6-10.1-10.1-18.2-12.1-28.5-0.4-2-0.3-3.8 0.1-5.5-5.4-2.4-11-4.3-16.7-5.7z"/><path class="c" d="m45.4 23c4.3 0.4 8.8 0.5 12.9 2.4 0.6 0.3 0.6 1 0.2 1.5-0.8 1.2-4.6 5.8-1.3 6.3 2.4 0.3 5-0.4 7.3-1.1 5.9-1.8 11.5-4.3 16.8-7.2 6.5-3.5 14-9.2 14.9-17.1 0.2-1.9 0-3.7-0.5-5.4-20.4 1.1-39.3 8.5-54.7 20.1 1.5 0.3 3 0.4 4.4 0.5z"/><path class="c" d="m57.7 13.3c1.4 0.9 1.6 3.3 2.1 4.7 1.3 4 5.1 3.5 8.3 2.3 4.9-2 12.5-5.5 13.9-11.2 0.3-1.4 0.5-3.3 0.5-5.1-9.1 1.8-17.8 4.7-25.9 8.8 0.4 0.1 0.7 0.3 1.1 0.5z"/><path class="d" d="m190.2 108c-12.6-1.9-18.2 6.9-27.6 12.9-17.1 11.2-24.3-21.1-17.6-32.3 2.2-3.7 6-7.2 10.5-8 5.4-1 14.3 3 18.4-1.4 10.8-11.8-7.6-24-9.4-36.2-0.8-5.5 0.2-11.6 4.8-14.4-7.5-6.9-16-12.7-25.4-17q-0.1 0.8 0 1.7c0.3 5 2.5 9.6 4.8 13.9 4.7 8.9 9.2 17.1 7.5 27.4-0.6 4-3 10.2-8 6.7-5.7-4.1-9.3-11-13.1-16.6-5.8-8.4-13.8-7.1-20.9-0.7-3.6 3.1-9.8 10-15.1 6.1-6-4.5-5.1-11.4-0.6-16.7 6.1-7 14.3-11.4 20.9-17.8 2.8-2.7 4.2-6.8 4.2-10.9-7.1-1.7-14.5-2.5-22.1-2.5q-1.7 0-3.5 0.1c0.6 2.7 0.5 5.4-0.6 8.3-3.5 8.5-10.2 13.6-18.2 17.6-6.2 3-14.5 7.7-21.7 7.2-5.5-0.3-3.4-5.1-1.3-8.3-4-1.1-12.6-1-17.2-3q-3.8 3-7.4 6.4-0.3 2-0.2 4c0.7 7 6.4 7 11.3 9.6 7.1 3.8 11.5 14.5 12 22.2 0.5 8.8-3.9 15.2-10.6 20.4-6.8 5.2-20.2 9.9-19.9 20.2 0.2 6.6 4 8.5 6.6 13.8 1.3 2.9 0.5 6.5-0.8 9.2-3.1 6.3-13.1 7.2-17.9 12q-1 1-2 2.2c3.1 6.7 6.9 13.1 11.4 19 1.2-1.7 3.2-3.1 5.3-4.2 9.3-4.9 21.9-6.3 23.4-19.2 0.8-7-1.2-16-5.8-21.4-2.2-2.6-5.6-5.3-5.7-9-0.4-9.4 6.1-16.5 14.9-18.3 4.9-1 10-1.2 15-0.3 8.4 1.5 13-3.3 18.1-9.1 5.7-6.4 13.6-12.6 22.8-9.5 7.3 2.5 13.4 9.8 12.6 17.9-1 9.5-8.6 13.5-16.5 16.8-7 2.8-15.1 11-8.6 18.7 3.3 3.8 8.1 5.5 11.6 9 3.9 3.9 8.9 12.3 6.3 18.1-2 4.7-7.5 5.9-12.1 6.3-7.6 0.7-15.3-0.1-22.8 0.2-3.5 0.2-7.5 0.3-10.5 2-5.6 3.2-1.7 9.8 1 13.8 4.2 6 6.7 14.6-1.2 19-1.5 0.8-3.3 1.4-5.5 1.7 11.7 4.7 24.4 7.3 37.7 7.3q2.2 0 4.3-0.1c-5.1-2.4-8.8-8.8-10.4-13.8-1.3-3.9-2.8-11.7 1.9-14.2 4.6-2.5 10.3-1.4 15.3-1.5 7.5 0 15-2 19.2-9 5.1-8.6-4.2-15.8-8.4-22.4-3.4-5.2-3.5-10.8 2.4-14.1 5.6-3.2 20.8-0.1 22.5 6.9 1.2 5 0 11.1 2.2 15.8 3.7 7.9 10.3 0.9 12.7-3.7 3.1-5.8 6.4-16.4 13.8-18.2 11.3-2.7 15.2 7.2 15 17.4 4.6-9.4 7.6-19.6 9-30.4-2.4-3.9-5.8-6.8-10.8-7.6z"/><path class="c" d="m185.5 132.3c-10.9-8.5-17.1 9-21 16-2.4 4.2-9.1 11.7-14.2 6.1-3.1-3.5-2.9-8.5-3.2-12.9-0.2-2.8-0.1-6.6-2.8-8.4-2.5-1.6-5.2-2.9-8.1-3.6-5.9-1.3-16.8 0.6-12.4 8.7 1.7 3.2 4.1 5.8 6.2 8.6 3.9 5.1 7.5 11.5 3.8 17.7-6.5 10.8-16.8 10.8-28 10.9-3.7 0-9-0.1-9.6 4.8-0.3 3.1 0.3 6.1 1.5 8.9 2 4.5 5.3 10.5 10.3 12.1 0.7 0.2 0.7 0.9 0.4 1.5 35.5-2.4 65.9-23.3 81.8-53.1 0.8-6.7-0.3-13.9-4.7-17.3z"/><path class="c" d="m18.5 135.3c5.1-2.5 15-6.5 10-14.2-2.4-3.7-5.1-5.9-6-10.3-4.3-21.9 32.8-21.9 30.1-43.9-0.7-6.1-3.5-15.8-8.8-19.4-3.7-2.5-8.2-2.8-11.5-5.7-2.6-2.4-3.2-5.6-2.9-9-17.5 18.1-28.3 42.6-28.3 69.7 0 14.2 3 27.6 8.2 39.8 2.6-2.9 5.7-5.3 9.2-7z"/><path class="c" d="m75.3 116.4c-0.9-2.3-1.2-4.6-0.1-6.9 0.6-1.4 1.9-2.2 3.3-2.9 0.8-0.4 1.7-0.6 2.6-1q2.5-4.5-1.6-5.6c-13.5-5.5-24.1 5.6-21.2 18.4q0.7 1.1 1.3 2.2c2.3 3.9 3.4 8.1 3.7 12.7 0.7 8.8-0.3 20.2-8.7 25.4-4.8 3-16.4 8-10.1 15.4 2 2.4 6.2 6.4 9.9 3.7 1.8-1.2 0.4-3.4 0.2-4.8-0.4-2-0.7-4-0.5-6.1 0.4-10.2 8.3-15.5 18.2-15.4 5.4 0 17.9 0.5 19.3-7 0.6-3.6-1.5-7.2-3.5-10.1-4.1-5.8-10.3-11.2-12.8-18z"/><path class="c" d="m107.1 81.4c-0.4-0.1-0.5-0.4-0.5-0.7-5.2-1.9-12.1-0.2-14.5 5-2.1 4.6 0.4 13.3 6.6 13.1 7.6-0.1 19.5-13.2 8.4-17.4z"/><path class="c" d="m171.4 89.3c-3.5 0.5-13.8-0.4-13.5 5.7 0.4 5.6 4.1 11.2 10.5 8.9 6.3-2.2 10.1-9.1 16.3-11 2.9-0.9 5.8-0.6 8.6 0.5 2.3 1 5.8 3.7 8.4 3.5-1.3-23.5-10.7-44.8-25.4-61.2-1.4 4.5-1 10.4 0.3 13.8 2.7 7.4 8.9 13 10.2 21 1.6 10.5-5.1 17.3-15.4 18.8z"/><path class="c" d="m123.8 20.9c-3.3 2.5-19.8 9.7-15.3 15.1 4.7 5.7 14.8-7.4 17.2-10.9 3.8-5.2 7.2-11.1 9-17.3q-1.6-0.6-3.3-1.1c-0.7 5.5-3 10.8-7.6 14.2z"/><path class="c" d="m179.4 144.8c-7.3-1.8-13.6 12.5-16.1 17.2-3.4 6.2-7 11.4-12.8 15.6-5.8 4.3-12.5 2.3-19.1 2.1-5.4-0.1-13.5 1.1-12.6 8.3 0.6 4.7 3.7 9.2 7.7 11.7 21.2-5.4 39.7-17.6 53.1-34.1 2.2-7.6 4.5-19.6-0.2-20.8z"/><path class="c" d="m138.2 139.6c-0.3-0.3-0.1-2.4-0.4-2.6-0.5 0-0.7-0.1-0.8-0.4q-1-0.4-2-0.3c-1 0.1-2.5 0.5-2.5 1.7 0 1.9 2 5.4 4.3 4.7 1.9-0.5 4.1-3.9 3.3-5.3-0.4 0.5-1.5 2.5-1.9 2.2z"/><path class="c" d="m33.8 79.2c1.9-2.1 3-4.9 2.8-7.7-0.4-3.7-4.5-0.6-5.7 0.1-1.8 0.9-4.5 2.7-6.7 2.2-2.9-0.6-5.9-2.8-8.6-0.3-1.9 1.7-3.4 3.7-4.8 5.8-1.9 2.8-5.2 8.7-8.9 11.3q-0.8 5.9-0.8 11.9c0 8.9 1.2 17.6 3.4 25.8 3.9-0.8 8-3.9 9.3-7.5 3-7.9-5-14.6-4.1-22.5 1.6-14 16.6-10.7 24.1-19.1z"/><path class="c" d="m17.8 59.7c3.1 1.1 4.9 4.5 8.4 0.8 2.5-2.8 5.7-8.3 2.6-11.9-3.8-4.2-3-1.2-5.9-2-1.4-0.4-2.4-1.3-3-2.5-6 8.4-10.7 17.8-14 27.8 4-5.9 8.3-13.5 11.9-12.2z"/><path class="c" d="m167.9 151.5c-3-1.1-6.3 1.3-7.9 3.7-0.8 1.1-1.6 2.4-1.8 3.8q-0.1 0.5-0.1 1 0-0.8 0-0.1c-0.1 0.5-0.2 0.9-0.1 1.5 0.1 1.1 0.4 2.2 1.3 3 0.8 0.6 1.6 0.9 2.5 0.9 1.3 0.6 3.1-0.1 4.3-1 1.8-1.3 2.9-3.5 3.7-5.5 1.1-2.7 1.4-6.1-1.9-7.3z"/><path class="c" d="m175.5 145.6c-1.1-1.4-2.7-1.2-3.8-0.3-0.8 0.3-1.4 1-1.5 1.8q-0.1 0.3-0.1 0.6c0 0.1-0.3 0.7-0.1 0.3-0.8 1.5-0.1 3.5 1.6 3.6 2.9 0.3 5.8-3.4 3.9-6z"/><path class="c" d="m145.3 170.5c-1.2-1.4-3.4-1-4.7 0-1.4 0.9-2.6 2.8-2.4 4.5 0.2 1.3 0.9 2.4 2.4 2.5 1.7 0.2 3.1-1 4.1-2.4 0.4-0.5 0.8-1 1.1-1.5 0.6-1.2 0.3-2.3-0.5-3.1z"/><path class="c" d="m163.2 129.5c-0.7-1.6-1.5-2.7-3-3.5-1.6-0.9-3.8 0-5.1 0.9-2.8 1.9-4 5.6-3.5 8.8 0.3 1.3 0.9 2.6 1.9 3.6q0.3 0.3 0.8 0.4 0.8 0.8 2 1c2.7 0.5 4.9-2.1 6-4.2 1-2 1.7-4.8 0.9-7z"/><path class="c" d="m180.6 93.2q-0.5-0.4-1-0.5c0-1-0.9-1.7-1.8-1.5-1.1 0.2-1.7 1.2-1.8 2.2-0.1 1.4-0.6 2.5-0.3 3.9 0.4 1.5 2.2 1.5 3.2 0.8 0.4-0.3 0.8-0.6 1.2-1 1.1-1 1.7-2.7 0.5-3.9z"/><path class="c" d="m194.7 82.9c-0.5-1.1-1.1-2.1-2-2.6-1.7-0.9-3.1-0.7-4.7 0.3-4.3 2.9-4.5 11.2-1.1 15.4 0.5 1.6 1.6 2.7 3.7 2.3 3.9 0.7 7.5-3.2 7.7-7 0.2-2.9-1.3-6.5-3.6-8.4z"/><path class="c" d="m187.4 62.2c-2.3-0.5-4.3 2.1-4.3 4.2 0 0.9 0.4 1.6 1.1 2q0.1 0.2 0.2 0.4 0.1 0.1 0.2 0.3 0.1 0.1 0.2 0.2 0 0 0 0c1.1 0.8 2.9 0.5 3.7-0.7 0.7-1 0.9-1.9 1.2-3 0.3-1.8-0.6-3.1-2.3-3.4z"/><path class="c" d="m172.6 55c-1-1.5-2.7-2.3-4.6-2-0.1 0-0.2 0.1-0.4 0.1-0.7-0.3-1.6-0.2-2.2 0.7-2.7 3.7-0.8 13.7 5.2 11.2 3.7-1.5 4.1-7 2-10z"/><path class="c" d="m139.9 108.8c-0.9-3.4-5.6-1.5-6 1.2-0.1 0.5-0.2 0.9-0.2 1.4q-0.2 0.4-0.3 0.9c-0.3 0.9 0.2 2.2 1.2 2.5 1.7 0.6 3.2-0.1 4.2-1.2q0.1-0.1 0.2-0.3c0.8-1 1.1-1.9 1-3 0-0.5 0-1-0.1-1.5z"/><path class="c" d="m118.8 160.5c-0.6-2.2-2.7-3.6-4.9-3.6-1.2 0-2.2 0.3-3.2 0.9-2.2 1-4.2 3.8-5.2 5.5-1.9 3.2-3.4 7.8-0.3 10.8 3.2 3.1 7.8-0.7 10.1-2.9 2.5-2.6 4.5-7.1 3.5-10.7z"/><path class="c" d="m85.5 175.6c-0.2-1.5-0.8-2.4-2.2-3.2-1.9-1-4.3 0.3-5.8 1.4-2 1.5-3.4 3.6-3.6 6.1-0.1 1.5 0.9 2.9 2.2 3.6 0.9 0.4 2.1 0.3 3.1 0.1 1.2-0.2 2.5-0.8 3.4-1.5 1.1-0.8 1.7-1.9 2-3.1q0.1-0.2 0.2-0.4c0.5-0.8 0.9-2 0.7-3z"/><path class="c" d="m110.1 186.8q-0.2-0.5-0.7-0.9c-1.2-0.9-2.9-0.3-3.7 0.7-0.2 0.3-0.3 0.5-0.5 0.8-0.7 0.8-0.8 2-0.3 3 0 0 0.1 0.1 0.2 0.2 0.2 0.4 0.6 0.8 1.2 1 2.2 0.9 4.1-1.4 4.2-3.4 0-0.5-0.1-1-0.4-1.4z"/><path class="c" d="m193.4 120.6c0.5-1.1 0.8-2.2 0.7-3.4-0.2-2.7-2-5.4-5.1-4.7-2.8 0.7-4.7 3.3-5.4 5.9-0.3 0.9-0.3 1.7-0.2 2.6-0.2 1.9 0.4 3.8 2.4 4.7 2.2 1 4.9-0.6 6.2-2.4q0.1-0.3 0.3-0.5 0.7-1 1.1-2.2z"/><path class="c" d="m52 172.2c-0.7-2.6-3-4.5-5.6-4.4-0.6-0.3-1.1-0.6-1.6-0.9-1.6-0.7-3.2-1.5-4.9-1.2-2.3 0.4-4.5 2.9-4.2 5.2 0.2 2.2 1.2 3.6 2.8 5.1 1.9 1.7 5.3 4 8 3.8 3.9-0.2 6.4-3.8 5.5-7.6z"/><path class="c" d="m63.4 179.5c-0.3-0.3-0.5-0.6-0.8-0.8-1-0.9-2.6-0.6-3.6 0.2-1.1 0.9-2.1 3.1-1 4.4q0.3 0.4 0.7 0.8c0.7 0.6 2 0.7 2.9 0.2 0.8-0.4 1.4-1 1.8-1.8 0.4-0.8 0.6-2.3 0-3z"/><path class="c" d="m30.8 144.9c-0.6-1-1.6-1.3-2.5-1.3-1.4-1.2-3.1-2.1-4.6-2.2-3-0.2-5.3 3.1-4.3 5.9 0.5 1.6 1.7 3.2 3.2 4.1 0.9 0.6 1.8 0.8 2.6 0.9 1.9 0.8 4 0.3 5.2-1.7 0.3-0.6 0.5-1.3 0.5-1.9 0.5-1.3 0.6-2.8-0.1-3.8z"/><path class="c" d="m51.5 148.8c-0.5 0-0.9 0.1-1.3 0.3-1.9 0.4-3.2 3.1-2.1 4.7 1.4 2.2 4.9 0.5 5.2-1.7 0-0.4 0.1-0.8 0.1-1.2 0-1.1-0.8-2-1.9-2.1z"/><path class="c" d="m118.9 124.9c-0.9 0.2-1.3 0.7-1.9 1.3-1 1-0.7 3.1 0.9 3.1 0.9 0.1 1.6-0.3 2.2-1 0.3-0.3 0.5-0.7 0.5-1.2 0.3-1.2-0.2-2.5-1.7-2.2z"/><path class="c" d="m159.8 70.7c0-2.1-1.1-5.6-3.6-5.5-2.9 0-4.7 2.3-5.6 4.8-0.8 2.2-1.4 5 0.2 6.9q0 0.2 0.1 0.4c1 2.5 3.9 2.4 5.8 0.8 0.7-0.6 1.3-1.4 1.7-2.2q0.5-0.6 0.7-1.2c0.3-0.6 0.4-1.3 0.4-2 0.2-0.6 0.2-1.3 0.3-2z"/><path class="c" d="m75 104.7c-1.1-0.1-1.9 0.5-2.5 1.3q-0.2 0.2-0.3 0.3c-0.8 0.9-1.2 2.4-0.4 3.5q0 0 0 0c1.1 1.5 3.3 1.2 4.3-0.2 0.6-0.8 1-1.7 0.9-2.7-0.1-1.1-0.8-2.1-2-2.2z"/><path class="e" d="m201.9 104.4c0 55.5-45 100.4-100.4 100.4-55.4 0-100.4-44.9-100.4-100.4 0-55.4 45-100.4 100.4-100.4 55.4 0 100.4 45 100.4 100.4z"/><path class="f" d="m39 27.4c0 0-62.8 52.9-23.4 123.2 0 0-30.3-68 23.4-123.2z"/><path class="g" d="m188.6 59c0 0 22.5 71-19 116 0 0 50.3-37.9 19-116z"/><path class="h" d="m56.9 100.6c-0.5-1-1.8-1.5-2.9-1.6-1.5-0.1-2.8 0.6-3.9 1.4-1.6 1-3.1 3-3.2 5-0.1 0.8 0 1.7 0.4 2.7 0.8 1.6 2.6 1.9 4.2 1.7 1.6-0.2 3.2-1.7 4.3-2.9 1.6-1.7 2.2-4.1 1.1-6.3z"/><path class="h" d="m73.9 50.6c-1-1.5-2.7-1.2-3.9-0.2-0.5 0.4-0.9 0.9-1.2 1.6q-0.1 0.2-0.1 0.4 0 0 0 0-0.1 0.4-0.1 0.9c-0.1 0.9 0.1 1.7 1.1 2.2 0.6 0.2 1.2 0.2 1.8 0q0.7-0.2 1.3-0.6c1.3-1 2.1-2.8 1.1-4.3z"/><path class="h" d="m88.1 26.7c-2.4-0.2-4.2 1.7-5.4 3.5q-0.3 0.6-0.5 1.2c-1.9 2-2.7 4.8-0.5 6.7 1.5 1.3 4 0.6 5.5-0.3 2.1-1.3 3.9-3.3 4.4-5.8 0.4-2.5-0.8-5.1-3.5-5.3z"/><path class="h" d="m107.1 15.5c-1.6 0-3 1.1-3.3 2.7-0.4 1.4 0.4 3.1 2 3.1 1.6 0 3-1.1 3.4-2.7 0.3-1.4-0.5-3.1-2.1-3.1z"/><path class="h" d="m64.7 68.4c-0.4-1.6-1.9-2-3.4-1.9-1.4 0.1-2.4 1.2-3.4 2.2-1.1 1.2-1.9 2.4-2.1 4.2-0.1 1 0.5 2.2 1.2 2.8 0.8 0.8 2 0.9 3.1 0.7 1.9-0.4 3.6-2.2 4-4.2q0.1-0.2 0.2-0.5c0.4-1.1 0.7-2.1 0.4-3.3z"/><path class="h" d="m41.3 64.7c-3 0-4.7 5.3-1.3 5.3 3 0 4.7-5.3 1.3-5.3z"/><path class="h" d="m130.3 61.4c-0.8-0.8-1.9-0.8-2.9-0.7-1.8 0.3-3.4 1.7-4.6 2.9-1.5 1.5-2.9 4.1-2 6.2 0.5 1.5 1.7 2.4 3.3 2.5 2.1 0.1 4.2-1.4 5-3.2q0.1-0.2 0.2-0.4c0.9-1.1 1.8-2.3 1.9-3.7 0.2-1.4 0.1-2.6-0.9-3.6z"/><path class="h" d="m100.1 51.5c-2.6 0-4 4.6-1.1 4.6 2.6 0 4-4.6 1.1-4.6z"/><path class="h" d="m126.3 42.4c-1.1-0.8-2.3-0.8-3.5-0.6-2.1 0.3-3.9 1.8-5.3 3.3-0.9 1.1-1.5 2.9-1.1 4.4q-0.1 0.3 0 0.5c0.1 1.3 0.7 2.5 2 2.9 2.2 0.6 4.2-0.5 5.8-1.8 1.5-1.2 3-2.9 3.3-4.9 0.2-1.4 0-2.9-1.2-3.8z"/><path class="h" d="m134.7 25c-2.8 0-4.4 5-1.2 5 2.8 0 4.4-5 1.2-5z"/><g style="mix-blend-mode:screen"><path class="i" d="m33.2 57.7q-0.1 0-0.1 0.1-0.1 0.1-0.2 0.1 0.1 0 0.3-0.2z"/><path class="i" d="m31.6 49.5c-2.1 0-3.7 1.3-4.6 3.1-0.4 0.8-0.6 1.7-0.5 2.6q-0.1 0.2-0.2 0.3c-0.8 1.7 0.1 4.1 2.2 4.2 1.8 0.1 3.4-0.7 4.6-1.9 0.2-0.2 0.4-0.4 0.5-0.5 0.3-0.4 0.5-0.9 0.8-1.3 0.4-0.9 0.6-1.8 0.6-2.8 0.2-2-1.5-3.6-3.4-3.7z"/><path class="i" d="m32.9 57.9c-0.2 0.3-0.1 0.2 0 0z"/></g><path class="h" d="m26.8 63.2c-2.5 0-3.9 4.4-1.1 4.4 2.5 0 4-4.4 1.1-4.4z"/><path class="j" d="m29.7 152.1c7-3.6 11.3-9 10.5-17.3-1.2-11.2-8.6-21.1-7.7-32.6 0.5-7.2 5.1-13 11.5-15.9 7.1-3.2 15.3-2.8 22.8-3.9 6.4-0.9 12.9-2.5 16.1-8.7 1.8-3.6 3.2-7.3 5.7-10.5 6-7.4 17.2-7.5 24.9-2.9 4.3 2.5 8.6 9 13.6 9.7 9.2 1.3 9.3-7.1 11.7-13.1 0.1-0.5 0.8-1.1 1.3-0.8 5.4 2.5 8.5 9.3 14.1 11.1 7.5 2.5 8.7-13.1 7.7-17.3-1.2-4.9-3.3-9.5-5-14.4-1.5-4.5-4.2-10.4-1.6-15-15.5-10.1-33.9-16-53.8-16-54.2 0-98.1 43.9-98.1 98 0 21.4 6.9 41.1 18.4 57.1 1.5-3.7 4.4-5.7 7.9-7.5z"/></svg>
