<svg xmlns="http://www.w3.org/2000/svg" version="1.2" viewBox="0 0 686 664" width="686" height="664"><style>.a{fill:#616e7d}.b{fill:#aad4c8}</style><path class="a" d="m135.3 347.9l-9.9 0.3z"/><path class="a" d="m178.1 507.8c-43-43-67.3-94.2-72.1-152.3l-59.9 6.7-0.8 0.1h-0.8c-4.7 0.1-10.8 0.4-16.9 1.1q-2 0.3-3.9 0.6c7.6 76.4 41.4 147.9 95.9 202.4 62.9 62.9 146.6 97.6 235.6 97.6 84 0 163.2-30.8 224.7-87.2l-58.6-58.6c-45.8 40.7-104.1 62.9-165.9 62.9-67.1 0-130.1-26-177.3-73.3z"/><path class="a" d="m352.7 0c-89.1 0-172.7 34.7-235.7 97.6q-11.1 11.1-21 23.1l59 59c6.4-8.2 13.1-16.2 20.5-23.6 47.3-47.2 110.1-73.2 177-73.2 67.1 0 130.1 26 177.3 73.2 45.6 45.7 71.4 106 73.1 170.6 27.4-4.6 54.9-9 82.4-13.4-4.8-81.5-39-157.7-97-215.7-62.9-62.9-146.6-97.6-235.6-97.6z"/><path class="b" d="m35.2 59.9l-34.5 233.2 232.6-35.1-78.3-78.3-59-59z"/><path class="b" d="m521.3 518.2l58.6 58.6 60 60.1 35.1-232.6-233.2 34.5z"/></svg>
