<svg xmlns="http://www.w3.org/2000/svg" version="1.2" viewBox="0 0 1473 1664" width="1473" height="1664"><style>.a{fill:#203184}.b{fill:#d6ddea}.c{fill:#bcc7d8}.d{fill:#374faa}</style><path class="a" d="m1050.7 720.7c0 87-70.6 157.5-157.6 157.5-86.9 0-157.5-70.5-157.5-157.5 0-87 70.6-157.5 157.5-157.5 87 0 157.6 70.5 157.6 157.5z"/><path class="a" d="m448.4 985.2h-363.6c-46.5 0-84.3-37.7-84.3-84.3v-360.4c0-46.6 37.8-84.3 84.3-84.3h363.6z"/><path class="b" d="m862.9 1411.7l-471-426.5v-529l471-426.5z"/><path class="c" d="m878.8 1441.1c-16.2 0-29.4-13.2-29.4-29.4v-1382c0-16.2 13.2-29.4 29.4-29.4 16.3 0 29.5 13.2 29.5 29.4v1382c0 16.2-13.2 29.4-29.5 29.4z"/><path class="c" d="m1097.7 922.2c-7.6 0-15.1-2.7-21.2-8.1-13.1-11.7-14.3-31.8-2.6-44.9 37.5-42.1 57.5-96.5 56.4-153.1-1.2-56.8-23.6-110.4-63.1-151.1-12.3-12.6-12-32.8 0.6-45 12.6-12.3 32.8-12 45 0.6 50.8 52.3 79.6 121.3 81.1 194.2 1.5 72.7-24.2 142.5-72.5 196.7-6.3 7.1-15 10.7-23.7 10.7z"/><path class="c" d="m1203.4 1040.8c-6.8 0-13.7-2-19.8-6.2-15.8-11-19.7-32.7-8.8-48.5 57.5-82.8 87.2-176.2 86.1-270.1-1.1-94.1-33.2-187.2-92.8-269.2-11.3-15.6-7.8-37.4 7.8-48.7 15.5-11.3 37.3-7.9 48.6 7.7 68.1 93.8 104.8 200.7 106.1 309.4 1.3 108.5-32.8 215.9-98.5 310.6-6.8 9.8-17.6 15-28.7 15z"/><path class="c" d="m1303.7 1170.9c-6.9 0-13.8-2-19.8-6.2-15.9-11-19.8-32.7-8.8-48.5 42.9-61.8 75.5-127.6 97-195.8 21-66.9 31.3-135.7 30.5-204.7-0.8-69-12.8-137.7-35.5-204.3-23.1-68-57.4-133.5-101.9-194.7-11.3-15.6-7.9-37.4 7.7-48.7 15.6-11.3 37.4-7.9 48.7 7.7 48.6 66.9 86.1 138.6 111.5 213.2 25.1 73.6 38.3 149.6 39.2 226 0.9 76.3-10.4 152.5-33.7 226.5-23.6 74.8-59.4 147-106.2 214.5-6.8 9.8-17.7 15-28.7 15z"/><path class="d" d="m53.8 742.2v-194.4c0-20.5 16.7-37.1 37.2-37.1h164.9c0 0-139.2 60.4-202.1 231.5z"/><path class="b" d="m854.5 1621.2c0 23.5-176 42.5-393 42.5-217.1 0-393-19-393-42.5 0-23.5 175.9-42.5 393-42.5 217 0 393 19 393 42.5z"/></svg>
