<svg xmlns="http://www.w3.org/2000/svg" version="1.2" viewBox="0 0 1543 1664" width="1543" height="1664"><style>.a{fill:#203184}.b{fill:#d6ddea}.c{fill:#bcc7d8}.d{fill:#d33c52}.e{fill:#374faa}</style><path class="a" d="m1050.8 720.7c0 87-70.5 157.5-157.5 157.5-87 0-157.6-70.5-157.6-157.5 0-87 70.6-157.5 157.6-157.5 87 0 157.5 70.5 157.5 157.5z"/><path class="a" d="m448.5 985.2h-363.6c-46.5 0-84.3-37.7-84.3-84.3v-360.4c0-46.6 37.8-84.3 84.3-84.3h363.6z"/><path class="b" d="m863.1 1411.7l-471.1-426.5v-529l471-426.5z"/><path class="c" d="m878.9 1441.1c-16.2 0-29.4-13.2-29.4-29.4v-1382c0-16.2 13.2-29.4 29.4-29.4 16.3 0 29.5 13.2 29.5 29.4v1382c0 16.2-13.2 29.4-29.5 29.4z"/><path class="d" d="m1375.1 720.7l158.1-158.1c12.4-12.4 12.4-32.6 0-45-12.5-12.4-32.6-12.4-45 0l-158.1 158.1-158.1-158.1c-12.5-12.4-32.6-12.4-45 0-12.5 12.4-12.5 32.6 0 45l158.1 158.1-158.1 158.1c-12.5 12.4-12.5 32.6 0 45 6.2 6.2 14.3 9.3 22.5 9.3 8.1 0 16.2-3.1 22.5-9.3l158.1-158.1 158.1 158.1c6.2 6.2 14.3 9.3 22.5 9.3 8.1 0 16.2-3.1 22.5-9.3 12.4-12.4 12.4-32.6 0-45z"/><path class="e" d="m53.9 742.2v-194.4c0-20.5 16.7-37.1 37.2-37.1h164.9c0 0-139.2 60.4-202.1 231.5z"/><path class="b" d="m854.5 1621.2c0 23.5-175.5 42.5-392.1 42.5-216.5 0-392-19-392-42.5 0-23.5 175.5-42.5 392-42.5 216.6 0 392.1 19 392.1 42.5z"/></svg>
