<svg xmlns="http://www.w3.org/2000/svg" version="1.2" viewBox="0 0 322 204" width="322" height="204"><defs><linearGradient id="P" gradientUnits="userSpaceOnUse"/><radialGradient id="g1" cx="0" cy="0" r="1" href="#P" gradientTransform="matrix(164.248,0,0,164.248,160.195,101.98)"><stop stop-color="#f9b61d" stop-opacity="1"/><stop offset=".98" stop-color="#f9b61d" stop-opacity="0"/></radialGradient></defs><style>.a{fill:#ffea8e}.b{opacity:.5;mix-blend-mode:multiply;fill:#ffd002}.c{mix-blend-mode:multiply;fill:#ffd002}.d{fill:#fff}.e{opacity:.7;fill:url(#g1)}</style><path class="a" d="m240.2 81.5l-30.6 33.3c-1.5 1.5-2.2 3.7-2 5.9l5.2 44.9c0.7 5.9-5.3 10.2-10.6 7.7l-41.1-18.8c-2-0.9-4.3-0.9-6.3 0l-21.9 10-19.2 8.8c-5.4 2.4-11.3-1.9-10.7-7.7l5.2-45c0.2-1 0.1-2.1-0.3-3.1q-0.5-1.6-1.6-2.8l-30.5-33.3c-4-4.4-1.7-11.4 4-12.5l44.3-9c2.2-0.4 4-1.7 5.1-3.6l8.5-15.1 0.1-0.1 13.6-24.2c3-5.1 10.3-5.1 13.2 0l16.6 29.5 5.6 9.9c1.1 1.9 2.9 3.2 5.1 3.7l44.2 9c5.8 1.1 8.1 8.1 4.1 12.5z"/><path class="b" d="m240.2 81.5l-30.6 33.3c-1.5 1.5-2.2 3.7-2 5.9l5.2 44.9c0.7 5.9-5.3 10.2-10.6 7.7l-41.1-18.8c-2-0.9-4.3-0.9-6.3 0l-21.9 10c-2.9-9.6-4.6-19.7 2.3-28.3 9.3-11.8 26.6-8.3 35.8-21.3 8.1-11.1 1.9-30.2 3-43.3 0.7-9.1 3-17.6 7.2-25.2l5.6 9.9c1.1 1.9 2.9 3.2 5.1 3.7l44.2 9c5.8 1.1 8.1 8.1 4.1 12.5z"/><path class="c" d="m240.2 81.5l-30.6 33.3c-1.5 1.5-2.2 3.7-2 5.9l5.2 44.9c0.7 5.9-5.3 10.2-10.6 7.7l-41.1-18.8c-2-0.9-4.3-0.9-6.3 0l-21.9 10-19.2 8.8c-5.4 2.4-11.3-1.9-10.7-7.7l5.2-45c0.2-1 0.1-2.1-0.3-3.1 10.9-7.9 23.8-14.2 28.4-29.4 2.6-8.6-0.1-20.1 0.1-29 0.1-5.9 0.5-11.9 1.3-17.9l0.1-0.1 13.6-24.2c3-5.1 10.3-5.1 13.2 0l16.6 29.5 5.6 9.9c1.1 1.9 2.9 3.2 5.1 3.7l44.2 9c5.8 1.1 8.1 8.1 4.1 12.5z"/><path class="d" d="m144 70.4c-3.4 0.1-6.2-2.8-5.6-5.6 0.4-2.1 1.1-4.3 1.9-6.3 3.3-8 10.2-30.1 21.5-30 2.1 0.1 4.8 2.1 3.6 4.8-0.7 1.4-1.4 2.8-2.4 4.1-3.1 4.4-5.7 9.1-7.7 14-1.9 4.5-3.8 8.9-5.7 13.3-0.7 1.6-1.5 3.1-2.8 4.3-0.9 0.9-1.9 1.4-2.8 1.4z"/><path class="d" d="m88.6 77.4c0.3-1.3 1.2-2.3 2.7-2.9q1.2-0.5 2.6-0.9c5.2-1.3 10.5-1.9 15.9-2.3 1.5-0.2 2.9 0 4.4 0.3 1.8 0.3 2.9 1.4 3.6 2.9 0.8 1.4 0.6 2.8-0.5 3.9-0.9 0.9-1.8 1.5-3 1.8-6.4 1.6-12.7 3.2-19.3 3.8-1.8 0.2-3.5 0.2-5-1.2-1.7-1.5-2.2-3.1-1.4-5.4z"/><path class="e" d="m369.1 102c0-2.9-62.2-5.3-147.6-6.1-1.8-18.6-11.9-34.7-26.5-44.7 15.9-29.6 25.6-49.8 23.8-50.8-1.7-1-14.4 17.5-32 46-8-3.9-17.1-6-26.6-6-32 0-58.3 24.3-61.3 55.5-85.5 0.8-147.6 3.2-147.6 6.1 0 2.8 62.1 5.2 147.6 6 1.8 18.6 11.9 34.8 26.5 44.8-15.9 29.5-25.6 49.8-23.8 50.7 1.7 1 14.4-17.4 32-46 8 3.9 17.1 6.1 26.6 6.1 32 0 58.3-24.4 61.3-55.6 85.4-0.8 147.6-3.2 147.6-6z"/></svg>
